<?xml version="1.0" encoding="UTF-8" standalone="no"?>
<!DOCTYPE svg  PUBLIC '-//W3C//DTD SVG 1.1//EN'  'http://www.w3.org/Graphics/SVG/1.1/DTD/svg11.dtd'>
<svg version="1.1" xmlns="http://www.w3.org/2000/svg">
<defs>
<font id="LFTEtica-LightItalic" horiz-adv-x="561">
<font-face descent="-270" panose-1="2 0 5 3 4 0 0 2 0 4" ascent="730" cap-height="720" underline-position="-150" units-per-em="1000" font-weight="300" font-family="a" unicode-range="U+0020-00FE" underline-thickness="50" x-height="524" font-style="italic" bbox="-113 -231 974 887"/>
<missing-glyph/>
<glyph unicode=" " horiz-adv-x="200" glyph-name="space"/>
<glyph d="M114 194l39 284l41 242h62l-41 -242l-55 -284h-46zM63 25q0 23 15.5 37.5t38.5 14.5q16 0 26.5 -10t10.5 -27q0 -23 -15 -37.5t-37 -14.5q-17 0 -28 10t-11 27z" unicode="!" horiz-adv-x="307" glyph-name="exclam"/>
<glyph d="M292 720v-274h-52v274h52zM159 720v-274h-51v274h51z" unicode='&quot;' horiz-adv-x="334" glyph-name="quotedbl"/>
<glyph d="M286 391l-48 -147h164l53 147h-169zM642 391h-143l-50 -147h140v-44h-155l-68 -185l-40 10l63 175h-168l-67 -185l-40 10l62 175h-120v44h135l51 147h-132v44h148l70 202l41 -10l-66 -192h167l71 201l42 -9l-68 -192h127v-44z" unicode="#" horiz-adv-x="694" glyph-name="numbersign"/>
<glyph d="M158 -87l14 86q-115 7 -184 97l41 36q76 -86 166 -86q77 0 130 40.5t53 111.5q0 43 -31 73.5t-106 54.5q-88 28 -125 63.5t-37 93.5q0 86 58 138.5t149 60.5l15 85h45l-15 -85q115 -8 165 -93l-41 -32q-57 78 -150 78q-71 0 -119.5 -36.5t-48.5 -100.5q0 -46 33.5 -72 t110.5 -52q82 -27 118.5 -67t36.5 -98q0 -87 -63 -145t-156 -65l-14 -86h-45z" unicode="$" horiz-adv-x="507" glyph-name="dollar"/>
<glyph d="M475 132q0 -40 24 -65.5t63 -25.5q50 0 86.5 37t36.5 88q0 39 -24 66t-63 27q-50 0 -86.5 -38t-36.5 -89zM425 125q0 73 54 125t127 52q57 0 92.5 -37t35.5 -93q0 -71 -54 -122.5t-125 -51.5q-58 0 -94 35.5t-36 91.5zM121 547q0 -41 24 -65.5t63 -24.5q51 0 88 36t37 89 q0 41 -24.5 66.5t-63.5 25.5q-50 0 -87 -37.5t-37 -89.5zM72 540q0 73 53.5 125t126.5 52q58 0 94 -35.5t36 -93.5q0 -71 -55 -123t-126 -52q-59 0 -94 34.5t-35 92.5zM102 0l553 720h54l-553 -720h-54z" unicode="%" horiz-adv-x="814" glyph-name="percent"/>
<glyph d="M272 564q0 -58 54 -126q144 62 144 154q0 35 -23.5 58t-61.5 23q-48 0 -80.5 -31.5t-32.5 -77.5zM260 33q95 0 196 103l-158 244q-179 -75 -179 -209q0 -59 38 -98.5t103 -39.5zM546 -9l-66 101q-109 -110 -233 -110q-85 0 -136.5 50t-51.5 130q0 163 214 255 q-57 73 -57 138q0 71 51.5 119t127.5 48q57 0 93.5 -32.5t36.5 -86.5q0 -122 -173 -200l73 -114l144 102l25 -38l-146 -104l146 -224z" unicode="&amp;" horiz-adv-x="699" glyph-name="ampersand"/>
<glyph d="M159 720v-274h-51v274h51z" unicode="&apos;" horiz-adv-x="201" glyph-name="quotesingle"/>
<glyph d="M305 731l34 -33q-119 -127 -171.5 -242t-52.5 -254q0 -163 88 -303l-36 -26q-108 126 -108 330q0 284 246 528z" unicode="(" horiz-adv-x="339" glyph-name="parenleft"/>
<glyph d="M53 -127l-34 33q119 127 171.5 242t52.5 254q0 163 -88 303l36 26q108 -126 108 -330q0 -284 -246 -528z" unicode=")" horiz-adv-x="339" glyph-name="parenright"/>
<glyph d="M322 436l-84 100l-85 -100l-25 19l72 107l-108 39l10 30l114 -28l8 117h30l7 -116l115 28l10 -31l-110 -39l70 -108z" unicode="*" horiz-adv-x="414" glyph-name="asterisk"/>
<glyph d="M325 561v-239h236v-47h-236v-237h-50v237h-237v47h237v239h50z" unicode="+" horiz-adv-x="600" glyph-name="plus"/>
<glyph d="M25 28q0 24 18 39.5t45 15.5q24 0 36 -16t12 -39q0 -103 -122 -156l-9 24q43 23 63.5 46.5t27.5 59.5q-15 -12 -34 -12q-18 0 -27.5 11t-9.5 27z" unicode="," horiz-adv-x="246" glyph-name="comma"/>
<glyph d="M28 252l8 51h263l-9 -51h-262z" unicode="-" horiz-adv-x="333" glyph-name="hyphen"/>
<glyph d="M37 35q0 23 13.5 35.5t34.5 12.5q22 0 35.5 -12.5t13.5 -34.5t-14 -35t-35 -13t-34.5 13t-13.5 34z" unicode="." horiz-adv-x="247" glyph-name="period"/>
<glyph d="M-41 -92l381 831h54l-384 -831h-51z" unicode="/" horiz-adv-x="348" glyph-name="slash"/>
<glyph d="M132 354q-11 -69 -11 -131q0 -184 126 -184q169 0 219 316q12 75 12 131q0 183 -128 183q-169 0 -218 -315zM72 354q56 366 286 366q178 0 178 -235q0 -54 -11 -129q-55 -368 -285 -368q-179 0 -179 234q0 55 11 132z" unicode="0" horiz-adv-x="590" glyph-name="zero"/>
<glyph d="M180 46l96 576q-94 -58 -185 -76l-1 46q53 12 113.5 44t104.5 73h39l-111 -663h139l-8 -46h-354l8 46h159z" unicode="1" horiz-adv-x="437" glyph-name="one"/>
<glyph d="M-13 0l8 42l325 347q52 54 71 91.5t19 79.5q0 48 -30.5 76.5t-81.5 28.5q-91 0 -191 -83l-27 39q106 99 232 99q68 0 113 -39.5t45 -106.5q0 -55 -25.5 -104t-81.5 -106l-294 -312h321l-9 -52h-394z" unicode="2" horiz-adv-x="493" glyph-name="two"/>
<glyph d="M-19 83l42 41q36 -43 74.5 -62.5t95.5 -19.5q75 0 129.5 48.5t54.5 124.5q0 123 -147 124q-7 0 -28 -1l-21 -1l6 53q86 2 148 52t62 123q0 48 -31 75t-79 27q-88 0 -163 -52l-19 40q94 65 195 65q71 0 114 -37.5t43 -104.5q0 -68 -47 -126t-116 -77q73 -7 108.5 -46 t35.5 -104q0 -108 -75 -172.5t-177 -64.5q-66 0 -115 22t-90 73z" unicode="3" horiz-adv-x="505" glyph-name="three"/>
<glyph d="M82 226h263l71 425zM307 0l29 175h-324l8 44l386 490h74l-82 -483h87l-8 -51h-87l-29 -175h-54z" unicode="4" horiz-adv-x="522" glyph-name="four"/>
<glyph d="M66 276l102 433h326l-12 -55h-277l-64 -272q62 56 153 56q79 0 119.5 -45t40.5 -125q0 -131 -76.5 -205.5t-189.5 -74.5q-107 0 -185 61l34 46q82 -55 153 -55q91 0 148 54.5t57 159.5q0 60 -29 96.5t-87 36.5q-85 0 -151 -62l-12 -49h-50z" unicode="5" horiz-adv-x="523" glyph-name="five"/>
<glyph d="M55 302q29 212 115.5 315t206.5 103q90 0 144 -57l-34 -40q-50 46 -114 46q-178 0 -251 -313q96 81 196 81q79 0 117.5 -46.5t38.5 -122.5q0 -27 -4 -51q-17 -112 -82.5 -170.5t-163.5 -58.5q-175 0 -175 215q0 58 6 99zM234 39q64 0 113.5 43.5t63.5 131.5q4 23 4 46 q0 62 -31.5 93.5t-82.5 31.5q-85 0 -186 -87q-8 -48 -8 -96q0 -163 127 -163z" unicode="6" horiz-adv-x="528" glyph-name="six"/>
<glyph d="M477 668l-378 -668h-57l1 8l368 646h-335l10 55h399z" unicode="7" horiz-adv-x="431" glyph-name="seven"/>
<glyph d="M78 153q0 -52 35.5 -83t98.5 -31q79 0 131.5 48.5t52.5 122.5q0 99 -136 148q-182 -70 -182 -205zM170 534q0 -83 111 -126q57 24 104 68.5t47 100.5q0 45 -29.5 69.5t-80.5 24.5q-65 0 -108.5 -37.5t-43.5 -99.5zM20 142q0 83 52.5 144t142.5 97q-103 41 -103 142 q0 87 62.5 141t155.5 54q72 0 116 -36.5t44 -98.5t-45 -115t-116 -85q126 -58 126 -167q0 -101 -72 -165.5t-183 -64.5q-86 0 -133 41t-47 113z" unicode="8" horiz-adv-x="516" glyph-name="eight"/>
<glyph d="M486 494q0 -228 -85.5 -367t-223.5 -139q-102 0 -155 53l34 43q57 -45 124 -45q92 0 157 89.5t83 222.5q-79 -80 -195 -80q-80 0 -119.5 51.5t-39.5 129.5q0 118 67.5 193t176.5 75q86 0 131 -60.5t45 -165.5zM303 669q-72 0 -125 -56t-53 -157q0 -66 31 -99t83 -33 q53 0 105.5 27t79.5 63q29 255 -121 255z" unicode="9" horiz-adv-x="520" glyph-name="nine"/>
<glyph d="M109 444q0 23 13.5 35.5t34.5 12.5q22 0 35.5 -12.5t13.5 -34.5t-14 -35t-35 -13t-34.5 13t-13.5 34zM42 35q0 23 13.5 35.5t34.5 12.5q22 0 35.5 -12.5t13.5 -34.5t-14 -35t-35 -13t-34.5 13t-13.5 34z" unicode=":" horiz-adv-x="247" glyph-name="colon"/>
<glyph d="M25 28q0 24 18 39.5t45 15.5q24 0 36 -16t12 -39q0 -103 -122 -156l-9 24q43 23 63.5 46.5t27.5 59.5q-15 -12 -34 -12q-18 0 -27.5 11t-9.5 27zM112 444q0 23 13.5 35.5t34.5 12.5q22 0 35.5 -12.5t13.5 -34.5t-14 -35t-35 -13t-34.5 13t-13.5 34z" unicode=";" horiz-adv-x="250" glyph-name="semicolon"/>
<glyph d="M565 56l-546 223v29l546 223l18 -45l-481 -193l481 -191z" unicode="&lt;" horiz-adv-x="600" glyph-name="less"/>
<glyph d="M560 383v-45h-520v45h520zM560 229v-44h-520v44h520z" unicode="=" horiz-adv-x="600" glyph-name="equal"/>
<glyph d="M580 284l-546 -222l-17 45l479 192l-479 193l18 44l545 -222v-30z" unicode="&gt;" horiz-adv-x="600" glyph-name="greater"/>
<glyph d="M205 194l3 24q7 42 28 78.5t46.5 60.5t53.5 50t51 48t38 53t15 67q0 49 -30 77t-89 28q-69 0 -115 -42t-58 -116h-56q17 99 79.5 154.5t163.5 55.5q75 0 121 -39t46 -107q0 -42 -16 -78t-40.5 -61.5t-54 -52.5t-56 -50.5t-47.5 -56.5t-27 -69l-4 -24h-52zM157 24 q0 24 15.5 38.5t38.5 14.5q16 0 26.5 -10t10.5 -27q0 -23 -15 -37.5t-37 -14.5q-18 0 -28.5 9.5t-10.5 26.5z" unicode="?" horiz-adv-x="509" glyph-name="question"/>
<glyph d="M568 169l46 179q-32 22 -91 22q-84 0 -139.5 -66t-55.5 -155q0 -53 24.5 -85.5t70.5 -32.5q53 0 91.5 41t53.5 97zM666 374l-57 -240q-13 -55 2 -79.5t59 -24.5q87 0 145 84t58 190q0 144 -94.5 223.5t-247.5 79.5q-179 0 -300 -121t-121 -302q0 -163 110 -260.5 t274 -97.5q156 0 289 95l22 -32q-131 -103 -310 -103q-186 0 -309 108t-123 290q0 205 135.5 334.5t335.5 129.5q174 0 279 -92t105 -245q0 -133 -71 -226t-184 -93q-51 0 -76.5 26t-20.5 71q-54 -94 -150 -94q-68 0 -101.5 41t-33.5 113q0 105 68 183t173 78q86 0 144 -36z " unicode="@" horiz-adv-x="982" glyph-name="at"/>
<glyph d="M352 720h61l141 -720h-63l-43 220h-297l-116 -220h-65zM176 274h263l-69 374z" unicode="A" horiz-adv-x="625" glyph-name="A"/>
<glyph d="M367 669h-160l-45 -271h145q215 0 215 164q0 107 -155 107zM153 346l-50 -295h189q101 0 155 50t54 130q0 115 -170 115h-178zM37 0l120 720h235q193 0 193 -146q0 -67 -43 -125.5t-120 -68.5q-2 -1 -2 -2q74 -6 108.5 -49.5t34.5 -99.5q0 -118 -80.5 -173.5 t-213.5 -55.5h-232z" unicode="B" horiz-adv-x="620" glyph-name="B"/>
<glyph d="M541 137l28 -40q-116 -109 -262 -109q-124 0 -184.5 81.5t-60.5 210.5q0 124 42.5 225.5t129 164.5t202.5 63q102 0 159.5 -59t43.5 -156h-59q6 68 -30.5 114t-124.5 46q-133 0 -215.5 -111t-82.5 -278q0 -120 48.5 -183t144.5 -63q115 0 221 94z" unicode="C" horiz-adv-x="641" glyph-name="C"/>
<glyph d="M334 665h-130l-99 -610h125q284 0 330 304q8 53 8 91q0 109 -56 162t-178 53zM152 720h186q294 0 294 -267q0 -40 -8 -94q-29 -188 -131.5 -273.5t-280.5 -85.5h-176z" unicode="D" horiz-adv-x="682" glyph-name="D"/>
<glyph d="M37 0l120 720h436l-9 -53h-376l-45 -269h343l-9 -54h-344l-49 -292h385l-8 -52h-444z" unicode="E" horiz-adv-x="586" glyph-name="E"/>
<glyph d="M37 0l120 720h413l-9 -52h-353l-46 -274h313l-9 -52h-313l-57 -342h-59z" unicode="F" horiz-adv-x="533" glyph-name="F"/>
<glyph d="M417 309l9 52h219l-43 -259q-114 -114 -278 -114q-135 0 -200 79.5t-65 213.5q0 198 106 325t286 127q68 0 115.5 -19.5t69 -52.5t29 -67t2.5 -71h-59q4 73 -34 114t-137 41q-96 0 -168.5 -55t-108.5 -142t-36 -190q0 -120 53 -184.5t159 -64.5q121 0 217 86l30 181h-166 z" unicode="G" horiz-adv-x="703" glyph-name="G"/>
<glyph d="M37 0l120 720h59l-52 -314h392l52 314h61l-121 -720h-60l59 352h-392l-59 -352h-59z" unicode="H" horiz-adv-x="685" glyph-name="H"/>
<glyph d="M37 0l120 720h59l-120 -720h-59z" unicode="I" horiz-adv-x="233" glyph-name="I"/>
<glyph d="M370 720l-96 -575q-14 -83 -56.5 -120t-119.5 -37q-74 0 -127 28l24 49q52 -25 110 -25q49 0 75 28t37 99l93 553h60z" unicode="J" horiz-adv-x="381" glyph-name="J"/>
<glyph d="M37 0l120 720h59l-53 -320h148l243 320h67l-262 -343l180 -377h-69l-168 349h-148l-58 -349h-59z" unicode="K" horiz-adv-x="614" glyph-name="K"/>
<glyph d="M157 720h59l-111 -666h338l-9 -54h-397z" unicode="L" horiz-adv-x="512" glyph-name="L"/>
<glyph d="M739 0h-58l42 628l-323 -628h-52l-110 628l-168 -628h-58l193 720h74l110 -637l325 637h72z" unicode="M" horiz-adv-x="851" glyph-name="M"/>
<glyph d="M37 0l120 720h57l297 -615l102 615h60l-121 -720h-55l-298 616l-103 -616h-59z" unicode="N" horiz-adv-x="689" glyph-name="N"/>
<glyph d="M135 370q-8 -47 -8 -95q0 -116 54.5 -173.5t152.5 -57.5q113 0 191.5 81t104.5 245q7 42 7 83q0 109 -53.5 166.5t-148.5 57.5q-115 0 -195.5 -80t-104.5 -227zM70 370q27 179 130 271t247 92q116 0 185 -72t69 -208q0 -47 -6 -83q-16 -102 -51.5 -177.5t-86 -119.5 t-109 -64.5t-126.5 -20.5q-120 0 -190 70t-70 212q0 52 8 100z" unicode="O" horiz-adv-x="747" glyph-name="O"/>
<glyph d="M359 666h-152l-53 -318h142q109 0 164 50.5t55 143.5q0 124 -156 124zM37 0l120 720h214q103 0 154 -44.5t51 -126.5q0 -114 -73 -183.5t-215 -69.5h-143l-49 -296h-59z" unicode="P" horiz-adv-x="581" glyph-name="P"/>
<glyph d="M70 370q27 179 130 271t247 92q116 0 185 -72t69 -208q0 -47 -6 -83q-43 -281 -234 -357l153 -56l-25 -51l-219 85q-24 -3 -48 -3q-120 0 -190 70t-70 212q0 52 8 100zM135 370q-8 -47 -8 -95q0 -116 54.5 -173.5t152.5 -57.5q113 0 191.5 81t104.5 245q7 42 7 83 q0 109 -53.5 166.5t-148.5 57.5q-115 0 -195.5 -80t-104.5 -227z" unicode="Q" horiz-adv-x="747" glyph-name="Q"/>
<glyph d="M157 720h213q105 0 156.5 -45t51.5 -125q0 -163 -160 -233l110 -317h-65l-105 304q-32 -7 -80 -7h-133l-49 -297h-59zM360 666h-153l-53 -318h145q109 0 163 50.5t54 144.5q0 123 -156 123z" unicode="R" horiz-adv-x="613" glyph-name="R"/>
<glyph d="M2 92l42 40q82 -91 195 -91q81 0 137 45t56 124q0 47 -32.5 78t-113.5 58q-104 33 -146 69.5t-42 105.5q0 95 72.5 153.5t184.5 58.5q138 0 205 -104l-45 -36q-58 88 -169 88q-81 0 -133 -39.5t-52 -110.5q0 -53 33.5 -77t132.5 -60q91 -33 129 -71.5t38 -100.5 q0 -107 -75 -170.5t-194 -63.5q-71 0 -129 28.5t-94 75.5z" unicode="S" glyph-name="S"/>
<glyph d="M195 0l111 667h-227l9 53h514l-9 -53h-227l-111 -667h-60z" unicode="T" horiz-adv-x="551" glyph-name="T"/>
<glyph d="M152 720h59l-74 -445q-19 -118 21 -175.5t142 -57.5q104 0 158.5 58t74.5 175l74 445h60l-76 -455q-46 -277 -299 -277q-123 0 -181 69t-35 208z" unicode="U" horiz-adv-x="679" glyph-name="U"/>
<glyph d="M203 0l-112 720h62l96 -654l318 654h61l-353 -720h-72z" unicode="V" horiz-adv-x="578" glyph-name="V"/>
<glyph d="M162 0l-71 720h59l66 -644l279 644h62l64 -645l278 645h60l-311 -720h-72l-65 634l-277 -634h-72z" unicode="W" horiz-adv-x="909" glyph-name="W"/>
<glyph d="M-30 0l286 368l-159 352h65l138 -306l235 306h68l-278 -356l161 -364h-68l-138 313l-241 -313h-69z" unicode="X" horiz-adv-x="557" glyph-name="X"/>
<glyph d="M195 0l52 310l-157 410h67l131 -349l248 349h67l-296 -410l-52 -310h-60z" unicode="Y" horiz-adv-x="553" glyph-name="Y"/>
<glyph d="M-11 0l8 41l507 626h-373l9 53h461l-5 -27l-519 -640h411l-9 -53h-490z" unicode="Z" horiz-adv-x="568" glyph-name="Z"/>
<glyph d="M190 -125h-167l142 845h167l-8 -48h-111l-126 -749h111z" unicode="[" horiz-adv-x="336" glyph-name="bracketleft"/>
<glyph d="M115 739l242 -831h-51l-245 831h54z" unicode="\" horiz-adv-x="392" glyph-name="backslash"/>
<glyph d="M169 -125h-166l7 48h111l126 749h-111l8 48h167z" unicode="]" horiz-adv-x="335" glyph-name="bracketright"/>
<glyph d="M430 693l192 -249l-41 -31l-184 236l-267 -236l-30 33l275 247h55z" unicode="^" horiz-adv-x="675" glyph-name="asciicircum"/>
<glyph d="M-90 -231l8 45h491l-7 -45h-492z" unicode="_" horiz-adv-x="490" glyph-name="underscore"/>
<glyph d="M239 746l114 -130l-31 -30l-124 122z" unicode="`" horiz-adv-x="494" glyph-name="grave"/>
<glyph d="M385 0l12 71q-80 -83 -189 -83q-87 0 -130 55.5t-43 152.5q0 147 72.5 243.5t193.5 96.5q98 0 155 -91l14 79h55l-87 -524h-53zM403 132l42 248q-21 39 -57 71t-89 32q-87 0 -145 -75t-58 -198q0 -170 126 -170q92 0 181 92z" unicode="a" glyph-name="a"/>
<glyph d="M143 380l-42 -246q19 -38 55.5 -66.5t89.5 -28.5q93 0 149.5 75t56.5 206q0 163 -126 163q-86 0 -183 -103zM72 0h-49l120 720h57l-47 -276q89 92 193 92q84 0 125.5 -55.5t41.5 -152.5q0 -95 -28.5 -170t-91 -122.5t-151.5 -47.5q-61 0 -100.5 27.5t-54.5 58.5z" unicode="b" horiz-adv-x="568" glyph-name="b"/>
<glyph d="M405 100l21 -40q-91 -72 -198 -72q-90 0 -140.5 59.5t-50.5 159.5q0 151 80 240t195 89q88 0 131 -49t34 -136h-53q3 66 -28 99.5t-88 33.5q-93 0 -151.5 -74t-58.5 -190q0 -78 36 -129t105 -51q46 0 81.5 13t84.5 47z" unicode="c" horiz-adv-x="508" glyph-name="c"/>
<glyph d="M385 0l11 70q-79 -82 -188 -82q-87 0 -130 55.5t-43 152.5q0 147 72.5 243.5t193.5 96.5q98 0 155 -91l47 275h55l-120 -720h-53zM403 132l42 248q-21 39 -57 71t-89 32q-87 0 -145 -75t-58 -198q0 -170 126 -170q92 0 181 92z" unicode="d" glyph-name="d"/>
<glyph d="M406 99l23 -39q-91 -72 -206 -72q-91 0 -138.5 51.5t-47.5 146.5q0 156 82.5 253t204.5 97q72 0 112 -34t40 -93q0 -44 -16.5 -75.5t-57 -58t-116.5 -40.5t-187 -17q-1 -10 -1 -30q0 -148 139 -148q90 0 169 59zM105 268q121 2 191.5 20t95.5 45t25 70q0 39 -24.5 61 t-74.5 22q-49 0 -90 -23.5t-66 -59t-39 -70.5t-18 -65z" unicode="e" horiz-adv-x="506" glyph-name="e"/>
<glyph d="M39 0l79 475h-58l6 37l60 10l14 81q10 58 42 93.5t88 35.5q33 0 58 -8l-11 -45q-21 7 -45 7q-61 0 -75 -80l-14 -82h98l-9 -49h-98l-79 -475h-56z" unicode="f" horiz-adv-x="248" glyph-name="f"/>
<glyph d="M525 524l-90 -539q-18 -107 -73 -151t-160 -44q-97 0 -179 35l19 47q78 -34 156 -34q94 0 134.5 41.5t54.5 138.5l8 51q-77 -79 -188 -79q-88 0 -130 57t-42 150q0 88 28.5 163.5t91 125.5t149.5 50q101 0 153 -94l14 82h54zM403 131l41 247q-16 38 -53 71.5t-88 33.5 q-97 0 -152 -77.5t-55 -195.5q0 -170 124 -170q84 0 183 91z" unicode="g" glyph-name="g"/>
<glyph d="M143 720h57l-47 -277q95 93 190 93q154 0 122 -199l-56 -337h-56l54 327q5 40 5.5 74.5t-22 58t-68.5 23.5q-85 0 -179 -98l-64 -385h-56z" unicode="h" horiz-adv-x="531" glyph-name="h"/>
<glyph d="M126 663q0 19 14.5 32t35.5 13q16 0 25.5 -9.5t9.5 -23.5q0 -19 -14 -32t-34 -13q-16 0 -26.5 9.5t-10.5 23.5zM172 524l-88 -524h-55l88 524h55z" unicode="i" horiz-adv-x="213" glyph-name="i"/>
<glyph d="M173 524l-101 -603q-11 -63 -37.5 -93.5t-84.5 -30.5q-39 0 -63 10l14 45q21 -7 46 -7q29 0 45 16t23 61l102 602h56zM127 663q0 19 15 33t35 14q16 0 25.5 -10t9.5 -25q0 -19 -14 -33t-34 -14q-17 0 -27 9.5t-10 25.5z" unicode="j" horiz-adv-x="214" glyph-name="j"/>
<glyph d="M200 720l-68 -403h63l216 207h69l-240 -232l177 -292h-70l-163 266h-60l-45 -266h-56l120 720h57z" unicode="k" horiz-adv-x="480" glyph-name="k"/>
<glyph d="M79 0h-56l120 720h57z" unicode="l" horiz-adv-x="202" glyph-name="l"/>
<glyph d="M111 524h53l-14 -83q88 95 179 95q56 0 81 -25t31 -70q93 95 182 95q137 0 106 -174l-60 -362h-57l61 356q9 63 -6.5 94.5t-67.5 31.5q-65 0 -159 -94l-65 -388h-57l59 354q11 63 -4 95.5t-67 32.5q-32 0 -67.5 -19.5t-52.5 -35t-42 -41.5l-65 -386h-56z" unicode="m" horiz-adv-x="791" glyph-name="m"/>
<glyph d="M111 524h53l-14 -81q93 93 190 93q87 0 114 -52.5t11 -147.5l-56 -336h-56l54 329q14 79 -6.5 116.5t-81.5 37.5q-78 0 -176 -98l-64 -385h-56z" unicode="n" horiz-adv-x="531" glyph-name="n"/>
<glyph d="M99 261q-5 -29 -5 -63q0 -78 35.5 -117.5t100.5 -39.5q75 0 130.5 55t73.5 165q5 27 5 62q0 79 -37.5 119.5t-100.5 40.5q-74 0 -129.5 -57t-72.5 -165zM37 260q19 130 93.5 203t179.5 73q90 0 140 -54.5t50 -154.5q0 -37 -5 -66q-22 -137 -94 -205t-180 -68 q-90 0 -139.5 54t-49.5 151q0 37 5 67z" unicode="o" horiz-adv-x="558" glyph-name="o"/>
<glyph d="M143 380l-42 -249q54 -90 146 -90q93 0 149 74t56 204q0 164 -126 164q-86 0 -183 -103zM46 -200h-56l121 724h54l-14 -84q91 96 196 96q83 0 124.5 -55t41.5 -152q0 -148 -70 -244.5t-198 -96.5q-61 0 -100 26.5t-54 55.5z" unicode="p" horiz-adv-x="568" glyph-name="p"/>
<glyph d="M348 -200l45 264q-82 -76 -184 -76q-88 0 -131 55.5t-43 152.5q0 147 72.5 243.5t195.5 96.5q99 0 156 -92l14 80h52l-121 -724h-56zM403 130l42 251q-51 102 -146 102q-87 0 -145 -75t-58 -198q0 -169 126 -169q92 0 181 89z" unicode="q" horiz-adv-x="563" glyph-name="q"/>
<glyph d="M161 524l-14 -85q24 43 60.5 70t75.5 27q27 0 44 -7l-17 -57q-14 5 -40 5q-36 0 -70.5 -31t-57.5 -71l-63 -375h-56l88 524h50z" unicode="r" horiz-adv-x="298" glyph-name="r"/>
<glyph d="M-12 68l38 39q71 -69 151 -69q67 0 108.5 30t41.5 80q0 39 -25.5 60.5t-95.5 37.5q-77 18 -109.5 48.5t-32.5 85.5q0 70 55.5 113t147.5 43q110 0 166 -77l-37 -35q-53 63 -136 63q-61 0 -99 -26.5t-38 -71.5q0 -39 27.5 -59t94.5 -37q74 -18 109 -50.5t35 -83.5 q0 -80 -60.5 -125.5t-156.5 -45.5q-59 0 -107 22.5t-77 57.5z" unicode="s" horiz-adv-x="456" glyph-name="s"/>
<glyph d="M272 475h-99l-64 -387q-5 -29 3.5 -40.5t33.5 -11.5q28 0 64 15l6 -42q-46 -21 -86 -21q-94 0 -78 88l66 399h-63l6 37l66 12l33 139h45l-23 -139h99z" unicode="t" horiz-adv-x="279" glyph-name="t"/>
<glyph d="M403 0h-53l13 80q-88 -92 -189 -92q-61 0 -94 26.5t-36.5 68t3.5 93.5l59 348h57l-57 -337q-12 -74 7 -110t80 -36q82 0 177 97l65 386h56z" unicode="u" horiz-adv-x="526" glyph-name="u"/>
<glyph d="M43 524h58l77 -462l238 462h58l-273 -524h-66z" unicode="v" horiz-adv-x="456" glyph-name="v"/>
<glyph d="M644 524h56l-214 -524h-61l-65 440l-208 -440h-60l-38 524h57l26 -452l208 446h56l65 -446z" unicode="w" horiz-adv-x="697" glyph-name="w"/>
<glyph d="M-34 0l222 271l-130 253h65l105 -213l179 213h62l-213 -257l134 -267h-63l-111 225l-185 -225h-65z" unicode="x" horiz-adv-x="457" glyph-name="x"/>
<glyph d="M400 524h61l-281 -558q-49 -97 -81 -132.5t-90 -35.5q-47 0 -83 11l17 48q25 -9 66 -9q32 0 54 21t52 83l23 49l-97 523h61l78 -447z" unicode="y" horiz-adv-x="453" glyph-name="y"/>
<glyph d="M-17 0l8 41l352 433h-273l8 50h348l-6 -33l-359 -441h282l-8 -50h-352z" unicode="z" horiz-adv-x="416" glyph-name="z"/>
<glyph d="M390 674h-43q-48 0 -70.5 -30.5t-32.5 -94.5l-23 -138q-10 -56 -30 -86t-74 -43q35 -5 50.5 -25.5t14.5 -49t-6 -63.5l-16 -98q-11 -66 2.5 -95.5t66.5 -29.5h34l-8 -46h-33q-83 0 -110 34.5t-13 116.5l20 118q9 58 -4 85.5t-62 27.5h-26l8 50h25q51 0 73.5 29.5 t34.5 101.5l19 109q15 92 52 132.5t121 40.5h37z" unicode="{" horiz-adv-x="348" glyph-name="braceleft"/>
<glyph d="M275 720v-920h-51v920h51z" unicode="|" horiz-adv-x="500" glyph-name="bar"/>
<glyph d="M125 674h-42l8 46h37q83 0 106.5 -40.5t7.5 -132.5l-18 -109q-14 -68 -1 -99.5t64 -31.5h24l-9 -50h-25q-49 0 -70.5 -27.5t-32.5 -85.5l-19 -118q-14 -82 -52 -116.5t-119 -34.5h-34l7 46h35q52 0 75.5 29.5t33.5 95.5l16 98q5 31 10.5 49.5t16.5 39.5t30 33t47 16 q-48 13 -59.5 47.5t1.5 81.5l22 138q11 65 -1 95t-59 30z" unicode="}" horiz-adv-x="339" glyph-name="braceright"/>
<glyph d="M688 344l24 -37q-109 -78 -194 -78q-53 0 -137.5 35t-126.5 35q-70 0 -168 -69l-22 39q107 78 202 78q55 0 139.5 -35t117.5 -35q67 0 165 67z" unicode="~" horiz-adv-x="770" glyph-name="asciitilde"/>
<glyph d="M190 344l-39 -284l-41 -242h-62l41 242l55 284h46zM241 513q0 -23 -15.5 -37.5t-38.5 -14.5q-16 0 -26.5 10t-10.5 27q0 23 15 37.5t37 14.5q17 0 28 -10t11 -27z" unicode="¡" horiz-adv-x="307" glyph-name="exclamdown"/>
<glyph d="M433 190l20 -38q-82 -65 -176 -73l-17 -97h-45l17 96q-81 5 -126 64.5t-45 155.5q0 144 75 230t186 94l17 98h45l-17 -99q72 -7 106.5 -55.5t28.5 -126.5h-52q4 68 -27.5 101.5t-89.5 33.5q-93 0 -151.5 -74.5t-58.5 -191.5q0 -78 36 -129.5t104 -51.5q45 0 82.5 15 t87.5 48z" unicode="¢" horiz-adv-x="519" glyph-name="cent"/>
<glyph d="M212 243q0 -55 -26.5 -99t-73.5 -92h295l-8 -52h-405l8 49l48 2q32 31 52 55t38 60.5t18 71.5q0 34 -11 89h-96l8 47h80q-31 88 -31 142q0 92 68.5 148t159.5 56q120 0 174 -83l-42 -33q-44 65 -135 65q-73 0 -120 -39.5t-47 -110.5q0 -44 31 -145h157l-8 -47h-142 q8 -42 8 -84z" unicode="£" horiz-adv-x="499" glyph-name="sterling"/>
<glyph d="M453 357q0 56 -35.5 92.5t-90.5 36.5q-69 0 -123 -51t-54 -121q0 -55 35.5 -92.5t91.5 -37.5q68 0 122 51.5t54 121.5zM94 555l34 30l80 -97q60 43 128 43q67 0 112 -43l112 97l25 -30l-114 -98q28 -39 28 -95q0 -79 -67 -148l81 -97l-35 -30l-80 97q-61 -43 -127 -43 q-68 0 -114 43q-6 -5 -48 -42t-66 -55l-23 30l112 97q-25 37 -25 94q0 81 66 149z" unicode="¤" horiz-adv-x="592" glyph-name="currency"/>
<glyph d="M584 709l-237 -317h167l-8 -46h-193l-13 -79h192l-8 -46h-192l-37 -221h-54l37 221h-192l8 46h192l13 79h-192l8 46h166l-131 317h63l122 -307l228 307h61z" unicode="¥" horiz-adv-x="558" glyph-name="yen"/>
<glyph d="M275 204v-404h-51v404h51zM275 720v-404h-51v404h51z" unicode="¦" horiz-adv-x="500" glyph-name="brokenbar"/>
<glyph d="M45 65l39 35q58 -66 131 -66q48 0 88.5 24t40.5 72q0 17 -8 30t-27 23t-33 15.5t-42 14.5q-33 11 -50.5 18t-41.5 21.5t-35 35.5t-11 49q0 48 36.5 90.5t106.5 50.5q-99 28 -99 107q0 59 52 103.5t133 44.5q48 0 89.5 -18.5t61.5 -49.5l-35 -30q-49 54 -120 54 q-52 0 -87.5 -26t-35.5 -68q0 -19 8.5 -33t29 -25t34.5 -16t45 -15q30 -10 48.5 -18t40.5 -23t32.5 -36.5t10.5 -50.5q0 -60 -40 -95.5t-96 -42.5q91 -36 91 -101q0 -63 -55 -107t-136 -44q-50 0 -95.5 20t-70.5 57zM283 450q-62 0 -97.5 -28.5t-35.5 -74.5 q0 -34 33.5 -55.5t81.5 -23.5q53 2 90.5 26t37.5 77q0 37 -32 58t-78 21z" unicode="§" horiz-adv-x="517" glyph-name="section"/>
<glyph d="M325 662q0 18 14.5 32.5t35.5 14.5q16 0 25.5 -10t9.5 -25q0 -19 -14.5 -32.5t-33.5 -13.5q-17 0 -27 9.5t-10 24.5zM149 662q0 18 15 32.5t35 14.5q16 0 25.5 -10t9.5 -25q0 -19 -14 -32.5t-34 -13.5q-17 0 -27 9.5t-10 24.5z" unicode="¨" horiz-adv-x="494" glyph-name="dieresis"/>
<glyph d="M534 253l24 -26q-57 -62 -139 -62q-80 0 -121 55.5t-41 142.5q0 85 43.5 140.5t122.5 55.5q59 0 95.5 -33t37.5 -92h-39q-4 42 -26 64.5t-70 22.5q-58 0 -89.5 -42.5t-31.5 -113.5q0 -82 32.5 -122t90.5 -40q59 0 111 50zM420 684q-139 0 -229.5 -93t-90.5 -231 q0 -154 92 -238.5t228 -84.5q126 0 224 93.5t98 229.5q0 143 -91.5 233.5t-230.5 90.5zM420 720q158 0 259 -99.5t101 -256.5q0 -154 -107.5 -259t-252.5 -105q-99 0 -179 39t-130.5 122t-50.5 199q0 154 104 257t256 103z" unicode="©" horiz-adv-x="825" glyph-name="copyright"/>
<glyph d="M330 264l8 47q-61 -56 -130 -56q-65 0 -96.5 40t-31.5 111q0 107 52.5 177t142.5 70q72 0 107 -60l9 52h48l-62 -381h-47zM343 362l30 179q-37 69 -100 69q-62 0 -102.5 -53t-40.5 -139q0 -51 22.5 -85.5t71.5 -34.5q58 0 119 64z" unicode="ª" horiz-adv-x="466" glyph-name="ordfeminine"/>
<glyph d="M95 262l100 -126l-34 -28l-128 146l3 17l177 144l25 -26zM287 262l100 -126l-34 -28l-128 146l3 17l177 144l25 -26z" unicode="«" horiz-adv-x="457" glyph-name="guillemotleft"/>
<glyph d="M568 128h-47v208h-489v45h536v-253z" unicode="¬" horiz-adv-x="600" glyph-name="logicalnot"/>
<glyph d="M1 252l8 51h263l-9 -51h-262z" unicode="­" horiz-adv-x="334" glyph-name="uni00AD"/>
<glyph d="M181 638h68q61 0 61 -52q0 -34 -31 -48l42 -75h-29l-38 68h-47v-68h-26v175zM243 616h-36v-64h33q44 0 44 33q0 17 -9.5 24t-31.5 7zM244 694q-61 0 -101.5 -41.5t-40.5 -103.5q0 -69 39 -107t103 -38q57 0 99.5 42.5t42.5 102.5q0 64 -39 104.5t-103 40.5zM244 724 q78 0 126.5 -49t48.5 -126q0 -74 -52.5 -124.5t-122.5 -50.5q-77 0 -126 47t-49 128q0 75 50.5 125t124.5 50z" unicode="®" horiz-adv-x="422" glyph-name="registered"/>
<glyph d="M134 627l7 47h267l-8 -47h-266z" unicode="¯" horiz-adv-x="494" glyph-name="macron"/>
<glyph d="M111 658q0 -33 20.5 -54.5t51.5 -21.5t51 21.5t20 54.5q0 31 -19.5 51t-51.5 20q-31 0 -51.5 -20t-20.5 -51zM69 657q0 47 33.5 80t80.5 33t80 -33t33 -80q0 -48 -33 -80.5t-80 -32.5q-48 0 -81 32.5t-33 80.5z" unicode="°" horiz-adv-x="307" glyph-name="degree"/>
<glyph d="M325 561v-239h236v-47h-236v-228h235v-47h-520v47h235v228h-237v47h237v239h50z" unicode="±" horiz-adv-x="600" glyph-name="plusminus"/>
<glyph d="M38 400l6 36l166 148q38 35 50.5 53.5t12.5 46.5q0 45 -55 45q-52 0 -116 -46l-18 34q75 56 146 56q45 0 70.5 -21t25.5 -58q0 -60 -70 -123l-145 -128h179l-8 -43h-244z" unicode="²" horiz-adv-x="295" glyph-name="twosuperior"/>
<glyph d="M38 443l30 32q43 -40 100 -40q95 0 95 76q0 56 -85 56q-3 0 -10 -0.5t-12 -0.5h-6l6 42q51 1 82.5 21.5t31.5 59.5q0 43 -61 43q-45 0 -94 -28l-13 34q61 35 123 35q95 0 95 -74q0 -38 -25 -67t-66 -39q83 -7 83 -77q0 -57 -42.5 -90t-106.5 -33q-84 0 -125 50z" unicode="³" horiz-adv-x="310" glyph-name="threesuperior"/>
<glyph d="M182 616l158 130l27 -39l-165 -121z" unicode="´" horiz-adv-x="494" glyph-name="acute"/>
<glyph d="M473 0h-53v82q-46 -93 -147 -93q-48 0 -78.5 16.5t-53.5 51.5v-257h-56v724h56v-320q0 -169 134 -169q63 0 102 49t39 100v340h57v-524z" unicode="µ" horiz-adv-x="566" glyph-name="mu"/>
<glyph d="M510 720l-121 -720h-52l112 672h-105l-113 -672h-52l62 371q-75 4 -116.5 43t-41.5 103q0 88 64.5 145.5t163.5 57.5h199z" unicode="¶" horiz-adv-x="526" glyph-name="paragraph"/>
<glyph d="M85 339q0 23 13.5 35.5t34.5 12.5q22 0 35.5 -12.5t13.5 -34.5t-14 -35t-35 -13t-34.5 13t-13.5 34z" unicode="·" horiz-adv-x="267" glyph-name="periodcentered"/>
<glyph d="M47 -186l16 34q34 -14 63 -14q57 0 57 45q0 31 -66 31h-9l39 99h35l-25 -67q69 -2 69 -56q0 -45 -29.5 -67t-74.5 -22q-44 0 -75 17z" unicode="¸" horiz-adv-x="493" glyph-name="cedilla"/>
<glyph d="M189 400h-49l50 298q-58 -23 -103 -27v37q75 14 130 60h34z" unicode="¹" horiz-adv-x="237" glyph-name="onesuperior"/>
<glyph d="M129 417q0 -59 28 -89t76 -30q67 0 111 49.5t44 142.5q0 60 -28 91t-75 31q-67 0 -111.5 -51t-44.5 -144zM82 411q0 109 58.5 175.5t151.5 66.5q69 0 107 -42t38 -116q0 -107 -60.5 -173.5t-150.5 -66.5q-69 0 -106.5 41t-37.5 115z" unicode="º" horiz-adv-x="466" glyph-name="ordmasculine"/>
<glyph d="M153 261l-100 126l34 28l128 -146l-3 -17l-177 -144l-25 26zM346 261l-100 126l34 28l128 -146l-3 -17l-177 -144l-25 26z" unicode="»" horiz-adv-x="458" glyph-name="guillemotright"/>
<glyph d="M107 -1l552 721h51l-551 -721h-52zM194 350h-49l50 298q-58 -23 -103 -27v37q75 14 130 60h34zM656 322l-172 -201h138zM602 0l13 79h-192l7 39l214 250h66l-41 -247h45l-7 -42h-46l-13 -79h-46z" unicode="¼" horiz-adv-x="811" glyph-name="onequarter"/>
<glyph d="M87 -1l552 721h51l-551 -721h-52zM211 350h-49l50 298q-58 -23 -103 -27v37q75 14 130 60h34zM435 0l6 36l166 148q38 35 50.5 53.5t12.5 46.5q0 45 -55 45q-52 0 -116 -46l-18 34q75 56 146 56q45 0 70.5 -21t25.5 -58q0 -60 -70 -123l-145 -128h179l-8 -43h-244z" unicode="½" horiz-adv-x="811" glyph-name="onehalf"/>
<glyph d="M157 -1l552 721h51l-551 -721h-52zM680 322l-172 -201h138zM626 0l13 79h-192l7 39l214 250h66l-41 -247h45l-7 -42h-46l-13 -79h-46zM68 393l30 32q43 -40 100 -40q95 0 95 76q0 56 -85 56q-3 0 -10 -0.5t-12 -0.5h-6l6 42q51 1 82.5 21.5t31.5 59.5q0 43 -61 43 q-45 0 -94 -28l-13 34q61 35 123 35q95 0 95 -74q0 -38 -25 -67t-66 -39q83 -7 83 -77q0 -57 -42.5 -90t-106.5 -33q-84 0 -125 50z" unicode="¾" horiz-adv-x="811" glyph-name="threequarters"/>
<glyph d="M304 330l-3 -24q-7 -42 -28 -78.5t-46.5 -60.5t-53.5 -50t-51 -48t-38 -53t-15 -67q0 -49 30 -77t89 -28q69 0 115 42t58 116h56q-17 -99 -79.5 -154.5t-163.5 -55.5q-75 0 -121 39t-46 107q0 42 16 78t40.5 61.5t54 52.5t56 50.5t47.5 56.5t27 69l4 24h52zM352 500 q0 -24 -15.5 -38.5t-38.5 -14.5q-16 0 -26.5 10t-10.5 27q0 23 15 37.5t37 14.5q18 0 28.5 -9.5t10.5 -26.5z" unicode="¿" horiz-adv-x="509" glyph-name="questiondown"/>
<glyph d="M352 720h61l141 -720h-63l-43 220h-297l-116 -220h-65zM176 274h263l-69 374zM338 886l149 -94l-25 -35l-154 83z" unicode="À" horiz-adv-x="625" glyph-name="Agrave"/>
<glyph d="M352 720h61l141 -720h-63l-43 220h-297l-116 -220h-65zM176 274h263l-69 374zM314 792l178 95l16 -47l-183 -83z" unicode="Á" horiz-adv-x="625" glyph-name="Aacute"/>
<glyph d="M352 720h61l141 -720h-63l-43 220h-297l-116 -220h-65zM176 274h263l-69 374zM383 868h43l67 -87l-23 -24l-72 67l-94 -68l-22 25z" unicode="Â" horiz-adv-x="625" glyph-name="Acircumflex"/>
<glyph d="M352 720h61l141 -720h-63l-43 220h-297l-116 -220h-65zM176 274h263l-69 374zM503 862l30 -14q-31 -64 -82 -64q-26 0 -66 17t-53 17t-21.5 -7t-25.5 -30l-32 15q38 66 88 66q21 0 57.5 -17.5t55.5 -17.5q15 0 25 7t24 28z" unicode="Ã" horiz-adv-x="625" glyph-name="Atilde"/>
<glyph d="M352 720h61l141 -720h-63l-43 220h-297l-116 -220h-65zM176 274h263l-69 374zM440 813q0 18 15.5 32.5t35.5 14.5q15 0 25 -10t10 -25q0 -19 -14.5 -32.5t-34.5 -13.5q-16 0 -26.5 10t-10.5 24zM265 813q0 18 14.5 32.5t35.5 14.5q15 0 25 -10t10 -25q0 -19 -14.5 -32.5 t-34.5 -13.5q-16 0 -26 9.5t-10 24.5z" unicode="Ä" horiz-adv-x="625" glyph-name="Adieresis"/>
<glyph d="M304 780q0 44 32.5 74t75.5 30q35 0 56 -20t21 -54q0 -35 -20.5 -61.5t-54.5 -36.5l140 -712h-63l-43 220h-297l-116 -220h-65l377 713q-43 16 -43 67zM176 274h263l-69 374zM345 784q0 -41 43 -41q27 0 44.5 18t17.5 45q0 41 -44 41q-27 0 -44 -18t-17 -45z" unicode="Å" horiz-adv-x="625" glyph-name="Aring"/>
<glyph d="M418 0l37 227h-255l-163 -227h-67l518 720h486l-9 -53h-376l-45 -269h343l-8 -53h-344l-50 -293h386l-9 -52h-444zM236 280h229l64 387h-16z" unicode="Æ" horiz-adv-x="967" glyph-name="AE"/>
<glyph d="M196 -187l16 34q36 -14 64 -14q55 0 55 45q0 18 -15.5 24.5t-49.5 6.5h-9l31 80q-114 6 -170 86t-56 205q0 119 42.5 221t129.5 167t202 65q102 0 159.5 -59t43.5 -156h-59q6 68 -30.5 114t-124.5 46q-133 0 -215.5 -111t-82.5 -278q0 -118 51 -182t142 -64q115 0 221 94 l28 -40q-107 -102 -245 -108l-18 -48q69 -2 69 -56q0 -45 -29 -67t-74 -22t-76 17z" unicode="Ç" horiz-adv-x="641" glyph-name="Ccedilla"/>
<glyph d="M37 0l120 720h436l-9 -53h-376l-45 -269h343l-9 -54h-344l-49 -292h385l-8 -52h-444zM322 886l149 -94l-25 -35l-154 83z" unicode="È" horiz-adv-x="586" glyph-name="Egrave"/>
<glyph d="M37 0l120 720h436l-9 -53h-376l-45 -269h343l-9 -54h-344l-49 -292h385l-8 -52h-444zM315 792l178 95l16 -47l-183 -83z" unicode="É" horiz-adv-x="586" glyph-name="Eacute"/>
<glyph d="M37 0l120 720h436l-9 -53h-376l-45 -269h343l-9 -54h-344l-49 -292h385l-8 -52h-444zM376 868h43l67 -87l-23 -24l-72 67l-94 -68l-22 25z" unicode="Ê" horiz-adv-x="586" glyph-name="Ecircumflex"/>
<glyph d="M37 0l120 720h436l-9 -53h-376l-45 -269h343l-9 -54h-344l-49 -292h385l-8 -52h-444zM436 813q0 18 15.5 32.5t35.5 14.5q15 0 25 -10t10 -25q0 -19 -14.5 -32.5t-34.5 -13.5q-16 0 -26.5 10t-10.5 24zM261 813q0 18 14.5 32.5t35.5 14.5q15 0 25 -10t10 -25 q0 -19 -14.5 -32.5t-34.5 -13.5q-16 0 -26 9.5t-10 24.5z" unicode="Ë" horiz-adv-x="586" glyph-name="Edieresis"/>
<glyph d="M37 0l120 720h59l-120 -720h-59zM134 886l149 -94l-25 -35l-154 83z" unicode="Ì" horiz-adv-x="233" glyph-name="Igrave"/>
<glyph d="M37 0l120 720h59l-120 -720h-59zM108 792l178 95l16 -47l-183 -83z" unicode="Í" horiz-adv-x="233" glyph-name="Iacute"/>
<glyph d="M37 0l120 720h59l-120 -720h-59zM191 868h43l67 -87l-23 -24l-72 67l-94 -68l-22 25z" unicode="Î" horiz-adv-x="233" glyph-name="Icircumflex"/>
<glyph d="M37 0l120 720h59l-120 -720h-59zM247 813q0 18 15.5 32.5t35.5 14.5q15 0 25 -10t10 -25q0 -19 -14.5 -32.5t-34.5 -13.5q-16 0 -26.5 10t-10.5 24zM72 813q0 18 14.5 32.5t35.5 14.5q15 0 25 -10t10 -25q0 -19 -14.5 -32.5t-34.5 -13.5q-16 0 -26 9.5t-10 24.5z" unicode="Ï" horiz-adv-x="233" glyph-name="Idieresis"/>
<glyph d="M19 340l9 51h86l55 329h189q296 0 296 -280q0 -224 -106 -332t-320 -108h-179l56 340h-86zM353 665h-134l-46 -274h200l-9 -51h-199l-48 -285h134q341 0 341 375q0 235 -239 235z" unicode="Ð" horiz-adv-x="704" glyph-name="Eth"/>
<glyph d="M37 0l120 720h57l297 -615l102 615h60l-121 -720h-55l-298 616l-103 -616h-59zM547 862l30 -14q-31 -64 -82 -64q-26 0 -66 17t-53 17t-21.5 -7t-25.5 -30l-32 15q38 66 88 66q21 0 57.5 -17.5t55.5 -17.5q15 0 25 7t24 28z" unicode="Ñ" horiz-adv-x="689" glyph-name="Ntilde"/>
<glyph d="M135 370q-8 -47 -8 -95q0 -116 54.5 -173.5t152.5 -57.5q113 0 191.5 81t104.5 245q7 42 7 83q0 109 -53.5 166.5t-148.5 57.5q-115 0 -195.5 -80t-104.5 -227zM70 370q27 179 130 271t247 92q116 0 185 -72t69 -208q0 -47 -6 -83q-16 -102 -51.5 -177.5t-86 -119.5 t-109 -64.5t-126.5 -20.5q-120 0 -190 70t-70 212q0 52 8 100zM408 886l149 -94l-25 -35l-154 83z" unicode="Ò" horiz-adv-x="747" glyph-name="Ograve"/>
<glyph d="M135 370q-8 -47 -8 -95q0 -116 54.5 -173.5t152.5 -57.5q113 0 191.5 81t104.5 245q7 42 7 83q0 109 -53.5 166.5t-148.5 57.5q-115 0 -195.5 -80t-104.5 -227zM70 370q27 179 130 271t247 92q116 0 185 -72t69 -208q0 -47 -6 -83q-16 -102 -51.5 -177.5t-86 -119.5 t-109 -64.5t-126.5 -20.5q-120 0 -190 70t-70 212q0 52 8 100zM370 792l178 95l16 -47l-183 -83z" unicode="Ó" horiz-adv-x="747" glyph-name="Oacute"/>
<glyph d="M135 370q-8 -47 -8 -95q0 -116 54.5 -173.5t152.5 -57.5q113 0 191.5 81t104.5 245q7 42 7 83q0 109 -53.5 166.5t-148.5 57.5q-115 0 -195.5 -80t-104.5 -227zM70 370q27 179 130 271t247 92q116 0 185 -72t69 -208q0 -47 -6 -83q-16 -102 -51.5 -177.5t-86 -119.5 t-109 -64.5t-126.5 -20.5q-120 0 -190 70t-70 212q0 52 8 100zM445 868h43l67 -87l-23 -24l-72 67l-94 -68l-22 25z" unicode="Ô" horiz-adv-x="747" glyph-name="Ocircumflex"/>
<glyph d="M135 370q-8 -47 -8 -95q0 -116 54.5 -173.5t152.5 -57.5q113 0 191.5 81t104.5 245q7 42 7 83q0 109 -53.5 166.5t-148.5 57.5q-115 0 -195.5 -80t-104.5 -227zM70 370q27 179 130 271t247 92q116 0 185 -72t69 -208q0 -47 -6 -83q-16 -102 -51.5 -177.5t-86 -119.5 t-109 -64.5t-126.5 -20.5q-120 0 -190 70t-70 212q0 52 8 100zM580 862l30 -14q-31 -64 -82 -64q-26 0 -66 17t-53 17t-21.5 -7t-25.5 -30l-32 15q38 66 88 66q21 0 57.5 -17.5t55.5 -17.5q15 0 25 7t24 28z" unicode="Õ" horiz-adv-x="747" glyph-name="Otilde"/>
<glyph d="M135 370q-8 -47 -8 -95q0 -116 54.5 -173.5t152.5 -57.5q113 0 191.5 81t104.5 245q7 42 7 83q0 109 -53.5 166.5t-148.5 57.5q-115 0 -195.5 -80t-104.5 -227zM70 370q27 179 130 271t247 92q116 0 185 -72t69 -208q0 -47 -6 -83q-16 -102 -51.5 -177.5t-86 -119.5 t-109 -64.5t-126.5 -20.5q-120 0 -190 70t-70 212q0 52 8 100zM509 813q0 18 15.5 32.5t35.5 14.5q15 0 25 -10t10 -25q0 -19 -14.5 -32.5t-34.5 -13.5q-16 0 -26.5 10t-10.5 24zM334 813q0 18 14.5 32.5t35.5 14.5q15 0 25 -10t10 -25q0 -19 -14.5 -32.5t-34.5 -13.5 q-16 0 -26 9.5t-10 24.5z" unicode="Ö" horiz-adv-x="747" glyph-name="Odieresis"/>
<glyph d="M502 458l-168 -167l168 -167l-34 -36l-168 168l-168 -168l-35 37l169 167l-169 167l34 36l168 -168l168 168z" unicode="×" horiz-adv-x="600" glyph-name="multiply"/>
<glyph d="M70 370q27 179 130 271t247 92q39 0 73 -9l24 53h56l-31 -70q132 -64 132 -254q0 -47 -6 -83q-16 -102 -51.5 -177.5t-86 -119.5t-109 -64.5t-126.5 -20.5q-37 0 -72 8l-27 -61h-55l34 75q-140 60 -140 260q0 52 8 100zM135 370q-8 -47 -8 -95q0 -158 100 -208l269 603 q-27 7 -61 7q-115 0 -195.5 -80t-104.5 -227zM637 453q0 144 -94 198l-269 -601q28 -6 60 -6q113 0 191.5 81t104.5 245q7 42 7 83z" unicode="Ø" horiz-adv-x="747" glyph-name="Oslash"/>
<glyph d="M152 720h59l-74 -445q-19 -118 21 -175.5t142 -57.5q104 0 158.5 58t74.5 175l74 445h60l-76 -455q-46 -277 -299 -277q-123 0 -181 69t-35 208zM355 886l149 -94l-25 -35l-154 83z" unicode="Ù" horiz-adv-x="679" glyph-name="Ugrave"/>
<glyph d="M152 720h59l-74 -445q-19 -118 21 -175.5t142 -57.5q104 0 158.5 58t74.5 175l74 445h60l-76 -455q-46 -277 -299 -277q-123 0 -181 69t-35 208zM348 792l178 95l16 -47l-183 -83z" unicode="Ú" horiz-adv-x="679" glyph-name="Uacute"/>
<glyph d="M152 720h59l-74 -445q-19 -118 21 -175.5t142 -57.5q104 0 158.5 58t74.5 175l74 445h60l-76 -455q-46 -277 -299 -277q-123 0 -181 69t-35 208zM408 868h43l67 -87l-23 -24l-72 67l-94 -68l-22 25z" unicode="Û" horiz-adv-x="679" glyph-name="Ucircumflex"/>
<glyph d="M152 720h59l-74 -445q-19 -118 21 -175.5t142 -57.5q104 0 158.5 58t74.5 175l74 445h60l-76 -455q-46 -277 -299 -277q-123 0 -181 69t-35 208zM469 813q0 18 15.5 32.5t35.5 14.5q15 0 25 -10t10 -25q0 -19 -14.5 -32.5t-34.5 -13.5q-16 0 -26.5 10t-10.5 24zM294 813 q0 18 14.5 32.5t35.5 14.5q15 0 25 -10t10 -25q0 -19 -14.5 -32.5t-34.5 -13.5q-16 0 -26 9.5t-10 24.5z" unicode="Ü" horiz-adv-x="679" glyph-name="Udieresis"/>
<glyph d="M195 0l52 310l-157 410h67l131 -349l248 349h67l-296 -410l-52 -310h-60zM289 792l178 95l16 -47l-183 -83z" unicode="Ý" horiz-adv-x="553" glyph-name="Yacute"/>
<glyph d="M28 0l120 720h60l-21 -123h155q93 0 148 -41t55 -131q0 -122 -78.5 -187t-207.5 -65h-143l-29 -173h-59zM329 542h-152l-53 -319h137q112 0 168 51t56 144q0 63 -38 93.5t-118 30.5z" unicode="Þ" horiz-adv-x="581" glyph-name="Thorn"/>
<glyph d="M39 0l79 475h-58l6 37l60 10l3 13q15 92 72 138.5t138 46.5q77 0 116 -36t39 -100q0 -79 -52 -135t-136 -70q164 -18 164 -161q0 -103 -58.5 -166.5t-155.5 -63.5q-72 0 -103 28l27 43q35 -22 81 -22q63 0 106 46t43 129q0 64 -42.5 96.5t-124.5 43.5l7 50 q80 8 131.5 51.5t51.5 121.5q0 95 -107 95q-120 0 -144 -142l-88 -528h-55z" unicode="ß" horiz-adv-x="528" glyph-name="germandbls"/>
<glyph d="M385 0l12 71q-80 -83 -189 -83q-87 0 -130 55.5t-43 152.5q0 147 72.5 243.5t193.5 96.5q98 0 155 -91l14 79h55l-87 -524h-53zM403 132l42 248q-21 39 -57 71t-89 32q-87 0 -145 -75t-58 -198q0 -170 126 -170q92 0 181 92zM283 746l114 -130l-31 -30l-124 122z" unicode="à" glyph-name="agrave"/>
<glyph d="M385 0l12 71q-80 -83 -189 -83q-87 0 -130 55.5t-43 152.5q0 147 72.5 243.5t193.5 96.5q98 0 155 -91l14 79h55l-87 -524h-53zM403 132l42 248q-21 39 -57 71t-89 32q-87 0 -145 -75t-58 -198q0 -170 126 -170q92 0 181 92zM246 616l158 130l27 -39l-165 -121z" unicode="á" glyph-name="aacute"/>
<glyph d="M385 0l12 71q-80 -83 -189 -83q-87 0 -130 55.5t-43 152.5q0 147 72.5 243.5t193.5 96.5q98 0 155 -91l14 79h55l-87 -524h-53zM403 132l42 248q-21 39 -57 71t-89 32q-87 0 -145 -75t-58 -198q0 -170 126 -170q92 0 181 92zM337 753h43l79 -149l-33 -21l-76 121 l-115 -120l-27 20z" unicode="â" glyph-name="acircumflex"/>
<glyph d="M385 0l12 71q-80 -83 -189 -83q-87 0 -130 55.5t-43 152.5q0 147 72.5 243.5t193.5 96.5q98 0 155 -91l14 79h55l-87 -524h-53zM403 132l42 248q-21 39 -57 71t-89 32q-87 0 -145 -75t-58 -198q0 -170 126 -170q92 0 181 92zM441 690l31 -14q-31 -64 -82 -64 q-26 0 -66 17t-53 17t-21.5 -7t-25.5 -30l-32 15q39 66 87 66q22 0 58.5 -17.5t55.5 -17.5q29 0 48 35z" unicode="ã" glyph-name="atilde"/>
<glyph d="M385 0l12 71q-80 -83 -189 -83q-87 0 -130 55.5t-43 152.5q0 147 72.5 243.5t193.5 96.5q98 0 155 -91l14 79h55l-87 -524h-53zM403 132l42 248q-21 39 -57 71t-89 32q-87 0 -145 -75t-58 -198q0 -170 126 -170q92 0 181 92zM400 662q0 18 14.5 32.5t35.5 14.5 q16 0 25.5 -10t9.5 -25q0 -19 -14.5 -32.5t-33.5 -13.5q-17 0 -27 9.5t-10 24.5zM224 662q0 18 15 32.5t35 14.5q16 0 25.5 -10t9.5 -25q0 -19 -14 -32.5t-34 -13.5q-17 0 -27 9.5t-10 24.5z" unicode="ä" glyph-name="adieresis"/>
<glyph d="M385 0l12 71q-80 -83 -189 -83q-87 0 -130 55.5t-43 152.5q0 147 72.5 243.5t193.5 96.5q98 0 155 -91l14 79h55l-87 -524h-53zM403 132l42 248q-21 39 -57 71t-89 32q-87 0 -145 -75t-58 -198q0 -170 126 -170q92 0 181 92zM299 652q0 -40 40 -40q27 0 43.5 17t16.5 43 q0 19 -11 29.5t-31 10.5q-25 0 -41.5 -17t-16.5 -43zM258 647q0 43 31 72.5t74 29.5q34 0 55 -20t21 -53q0 -44 -30.5 -71.5t-74.5 -27.5q-35 0 -55.5 18.5t-20.5 51.5z" unicode="å" glyph-name="aring"/>
<glyph d="M788 99l26 -39q-91 -72 -209 -72q-130 0 -170 109q-107 -109 -227 -109q-87 0 -130 55.5t-43 152.5q0 147 72.5 243.5t193.5 96.5q98 0 155 -91l14 79h55l-20 -103q88 115 207 115q69 0 108.5 -32.5t39.5 -93.5q0 -43 -15.5 -74t-55 -58t-116.5 -42t-192 -18 q-15 -178 138 -178q90 0 169 59zM403 132l42 248q-21 39 -57 71t-89 32q-87 0 -145 -75t-58 -198q0 -73 32 -121t103 -48q84 0 172 91zM489 268q92 2 155.5 13t97 30t47 41t13.5 51q0 35 -23 59t-73 24q-39 0 -73.5 -15.5t-59 -39.5t-43.5 -54t-28.5 -57.5t-12.5 -51.5z" unicode="æ" horiz-adv-x="901" glyph-name="ae"/>
<glyph d="M110 -186l17 34q34 -14 63 -14q57 0 57 45q0 31 -67 31h-9l31 79q-78 7 -121.5 66t-43.5 153q0 151 81.5 239.5t197.5 88.5q86 0 128 -49t33 -136h-53q3 66 -28 99.5t-88 33.5q-93 0 -151.5 -74t-58.5 -190q0 -78 36 -129t105 -51q46 0 81.5 13t84.5 47l18 -40 q-85 -67 -186 -72l-17 -46q69 -2 69 -56q0 -45 -29 -67t-74 -22q-42 0 -76 17z" unicode="ç" horiz-adv-x="508" glyph-name="ccedilla"/>
<glyph d="M406 99l23 -39q-91 -72 -206 -72q-91 0 -138.5 51.5t-47.5 146.5q0 156 82.5 253t204.5 97q72 0 112 -34t40 -93q0 -44 -16.5 -75.5t-57 -58t-116.5 -40.5t-187 -17q-1 -10 -1 -30q0 -148 139 -148q90 0 169 59zM105 268q121 2 191.5 20t95.5 45t25 70q0 39 -24.5 61 t-74.5 22q-49 0 -90 -23.5t-66 -59t-39 -70.5t-18 -65zM287 746l114 -130l-31 -30l-124 122z" unicode="è" horiz-adv-x="506" glyph-name="egrave"/>
<glyph d="M406 99l23 -39q-91 -72 -206 -72q-91 0 -138.5 51.5t-47.5 146.5q0 156 82.5 253t204.5 97q72 0 112 -34t40 -93q0 -44 -16.5 -75.5t-57 -58t-116.5 -40.5t-187 -17q-1 -10 -1 -30q0 -148 139 -148q90 0 169 59zM105 268q121 2 191.5 20t95.5 45t25 70q0 39 -24.5 61 t-74.5 22q-49 0 -90 -23.5t-66 -59t-39 -70.5t-18 -65zM253 616l158 130l27 -39l-165 -121z" unicode="é" horiz-adv-x="506" glyph-name="eacute"/>
<glyph d="M406 99l23 -39q-91 -72 -206 -72q-91 0 -138.5 51.5t-47.5 146.5q0 156 82.5 253t204.5 97q72 0 112 -34t40 -93q0 -44 -16.5 -75.5t-57 -58t-116.5 -40.5t-187 -17q-1 -10 -1 -30q0 -148 139 -148q90 0 169 59zM105 268q121 2 191.5 20t95.5 45t25 70q0 39 -24.5 61 t-74.5 22q-49 0 -90 -23.5t-66 -59t-39 -70.5t-18 -65zM327 753h43l79 -149l-33 -21l-76 121l-115 -120l-27 20z" unicode="ê" horiz-adv-x="506" glyph-name="ecircumflex"/>
<glyph d="M406 99l23 -39q-91 -72 -206 -72q-91 0 -138.5 51.5t-47.5 146.5q0 156 82.5 253t204.5 97q72 0 112 -34t40 -93q0 -44 -16.5 -75.5t-57 -58t-116.5 -40.5t-187 -17q-1 -10 -1 -30q0 -148 139 -148q90 0 169 59zM105 268q121 2 191.5 20t95.5 45t25 70q0 39 -24.5 61 t-74.5 22q-49 0 -90 -23.5t-66 -59t-39 -70.5t-18 -65zM385 662q0 18 14.5 32.5t35.5 14.5q16 0 25.5 -10t9.5 -25q0 -19 -14.5 -32.5t-33.5 -13.5q-17 0 -27 9.5t-10 24.5zM209 662q0 18 15 32.5t35 14.5q16 0 25.5 -10t9.5 -25q0 -19 -14 -32.5t-34 -13.5q-17 0 -27 9.5 t-10 24.5z" unicode="ë" horiz-adv-x="506" glyph-name="edieresis"/>
<glyph d="M121 746l114 -130l-31 -30l-124 122zM173 523l-88 -523h-56l88 523h56z" unicode="ì" horiz-adv-x="214" glyph-name="igrave"/>
<glyph d="M81 616l158 130l27 -39l-165 -121zM173 523l-88 -523h-56l88 523h56z" unicode="í" horiz-adv-x="214" glyph-name="iacute"/>
<glyph d="M173 523l-88 -523h-56l88 523h56zM158 753h43l79 -149l-33 -21l-76 121l-115 -120l-27 20z" unicode="î" horiz-adv-x="214" glyph-name="icircumflex"/>
<glyph d="M216 662q0 18 14.5 32.5t35.5 14.5q16 0 25.5 -10t9.5 -25q0 -19 -14.5 -32.5t-33.5 -13.5q-17 0 -27 9.5t-10 24.5zM40 662q0 18 15 32.5t35 14.5q16 0 25.5 -10t9.5 -25q0 -19 -14 -32.5t-34 -13.5q-17 0 -27 9.5t-10 24.5zM173 523l-88 -523h-56l88 523h56z" unicode="ï" horiz-adv-x="214" glyph-name="idieresis"/>
<glyph d="M263 519l-19 38l92 56q-50 44 -127 64l21 44q96 -22 155 -78l104 63l19 -40l-94 -56q60 -82 60 -228q0 -174 -73 -284t-202 -110q-82 0 -127 48.5t-45 130.5q0 108 65 188t172 80q102 0 157 -79q8 141 -55 224zM206 40q75 0 129 63.5t75 192.5q-15 19 -25 30t-28.5 27 t-41.5 24t-49 8q-72 0 -125.5 -55t-53.5 -156q0 -66 33 -100t86 -34z" unicode="ð" horiz-adv-x="523" glyph-name="eth"/>
<glyph d="M111 524h53l-14 -81q93 93 190 93q87 0 114 -52.5t11 -147.5l-56 -336h-56l54 329q14 79 -6.5 116.5t-81.5 37.5q-78 0 -176 -98l-64 -385h-56zM438 690l31 -14q-31 -64 -82 -64q-26 0 -66 17t-53 17t-21.5 -7t-25.5 -30l-32 15q39 66 87 66q22 0 58.5 -17.5t55.5 -17.5 q29 0 48 35z" unicode="ñ" horiz-adv-x="531" glyph-name="ntilde"/>
<glyph d="M82 261q-5 -29 -5 -63q0 -78 35.5 -117.5t100.5 -39.5q75 0 130.5 55t73.5 165q5 27 5 62q0 79 -37.5 119.5t-100.5 40.5q-74 0 -129.5 -57t-72.5 -165zM20 260q19 130 93.5 203t179.5 73q90 0 140 -54.5t50 -154.5q0 -37 -5 -66q-22 -137 -94 -205t-180 -68 q-90 0 -139.5 54t-49.5 151q0 37 5 67zM302 746l114 -130l-31 -30l-124 122z" unicode="ò" horiz-adv-x="558" glyph-name="ograve"/>
<glyph d="M82 261q-5 -29 -5 -63q0 -78 35.5 -117.5t100.5 -39.5q75 0 130.5 55t73.5 165q5 27 5 62q0 79 -37.5 119.5t-100.5 40.5q-74 0 -129.5 -57t-72.5 -165zM20 260q19 130 93.5 203t179.5 73q90 0 140 -54.5t50 -154.5q0 -37 -5 -66q-22 -137 -94 -205t-180 -68 q-90 0 -139.5 54t-49.5 151q0 37 5 67zM254 616l158 130l27 -39l-165 -121z" unicode="ó" horiz-adv-x="558" glyph-name="oacute"/>
<glyph d="M82 261q-5 -29 -5 -63q0 -78 35.5 -117.5t100.5 -39.5q75 0 130.5 55t73.5 165q5 27 5 62q0 79 -37.5 119.5t-100.5 40.5q-74 0 -129.5 -57t-72.5 -165zM20 260q19 130 93.5 203t179.5 73q90 0 140 -54.5t50 -154.5q0 -37 -5 -66q-22 -137 -94 -205t-180 -68 q-90 0 -139.5 54t-49.5 151q0 37 5 67zM329 753h43l79 -149l-33 -21l-76 121l-115 -120l-27 20z" unicode="ô" horiz-adv-x="558" glyph-name="ocircumflex"/>
<glyph d="M82 261q-5 -29 -5 -63q0 -78 35.5 -117.5t100.5 -39.5q75 0 130.5 55t73.5 165q5 27 5 62q0 79 -37.5 119.5t-100.5 40.5q-74 0 -129.5 -57t-72.5 -165zM20 260q19 130 93.5 203t179.5 73q90 0 140 -54.5t50 -154.5q0 -37 -5 -66q-22 -137 -94 -205t-180 -68 q-90 0 -139.5 54t-49.5 151q0 37 5 67zM442 690l31 -14q-31 -64 -82 -64q-26 0 -66 17t-53 17t-21.5 -7t-25.5 -30l-32 15q39 66 87 66q22 0 58.5 -17.5t55.5 -17.5q29 0 48 35z" unicode="õ" horiz-adv-x="558" glyph-name="otilde"/>
<glyph d="M82 261q-5 -29 -5 -63q0 -78 35.5 -117.5t100.5 -39.5q75 0 130.5 55t73.5 165q5 27 5 62q0 79 -37.5 119.5t-100.5 40.5q-74 0 -129.5 -57t-72.5 -165zM20 260q19 130 93.5 203t179.5 73q90 0 140 -54.5t50 -154.5q0 -37 -5 -66q-22 -137 -94 -205t-180 -68 q-90 0 -139.5 54t-49.5 151q0 37 5 67zM387 662q0 18 14.5 32.5t35.5 14.5q16 0 25.5 -10t9.5 -25q0 -19 -14.5 -32.5t-33.5 -13.5q-17 0 -27 9.5t-10 24.5zM211 662q0 18 15 32.5t35 14.5q16 0 25.5 -10t9.5 -25q0 -19 -14 -32.5t-34 -13.5q-17 0 -27 9.5t-10 24.5z" unicode="ö" horiz-adv-x="558" glyph-name="odieresis"/>
<glyph d="M299 513q17 0 29 -12.5t12 -30.5q0 -17 -12 -29t-29 -12q-16 0 -28.5 12.5t-12.5 28.5q0 17 12.5 30t28.5 13zM40 275v47h520v-47h-520zM299 172q17 0 29 -12.5t12 -29.5t-12 -29.5t-29 -12.5q-16 0 -28.5 13t-12.5 29q0 17 12.5 29.5t28.5 12.5z" unicode="÷" horiz-adv-x="600" glyph-name="divide"/>
<glyph d="M37 260q19 130 93.5 203t179.5 73q26 0 58 -7l29 63h56l-39 -82q86 -52 86 -183q0 -37 -5 -66q-22 -137 -94 -205t-180 -68q-24 0 -49 5l-30 -65h-54l37 81q-93 48 -93 184q0 37 5 67zM99 261q-5 -29 -5 -63q0 -99 56 -136l194 415q-21 6 -43 6q-74 0 -129.5 -57 t-72.5 -165zM439 323q0 91 -51 132l-192 -411q15 -3 34 -3q75 0 130.5 55t73.5 165q5 27 5 62z" unicode="ø" horiz-adv-x="558" glyph-name="oslash"/>
<glyph d="M403 0h-53l13 80q-88 -92 -189 -92q-61 0 -94 26.5t-36.5 68t3.5 93.5l59 348h57l-57 -337q-12 -74 7 -110t80 -36q82 0 177 97l65 386h56zM286 746l114 -130l-31 -30l-124 122z" unicode="ù" horiz-adv-x="526" glyph-name="ugrave"/>
<glyph d="M403 0h-53l13 80q-88 -92 -189 -92q-61 0 -94 26.5t-36.5 68t3.5 93.5l59 348h57l-57 -337q-12 -74 7 -110t80 -36q82 0 177 97l65 386h56zM250 616l158 130l27 -39l-165 -121z" unicode="ú" horiz-adv-x="526" glyph-name="uacute"/>
<glyph d="M403 0h-53l13 80q-88 -92 -189 -92q-61 0 -94 26.5t-36.5 68t3.5 93.5l59 348h57l-57 -337q-12 -74 7 -110t80 -36q82 0 177 97l65 386h56zM319 753h43l79 -149l-33 -21l-76 121l-115 -120l-27 20z" unicode="û" horiz-adv-x="526" glyph-name="ucircumflex"/>
<glyph d="M403 0h-53l13 80q-88 -92 -189 -92q-61 0 -94 26.5t-36.5 68t3.5 93.5l59 348h57l-57 -337q-12 -74 7 -110t80 -36q82 0 177 97l65 386h56zM367 662q0 18 14.5 32.5t35.5 14.5q16 0 25.5 -10t9.5 -25q0 -19 -14.5 -32.5t-33.5 -13.5q-17 0 -27 9.5t-10 24.5zM191 662 q0 18 15 32.5t35 14.5q16 0 25.5 -10t9.5 -25q0 -19 -14 -32.5t-34 -13.5q-17 0 -27 9.5t-10 24.5z" unicode="ü" horiz-adv-x="526" glyph-name="udieresis"/>
<glyph d="M400 524h61l-281 -558q-49 -97 -81 -132.5t-90 -35.5q-47 0 -83 11l17 48q25 -9 66 -9q32 0 54 21t52 83l23 49l-97 523h61l78 -447zM205 616l158 130l27 -39l-165 -121z" unicode="ý" horiz-adv-x="453" glyph-name="yacute"/>
<glyph d="M143 382l-42 -253q50 -90 144 -90t150.5 75.5t56.5 204.5q0 80 -32 123t-94 43q-92 0 -183 -103zM46 -200h-56l153 920h56l-47 -281q90 97 196 97q83 0 124 -55t41 -151q0 -148 -70 -245t-198 -97q-61 0 -100 26.5t-54 55.5z" unicode="þ" horiz-adv-x="565" glyph-name="thorn"/>
</font>
</defs>
</svg>
