<?xml version="1.0" encoding="UTF-8" standalone="no"?>
<!DOCTYPE svg  PUBLIC '-//W3C//DTD SVG 1.1//EN'  'http://www.w3.org/Graphics/SVG/1.1/DTD/svg11.dtd'>
<svg xmlns="http://www.w3.org/2000/svg" version="1.1">
<defs>
<font id="LFTEtica-ExtraBold" horiz-adv-x="564">
<font-face panose-1="2 0 5 3 4 0 0 2 0 4" underline-thickness="50" bbox="-62 -242 1034 963" units-per-em="1000" unicode-range="U+0020-00FE" x-height="531" descent="-270" font-family="a" ascent="730" underline-position="-150" cap-height="720" font-weight="800"/>
<missing-glyph/>
<glyph horiz-adv-x="175" unicode=" " glyph-name="space"/>
<glyph horiz-adv-x="326" d="M76 233l-18 255v232h211v-232l-19 -255h-174zM55 90q0 46 29.5 74t79.5 28q49 0 78 -28t29 -74q0 -45 -29 -73.5t-78 -28.5q-51 0 -80 28.5t-29 73.5z" unicode="!" glyph-name="exclam"/>
<glyph horiz-adv-x="403" d="M353 720v-298h-126v298h126zM175 720v-298h-125v298h125z" unicode='&quot;' glyph-name="quotedbl"/>
<glyph horiz-adv-x="704" d="M312 368l-30 -92h100l31 92h-101zM677 368h-135l-32 -92h103v-124h-143l-56 -151l-119 29l45 122h-98l-58 -151l-119 29l45 122h-81v124h124l32 92h-92v125h133l59 160l120 -24l-48 -136h98l60 160l120 -24l-49 -136h91v-125z" unicode="#" glyph-name="numbersign"/>
<glyph horiz-adv-x="558" d="M213 -88v91q-57 8 -113.5 38.5t-95.5 69.5l94 119q109 -78 183 -78q53 0 53 33q0 21 -23.5 34t-102.5 37q-181 55 -181 204q0 88 54 141t133 66v82h154v-84q91 -19 162 -79l-84 -119q-92 57 -153 57q-64 0 -64 -37q0 -22 22 -33.5t107 -40.5q93 -30 137 -76.5t44 -123.5 q0 -82 -47.5 -136.5t-123.5 -70.5v-94h-155z" unicode="$" glyph-name="dollar"/>
<glyph horiz-adv-x="1063" d="M754 185q0 -31 17.5 -49.5t49.5 -18.5q31 0 49 20t18 50t-17.5 50t-49.5 20t-49.5 -20.5t-17.5 -51.5zM606 187q0 94 61.5 148.5t153.5 54.5q91 0 152 -53t61 -146t-61 -148t-152 -55q-94 0 -154.5 51.5t-60.5 147.5zM178 515q0 -31 17.5 -49.5t49.5 -18.5q31 0 49 20 t18 50t-17.5 50t-49.5 20t-49.5 -20.5t-17.5 -51.5zM30 517q0 94 61.5 148.5t153.5 54.5q91 0 152 -53t61 -146t-61 -148t-152 -55q-94 0 -154.5 51.5t-60.5 147.5zM239 0l439 720h156l-442 -720h-153z" unicode="%" glyph-name="percent"/>
<glyph horiz-adv-x="747" d="M591 -12l-74 78q-53 -43 -104.5 -60.5t-121.5 -17.5q-113 0 -180 56.5t-67 153.5q0 77 38.5 129.5t104.5 95.5q-57 59 -57 128q0 80 57.5 131t164.5 51q94 0 152.5 -41t58.5 -122q0 -29 -9 -54t-27 -45t-30.5 -31t-33.5 -27l33 -41l91 88l113 -114l-94 -91l131 -143z M312 146q54 0 88 36l-114 128q-53 -37 -53 -92q0 -27 19.5 -49.5t59.5 -22.5zM316 565q0 -27 37 -62q42 32 42 61q0 39 -39 39q-40 0 -40 -38z" unicode="&amp;" glyph-name="ampersand"/>
<glyph horiz-adv-x="225" d="M175 720v-298h-125v298h125z" unicode="&apos;" glyph-name="quotesingle"/>
<glyph horiz-adv-x="390" d="M213 741l146 -71q-64 -99 -92 -180t-28 -181q0 -91 30.5 -170.5t104.5 -189.5l-133 -88q-91 83 -146 198.5t-55 239.5q0 246 173 442z" unicode="(" glyph-name="parenleft"/>
<glyph horiz-adv-x="390" d="M31 670l146 71q173 -196 173 -442q0 -124 -55 -239.5t-146 -198.5l-133 88q74 110 104.5 189.5t30.5 170.5q0 100 -28 181t-92 180z" unicode=")" glyph-name="parenright"/>
<glyph horiz-adv-x="476" d="M337 346l-98 91l-95 -91l-73 58l63 93l-105 52l29 82l111 -22l22 112h86l21 -112l119 21l30 -80l-99 -50l61 -96z" unicode="*" glyph-name="asterisk"/>
<glyph horiz-adv-x="600" d="M365 563v-200h196v-123h-196v-200h-129v200h-198v123h198v200h129z" unicode="+" glyph-name="plus"/>
<glyph horiz-adv-x="269" d="M19 91q0 43 31.5 71.5t79.5 28.5q59 0 89 -37.5t30 -91.5q0 -171 -182 -237l-40 82q80 34 87 100q-39 -5 -67 19.5t-28 64.5z" unicode="," glyph-name="comma"/>
<glyph horiz-adv-x="320" d="M25 202v154h270v-154h-270z" unicode="-" glyph-name="hyphen"/>
<glyph horiz-adv-x="256" d="M20 90q0 46 29.5 74t79.5 28q49 0 78 -28t29 -74q0 -45 -29 -73.5t-78 -28.5q-51 0 -80 28.5t-29 73.5z" unicode="." glyph-name="period"/>
<glyph horiz-adv-x="441" d="M11 -92l235 831h165l-236 -831h-164z" unicode="/" glyph-name="slash"/>
<glyph horiz-adv-x="626" d="M234 341q0 -89 18 -134t61 -45q80 0 80 183q0 87 -17.5 132t-61.5 45t-62 -45.5t-18 -135.5zM31 341q0 174 74.5 267t212.5 93q134 0 205.5 -90.5t71.5 -257.5q0 -182 -73 -273.5t-213 -91.5q-278 0 -278 353z" unicode="0" glyph-name="zero"/>
<glyph horiz-adv-x="521" d="M75 0v155h125v293q-59 -25 -141 -23l-25 135q57 16 113.5 51t93.5 79h160v-535h115v-155h-441z" unicode="1" glyph-name="one"/>
<glyph horiz-adv-x="562" d="M43 0v121l197 232q31 37 41.5 50.5t20.5 33t10 36.5q0 52 -56 52q-57 0 -163 -72l-76 132q136 116 281 116q104 0 168 -51.5t64 -149.5q0 -46 -16 -87t-34 -64t-59 -70l-100 -114h215v-165h-493z" unicode="2" glyph-name="two"/>
<glyph horiz-adv-x="556" d="M5 83l69 130q105 -57 166 -57q39 0 63.5 16t24.5 47t-22 43t-69 12q-35 0 -69 -6l-5 152q139 8 139 68q0 26 -15 37t-46 11q-61 0 -136 -43l-72 126q127 82 251 82q100 0 158 -46t58 -125q0 -121 -136 -167q74 -8 117.5 -50.5t43.5 -110.5q0 -105 -75 -159.5t-193 -54.5 q-147 0 -252 95z" unicode="3" glyph-name="three"/>
<glyph horiz-adv-x="633" d="M204 291h141v219zM345 0v133h-315v154l262 403h256v-399h63v-158h-63v-133h-203z" unicode="4" glyph-name="four"/>
<glyph horiz-adv-x="557" d="M32 249l35 441h417l-11 -177h-259l-9 -92q49 32 118 32q98 0 151 -56t53 -156q0 -122 -76.5 -187.5t-191.5 -65.5q-65 0 -134.5 23t-114.5 60l60 135q91 -47 174 -47q38 0 62.5 20.5t24.5 62.5q0 73 -65 73q-37 0 -75 -26l-4 -40h-155z" unicode="5" glyph-name="five"/>
<glyph horiz-adv-x="591" d="M35 328q0 177 74 275t212 98q115 0 208 -60l-53 -132q-56 28 -126 28q-63 0 -93.5 -33t-34.5 -109q65 51 149 51q192 0 192 -208q0 -127 -74 -188.5t-186 -61.5q-268 0 -268 340zM308 152q67 0 67 77q0 71 -67 71q-39 0 -77 -26q2 -57 18.5 -89.5t58.5 -32.5z" unicode="6" glyph-name="six"/>
<glyph horiz-adv-x="514" d="M507 560l-230 -560h-229v18l223 495h-252v177h488v-130z" unicode="7" glyph-name="seven"/>
<glyph horiz-adv-x="588" d="M206 200q0 -28 19.5 -44.5t56.5 -16.5q32 0 49.5 15t17.5 39q0 20 -16.5 36.5t-33 25t-49.5 22.5q-44 -34 -44 -77zM254 518q0 -21 18 -36.5t56 -33.5q30 38 30 69q0 20 -14 33t-39 13q-51 0 -51 -45zM29 179q0 113 109 172q-90 61 -90 152q0 90 68 144t183 54 q113 0 175.5 -47t62.5 -128q0 -97 -84 -153q54 -32 82 -70.5t28 -101.5q0 -103 -75 -158t-201 -55q-124 0 -191 48.5t-67 142.5z" unicode="8" glyph-name="eight"/>
<glyph horiz-adv-x="589" d="M553 361q0 -176 -72 -274.5t-202 -98.5q-128 0 -225 58l53 129q69 -32 137 -32q55 0 81.5 34t35.5 108q-62 -49 -142 -49q-90 0 -142 51t-52 157q0 130 72.5 193.5t187.5 63.5q138 0 203 -89.5t65 -250.5zM280 537q-67 0 -67 -82q0 -73 67 -73q20 0 43 11t34 22 q-2 57 -18.5 89.5t-58.5 32.5z" unicode="9" glyph-name="nine"/>
<glyph horiz-adv-x="256" d="M20 90q0 46 29.5 74t79.5 28q49 0 78 -28t29 -74q0 -45 -29 -73.5t-78 -28.5q-51 0 -80 28.5t-29 73.5zM20 424q0 46 29.5 74t79.5 28q49 0 78 -28t29 -74q0 -45 -29 -73.5t-78 -28.5q-51 0 -80 28.5t-29 73.5z" unicode=":" glyph-name="colon"/>
<glyph horiz-adv-x="269" d="M19 91q0 43 31.5 71.5t79.5 28.5q59 0 89 -37.5t30 -91.5q0 -171 -182 -237l-40 82q80 34 87 100q-39 -5 -67 19.5t-28 64.5zM21 424q0 46 29.5 74t79.5 28q49 0 78 -28t29 -74q0 -45 -29 -73.5t-78 -28.5q-51 0 -80 28.5t-29 73.5z" unicode=";" glyph-name="semicolon"/>
<glyph horiz-adv-x="600" d="M527 37l-500 214v96l513 222l54 -130l-327 -140l314 -131z" unicode="&lt;" glyph-name="less"/>
<glyph horiz-adv-x="600" d="M560 243v-125h-521v125h521zM560 439v-125h-521v125h521z" unicode="=" glyph-name="equal"/>
<glyph horiz-adv-x="600" d="M576 251l-515 -221l-54 131l329 138l-327 140l54 130l513 -222v-96z" unicode="&gt;" glyph-name="greater"/>
<glyph horiz-adv-x="580" d="M198 233v32q0 39 14.5 72.5t35 56.5t40.5 43t34.5 39t14.5 36q0 21 -14.5 33.5t-38.5 12.5q-67 0 -67 -70h-192q0 129 79 186.5t208 57.5q103 0 172 -49t69 -146q0 -47 -15.5 -84.5t-37.5 -61.5t-44.5 -45t-38 -45t-15.5 -51v-17h-204zM192 90q0 46 29.5 74t79.5 28 q49 0 78 -28t29 -74q0 -45 -29 -73.5t-78 -28.5q-51 0 -80 28.5t-29 73.5z" unicode="?" glyph-name="question"/>
<glyph horiz-adv-x="972" d="M529 185l39 152q-18 9 -48 9q-64 0 -103.5 -55t-39.5 -123q0 -35 15 -56t44 -21q32 0 57 26.5t36 67.5zM694 391l-54 -218q-10 -42 -10 -47q0 -26 32 -26q61 0 101 69.5t40 136.5q0 116 -78.5 180t-198.5 64q-154 0 -252.5 -98t-98.5 -257q0 -141 83 -224.5t233 -83.5 q171 0 290 91l51 -78q-139 -109 -336 -109q-200 0 -314 108t-114 297q0 200 132 325t329 125q168 0 275 -91.5t107 -239.5q0 -144 -86.5 -230.5t-192.5 -86.5q-37 0 -64 19t-37 51q-51 -68 -131 -68q-62 0 -97 42t-35 119q0 120 74 197.5t186 77.5q84 0 166 -45z" unicode="@" glyph-name="at"/>
<glyph horiz-adv-x="733" d="M245 720h247l245 -720h-238l-35 113h-206l-36 -113h-226zM296 268h130l-61 241z" unicode="A" glyph-name="A"/>
<glyph horiz-adv-x="676" d="M45 0v720h317q117 0 190 -47t73 -142q0 -58 -30.5 -100t-87.5 -54v-2q71 -12 107.5 -59.5t36.5 -107.5q0 -116 -77.5 -162t-223.5 -46h-305zM354 295h-92v-128h95q34 0 53.5 18.5t19.5 47.5t-21 45.5t-55 16.5zM344 554h-82v-109h79q75 0 75 57q0 52 -72 52z" unicode="B" glyph-name="B"/>
<glyph horiz-adv-x="694" d="M581 254l89 -147q-136 -119 -307 -119q-161 0 -248 100.5t-87 267.5q0 171 91.5 274t261.5 103q80 0 144 -29.5t106 -97t45 -165.5h-211q-4 51 -26 76t-67 25q-117 0 -117 -185q0 -173 135 -173q91 0 191 70z" unicode="C" glyph-name="C"/>
<glyph horiz-adv-x="720" d="M328 535h-66v-350h66q137 0 137 172q0 178 -137 178zM45 720h289q175 0 266.5 -99.5t91.5 -263.5q0 -182 -95.5 -269.5t-297.5 -87.5h-31h-223v720z" unicode="D" glyph-name="D"/>
<glyph horiz-adv-x="595" d="M45 0v720h516v-189h-299v-91h272v-165h-272v-90h302v-185h-519z" unicode="E" glyph-name="E"/>
<glyph horiz-adv-x="575" d="M45 0v720h512v-189h-295v-112h258v-175h-258v-244h-217z" unicode="F" glyph-name="F"/>
<glyph horiz-adv-x="711" d="M383 248v145h292v-294q-111 -111 -305 -111q-91 0 -159 30t-107 82.5t-57.5 116t-18.5 138.5q0 173 87 275.5t266 102.5q141 0 212.5 -71.5t81.5 -195.5h-214q-9 76 -87 76q-56 0 -87.5 -45t-31.5 -137q0 -88 30 -139.5t93 -51.5q68 0 106 34v45h-101z" unicode="G" glyph-name="G"/>
<glyph horiz-adv-x="720" d="M45 0v720h217v-270h196v270h217v-720h-217v255h-196v-255h-217z" unicode="H" glyph-name="H"/>
<glyph horiz-adv-x="307" d="M45 0v720h217v-720h-217z" unicode="I" glyph-name="I"/>
<glyph horiz-adv-x="430" d="M390 720v-502q0 -230 -207 -230q-95 0 -168 20l10 171q33 -9 80 -9q40 0 54 16.5t14 60.5v473h217z" unicode="J" glyph-name="J"/>
<glyph horiz-adv-x="704" d="M45 0v720h217v-273h50l140 273h241l-195 -359l209 -361h-246l-148 271h-51v-271h-217z" unicode="K" glyph-name="K"/>
<glyph horiz-adv-x="568" d="M45 720h217v-535h285v-185h-502v720z" unicode="L" glyph-name="L"/>
<glyph horiz-adv-x="888" d="M867 0h-200l-31 367l-111 -367h-154l-116 366l-30 -366h-204l68 720h230l128 -457h5l127 457h226z" unicode="M" glyph-name="M"/>
<glyph horiz-adv-x="727" d="M45 0v720h186l238 -370v370h213v-720h-186l-238 350v-350h-213z" unicode="N" glyph-name="N"/>
<glyph horiz-adv-x="791" d="M255 360q0 -78 35.5 -127t105.5 -49t105 49t35 127q0 76 -35.5 126.5t-104.5 50.5q-70 0 -105.5 -50.5t-35.5 -126.5zM28 360q0 168 98 270t270 102q171 0 269.5 -102t98.5 -270q0 -171 -98.5 -271.5t-272.5 -100.5t-269.5 100t-95.5 272z" unicode="O" glyph-name="O"/>
<glyph horiz-adv-x="647" d="M332 530h-70v-156h68q38 0 58.5 21t20.5 56t-19.5 57t-57.5 22zM45 0v720h305q127 0 200 -67t73 -186q0 -124 -71.5 -193t-208.5 -69h-81v-205h-217z" unicode="P" glyph-name="P"/>
<glyph horiz-adv-x="791" d="M709 -102l-277 92q-26 -2 -39 -2q-174 0 -269.5 100t-95.5 272q0 168 98 270t270 102q171 0 269.5 -102t98.5 -270q0 -154 -112 -254v-6l119 -34zM255 360q0 -78 35.5 -127t105.5 -49t105 49t35 127q0 76 -35.5 126.5t-104.5 50.5q-70 0 -105.5 -50.5t-35.5 -126.5z" unicode="Q" glyph-name="Q"/>
<glyph horiz-adv-x="684" d="M45 720h303q137 0 210 -65.5t73 -177.5q0 -138 -101 -200l143 -277h-240l-102 223h-69v-223h-217v720zM336 530h-74v-151h71q39 0 60 20t21 56q0 75 -78 75z" unicode="R" glyph-name="R"/>
<glyph horiz-adv-x="630" d="M5 110l104 142q48 -33 108 -58.5t101 -25.5q54 0 54 34q0 21 -21.5 32t-79.5 28q-6 2 -9.5 3t-8.5 2.5t-10 2.5q-203 61 -203 218q0 123 79 184t203 61q168 0 283 -117l-101 -126q-90 67 -171 67q-52 0 -52 -31q0 -18 21 -29.5t80 -30.5q50 -16 81.5 -30t67 -40t53 -66.5 t17.5 -96.5q0 -108 -76.5 -176.5t-204.5 -68.5q-89 0 -172.5 34t-142.5 88z" unicode="S" glyph-name="S"/>
<glyph horiz-adv-x="640" d="M212 0v531h-200v189h616v-189h-200v-531h-216z" unicode="T" glyph-name="T"/>
<glyph horiz-adv-x="701" d="M40 720h217v-439q0 -102 93 -102q95 0 95 102v439h216v-440q0 -145 -81.5 -218.5t-229.5 -73.5q-152 0 -231 73t-79 219v440z" unicode="U" glyph-name="U"/>
<glyph horiz-adv-x="697" d="M218 0l-223 720h232l123 -472l125 472h227l-224 -720h-260z" unicode="V" glyph-name="V"/>
<glyph horiz-adv-x="931" d="M147 0l-151 720h212l76 -433l87 433h192l83 -435l76 435h213l-151 -720h-229l-88 396h-6l-87 -396h-227z" unicode="W" glyph-name="W"/>
<glyph horiz-adv-x="706" d="M-10 0l229 361l-212 359h235l110 -204l108 204h249l-231 -370l221 -350h-251l-107 185l-108 -185h-243z" unicode="X" glyph-name="X"/>
<glyph horiz-adv-x="711" d="M242 0v251l-246 469h236l121 -275l120 275h242l-257 -467v-253h-216z" unicode="Y" glyph-name="Y"/>
<glyph horiz-adv-x="651" d="M24 0v135l280 396h-271v189h598v-85l-313 -450h312v-185h-606z" unicode="Z" glyph-name="Z"/>
<glyph horiz-adv-x="391" d="M340 -125h-286v845h286v-150h-93v-547h93v-148z" unicode="[" glyph-name="bracketleft"/>
<glyph horiz-adv-x="435" d="M195 739l235 -831h-164l-236 831h165z" unicode="\" glyph-name="backslash"/>
<glyph horiz-adv-x="391" d="M337 -125h-286v148h93v547h-93v150h286v-845z" unicode="]" glyph-name="bracketright"/>
<glyph horiz-adv-x="728" d="M423 693l222 -240l-100 -81l-180 180l-187 -180l-97 84l227 237h115z" unicode="^" glyph-name="asciicircum"/>
<glyph horiz-adv-x="475" d="M0 -241v138h500v-138h-500z" unicode="_" glyph-name="underscore"/>
<glyph horiz-adv-x="500" d="M209 816l180 -158l-79 -93l-194 139z" unicode="`" glyph-name="grave"/>
<glyph d="M320 164v40q-15 5 -39 5q-67 0 -67 -48q0 -45 49 -45q24 0 40.5 14.5t16.5 33.5zM528 334v-334h-168l-18 56q-23 -32 -64.5 -50t-88.5 -18q-78 0 -124 39t-46 118q0 77 59.5 119t178.5 42q35 0 63 -3v33q0 57 -66 57q-84 0 -171 -34l-40 129q121 55 232 55 q128 0 190.5 -50t62.5 -159z" unicode="a" glyph-name="a"/>
<glyph horiz-adv-x="630" d="M249 353v-181q27 -27 68 -27q72 0 72 117q0 63 -16 92t-51 29q-45 0 -73 -30zM201 0h-160v720h208v-228q54 51 140 51q93 0 156 -67t63 -205q0 -140 -58.5 -211.5t-184.5 -71.5q-87 0 -145 68z" unicode="b" glyph-name="b"/>
<glyph d="M485 190l51 -127q-109 -75 -241 -75q-119 0 -196 70.5t-77 202.5q0 125 76 203.5t212 78.5q237 0 237 -229h-174q-3 74 -57 74q-34 0 -54 -30t-20 -90q0 -122 92 -122q61 0 151 44z" unicode="c" glyph-name="c"/>
<glyph horiz-adv-x="626" d="M408 0l-14 61q-53 -73 -157 -73q-105 0 -160 71t-55 205q0 137 67.5 208t165.5 71q72 0 126 -46v223h208v-720h-181zM381 173v180q-26 28 -68 28q-71 0 -71 -115q0 -119 71 -119q44 0 68 26z" unicode="d" glyph-name="d"/>
<glyph horiz-adv-x="578" d="M491 169l38 -124q-107 -57 -231 -57q-131 0 -203.5 73t-72.5 199q0 129 76 206t205 77q123 0 189 -62t66 -185q0 -58 -5 -77h-311q2 -35 24 -58.5t69 -23.5q54 0 156 32zM242 325h119q-2 80 -56 80q-32 0 -47.5 -23.5t-15.5 -56.5z" unicode="e" glyph-name="e"/>
<glyph horiz-adv-x="368" d="M77 0v384h-59v120l59 22v22q0 184 187 184q64 0 114 -14l-10 -133q-24 8 -46 8q-37 0 -37 -37v-25h79v-147h-79v-384h-208z" unicode="f" glyph-name="f"/>
<glyph horiz-adv-x="628" d="M589 531v-480q0 -144 -62.5 -202t-195.5 -58q-132 0 -227 37l28 139q104 -26 161 -26q54 0 75 20t21 72v35q-52 -66 -147 -66q-100 0 -160 63t-60 194q0 135 60.5 209.5t170.5 74.5q90 0 152 -62l15 50h169zM381 187v165q-28 32 -67 32q-72 0 -72 -116q0 -56 17.5 -81.5 t55.5 -25.5t66 26z" unicode="g" glyph-name="g"/>
<glyph horiz-adv-x="597" d="M41 720h208v-228q61 51 142 51q84 0 127 -45.5t43 -132.5v-365h-208v313q0 38 -9.5 52t-33.5 14q-34 0 -61 -29v-350h-208v720z" unicode="h" glyph-name="h"/>
<glyph horiz-adv-x="294" d="M34 665q0 46 31.5 70.5t81.5 24.5q51 0 82 -24.5t31 -70.5q0 -45 -31 -69t-82 -24q-50 0 -81.5 23.5t-31.5 69.5zM251 531v-531h-208v531h208z" unicode="i" glyph-name="i"/>
<glyph horiz-adv-x="290" d="M249 531v-557q0 -92 -45 -137.5t-140 -45.5q-63 0 -111 14l11 132q19 -4 39 -4q21 0 29.5 9t8.5 33v556h208zM34 665q0 46 31.5 70.5t81.5 24.5q51 0 82 -24.5t31 -70.5q0 -45 -31 -69t-82 -24q-50 0 -81.5 23.5t-31.5 69.5z" unicode="j" glyph-name="j"/>
<glyph horiz-adv-x="601" d="M249 720v-352h26l88 163h223l-139 -241l162 -290h-236l-104 207h-20v-207h-208v720h208z" unicode="k" glyph-name="k"/>
<glyph horiz-adv-x="290" d="M249 0h-208v720h208v-720z" unicode="l" glyph-name="l"/>
<glyph horiz-adv-x="872" d="M41 531h170l19 -55q63 67 150 67q93 0 135 -69q73 69 164 69q71 0 113.5 -45.5t42.5 -127.5v-370h-208v322q0 31 -7 43t-28 12q-22 0 -50 -22v-355h-208v322q0 32 -7 44t-28 12q-26 0 -50 -24v-354h-208v531z" unicode="m" glyph-name="m"/>
<glyph horiz-adv-x="597" d="M41 531h170l19 -55q65 67 161 67q84 0 127 -45.5t43 -132.5v-365h-208v313q0 38 -9.5 52t-34.5 14q-33 0 -60 -29v-350h-208v531z" unicode="n" glyph-name="n"/>
<glyph horiz-adv-x="630" d="M242 266q0 -119 74 -119q72 0 72 119q0 120 -72 120q-74 0 -74 -120zM22 266q0 137 84 207t212 70q134 0 212 -68.5t78 -208.5q0 -136 -84.5 -207t-217.5 -71q-128 0 -206 70.5t-78 207.5z" unicode="o" glyph-name="o"/>
<glyph horiz-adv-x="631" d="M249 353v-183q26 -24 64 -24q74 0 74 116q0 64 -15.5 93t-50.5 29q-39 0 -72 -31zM249 -200h-208v731h169l23 -53q65 65 156 65q92 0 155 -67t63 -205t-57 -210.5t-165 -72.5q-75 0 -136 46v-234z" unicode="p" glyph-name="p"/>
<glyph horiz-adv-x="625" d="M380 -200v238q-52 -50 -130 -50q-114 0 -171 69.5t-57 200.5q0 141 68 213t169 72q86 0 146 -57l30 45h154v-731h-209zM381 173v180q-24 29 -68 29q-71 0 -71 -116q0 -120 72 -120q40 0 67 27z" unicode="q" glyph-name="q"/>
<glyph horiz-adv-x="396" d="M201 531l25 -66q43 78 105 78q32 0 60 -13l-13 -180q-32 7 -57 7q-43 0 -72 -41v-316h-208v531h160z" unicode="r" glyph-name="r"/>
<glyph horiz-adv-x="528" d="M12 80l78 116q37 -23 84.5 -42t78.5 -19q33 0 33 26q0 17 -25 26q-11 4 -54 15q-79 20 -121 55t-42 102q0 89 62.5 136.5t163.5 47.5q67 0 132.5 -21.5t105.5 -53.5l-73 -109q-29 18 -70 31t-65 13q-33 0 -33 -23q0 -14 14.5 -21.5t57.5 -18.5q81 -21 125 -55t44 -107 q0 -90 -63 -140t-173 -50q-75 0 -144 26t-116 66z" unicode="s" glyph-name="s"/>
<glyph horiz-adv-x="389" d="M371 384h-83v-208q0 -18 7 -25.5t25 -7.5q16 0 42 6l18 -138q-70 -23 -144 -23q-80 0 -118 39.5t-38 108.5v248h-72v112l77 34l16 162h187v-161h83v-147z" unicode="t" glyph-name="t"/>
<glyph horiz-adv-x="598" d="M557 0h-165l-26 60q-54 -72 -155 -72q-85 0 -130 46t-45 130v367h209v-326q0 -57 44 -57q38 0 61 27v356h207v-531z" unicode="u" glyph-name="u"/>
<glyph horiz-adv-x="566" d="M-4 531h208l85 -336l83 336h198l-161 -531h-246z" unicode="v" glyph-name="v"/>
<glyph horiz-adv-x="824" d="M624 531h206l-153 -531h-213l-48 275h-5l-51 -275h-216l-142 531h206l59 -305l51 305h196l52 -305z" unicode="w" glyph-name="w"/>
<glyph horiz-adv-x="589" d="M-15 0l179 266l-157 265h217l71 -137l83 137h213l-170 -268l173 -263h-227l-79 131l-82 -131h-221z" unicode="x" glyph-name="x"/>
<glyph horiz-adv-x="562" d="M360 531h210l-185 -529q-42 -119 -91.5 -165t-147.5 -46q-61 0 -117 13l19 148q43 -5 73 -5q47 0 61 45l4 13l-183 526h211l72 -328h4z" unicode="y" glyph-name="y"/>
<glyph horiz-adv-x="487" d="M26 0v124l179 256h-175v151h445v-80l-205 -301h203v-150h-447z" unicode="z" glyph-name="z"/>
<glyph horiz-adv-x="451" d="M410 580h-30q-37 0 -46 -21t-9 -95q0 -66 -5 -95q-8 -55 -73 -81q51 -13 64.5 -43t13.5 -103q0 -83 11 -105t59 -22h15v-140h-46q-132 0 -179.5 36.5t-47.5 147.5v101q0 33 -11 45.5t-39 12.5h-52v137h44q37 0 47.5 19.5t10.5 81.5v73q0 108 51 149.5t176 41.5h46v-140z " unicode="{" glyph-name="braceleft"/>
<glyph horiz-adv-x="500" d="M338 720v-920h-176v920h176z" unicode="|" glyph-name="bar"/>
<glyph horiz-adv-x="451" d="M71 580h-30v140h46q125 0 176 -41.5t51 -149.5v-73q0 -62 10.5 -81.5t47.5 -19.5h44v-137h-52q-28 0 -39 -12.5t-11 -45.5v-101q0 -111 -47.5 -147.5t-179.5 -36.5h-46v140h15q48 0 59 22t11 105q0 73 13.5 103t64.5 43q-65 26 -73 81q-5 29 -5 95q0 74 -9 95t-46 21z " unicode="}" glyph-name="braceright"/>
<glyph horiz-adv-x="802" d="M677 389l47 -110q-92 -66 -196 -66q-37 0 -135 26l-13 3q-78 22 -106 22q-61 0 -148 -51l-48 111q94 65 196 65q42 0 126.5 -25t127.5 -25q54 0 149 50z" unicode="~" glyph-name="asciitilde"/>
<glyph horiz-adv-x="175" unicode=" " glyph-name="uni00A0"/>
<glyph horiz-adv-x="326" d="M58 43l18 255h174l19 -255v-232h-211v232zM55 441q0 45 29 73.5t80 28.5q49 0 78 -28.5t29 -73.5q0 -46 -29 -74t-78 -28q-50 0 -79.5 28t-29.5 74z" unicode="¡" glyph-name="exclamdown"/>
<glyph horiz-adv-x="573" d="M493 280l51 -127q-80 -54 -153 -68v-103h-155v100q-92 14 -149 82.5t-57 183.5q0 105 56 179t151 90v102h154v-101q164 -33 164 -224h-174q-3 74 -58 74q-34 0 -53.5 -28.5t-19.5 -84.5q0 -119 92 -119q61 0 151 44z" unicode="¢" glyph-name="cent"/>
<glyph horiz-adv-x="554" d="M334 238q0 -42 -32 -78h226v-160h-494v142l71 13q36 31 36 83q0 27 -13 57h-98v127h58q-27 45 -27 94q0 88 63 136.5t168 48.5q146 0 244 -95l-77 -117q-38 26 -66.5 38t-64.5 12q-62 0 -62 -54q0 -10 2 -19t3.5 -13t7.5 -16t7 -15h146v-127h-110q12 -31 12 -57z" unicode="£" glyph-name="sterling"/>
<glyph horiz-adv-x="576" d="M363 338q0 35 -20.5 55t-54.5 20q-31 0 -53.5 -20.5t-22.5 -54.5q0 -37 21 -57t55 -20q32 0 53.5 22.5t21.5 54.5zM32 505l82 89l80 -84q44 22 93 22q48 0 90 -20l79 80l87 -88l-81 -80q24 -43 24 -87q0 -49 -24 -91l81 -77l-87 -88l-80 82q-43 -22 -89 -22t-90 22 q-16 -15 -44 -44t-37 -38l-83 87l79 80q-23 41 -23 89q0 43 23 87z" unicode="¤" glyph-name="currency"/>
<glyph horiz-adv-x="620" d="M60 296v95h94l-158 299h204l108 -233l105 233h205l-165 -299h99v-95h-150v-64h150v-95h-150v-137h-192v137h-150v95h150v64h-150z" unicode="¥" glyph-name="yen"/>
<glyph horiz-adv-x="500" d="M338 225v-425h-176v425h176zM338 720v-425h-176v425h176z" unicode="¦" glyph-name="brokenbar"/>
<glyph horiz-adv-x="539" d="M47 80l68 97q85 -57 142 -57q38 0 38 21q0 5 -4 9.5t-14 9t-18.5 7.5l-25.5 9t-27 9q-63 22 -103 56t-40 94q0 71 70 122q-67 40 -67 116q0 77 59 118t154 41q120 0 209 -70l-53 -105q-89 42 -145 42q-41 0 -41 -23q0 -14 15.5 -22.5t74.5 -30.5q89 -32 118 -63t29 -79 q0 -75 -82 -115q45 -26 65.5 -55t20.5 -69q0 -73 -62.5 -113.5t-144.5 -40.5q-63 0 -128 24.5t-108 67.5zM290 383l-45 22q-21 -18 -21 -39q0 -17 27 -30l42 -20q21 19 21 40q0 16 -24 27z" unicode="§" glyph-name="section"/>
<glyph horiz-adv-x="500" d="M275 666q0 36 25.5 59.5t70.5 23.5q48 0 72 -23t24 -60q0 -35 -26 -57.5t-69 -22.5q-47 0 -72 21.5t-25 58.5zM41 666q0 36 26 59.5t70 23.5q48 0 72 -23t24 -60q0 -36 -26 -58t-69 -22q-47 0 -72 21.5t-25 58.5z" unicode="¨" glyph-name="dieresis"/>
<glyph horiz-adv-x="805" d="M521 295l43 -70q-73 -63 -165 -63q-80 0 -126 55.5t-46 141.5q0 89 48.5 145t133.5 56q67 0 109.5 -38t46.5 -114h-93q-8 61 -64 61q-76 0 -76 -109q0 -50 21.5 -78.5t59.5 -28.5q46 0 108 42zM402 653q-122 0 -205 -82t-83 -211q0 -135 81 -214t207 -79q119 0 205 86 t86 207q0 131 -80 212t-211 81zM402 720q165 0 262.5 -97t97.5 -259q0 -156 -105.5 -260t-254.5 -104q-153 0 -256.5 95.5t-103.5 264.5q0 158 104 259t256 101z" unicode="©" glyph-name="copyright"/>
<glyph horiz-adv-x="501" d="M288 396v17q-16 4 -36 4q-59 0 -59 -36q0 -31 42 -31q23 0 38 13.5t15 32.5zM436 513v-249h-121l-12 42q-43 -52 -127 -52q-52 0 -89 30t-37 87q0 58 44 93t131 35q34 0 63 -5v12q0 27 -13.5 38.5t-40.5 11.5q-53 0 -126 -31l-36 94q87 46 189 46q175 0 175 -152z" unicode="ª" glyph-name="ordfeminine"/>
<glyph horiz-adv-x="539" d="M529 359l-91 -98l91 -92l-106 -101l-163 170v45l160 172zM279 359l-91 -98l91 -92l-106 -101l-163 170v45l160 172z" unicode="«" glyph-name="guillemotleft"/>
<glyph horiz-adv-x="600" d="M569 117h-130v173h-407v122h537v-295z" unicode="¬" glyph-name="logicalnot"/>
<glyph horiz-adv-x="320" d="M25 202v154h270v-154h-270z" unicode="­" glyph-name="uni00AD"/>
<glyph horiz-adv-x="423" d="M211 687q-59 0 -99 -39.5t-40 -100.5q0 -67 38 -104t101 -37q56 0 96.5 40.5t40.5 99.5q0 64 -38 102.5t-99 38.5zM212 733q83 0 135 -51t52 -136q0 -79 -55.5 -133t-132.5 -54q-84 0 -136 49t-52 138q0 82 54 134.5t135 52.5zM143 639h75q34 0 52 -17t18 -44 q0 -34 -31 -50l41 -69h-55l-31 58q-5 -1 -16 -1h-8v-57h-45v180zM205 603h-17v-50h15q34 0 34 27q0 23 -32 23z" unicode="®" glyph-name="registered"/>
<glyph horiz-adv-x="500" d="M103 592v124h295v-124h-295z" unicode="¯" glyph-name="macron"/>
<glyph horiz-adv-x="399" d="M133 673q0 -33 18 -51.5t51 -18.5q28 0 47.5 19.5t19.5 50.5q0 32 -19 50.5t-48 18.5q-33 0 -51 -18.5t-18 -50.5zM70 672q0 55 38.5 91.5t93.5 36.5q53 0 90 -36.5t37 -91.5q0 -54 -37 -91t-90 -37q-59 0 -95.5 35t-36.5 93z" unicode="°" glyph-name="degree"/>
<glyph horiz-adv-x="600" d="M365 543v-180h196v-123h-196v-117h195v-123h-520v123h196v117h-198v123h198v180h129z" unicode="±" glyph-name="plusminus"/>
<glyph horiz-adv-x="379" d="M31 400v94l104 74q21 15 30 22t19 19.5t10 24.5q0 26 -34 26q-35 0 -94 -37l-57 90q87 76 200 76q64 0 107.5 -30t43.5 -84q0 -70 -73 -123l-62 -46h133v-106h-327z" unicode="²" glyph-name="twosuperior"/>
<glyph horiz-adv-x="367" d="M0 445l43 84q55 -31 107 -31q44 0 44 25q0 14 -10.5 20t-38.5 6q-29 0 -46 -3v90q76 2 76 29q0 19 -30 19q-37 0 -91 -25l-38 86q81 44 171 44q70 0 105.5 -25.5t35.5 -71.5q0 -66 -80 -90q46 -4 70.5 -28t24.5 -62q0 -59 -50 -89t-128 -30q-101 0 -165 52z" unicode="³" glyph-name="threesuperior"/>
<glyph horiz-adv-x="500" d="M116 656l178 160l93 -112l-194 -139z" unicode="´" glyph-name="acute"/>
<glyph horiz-adv-x="621" d="M571 0h-160v46q-34 -53 -93 -53q-34 0 -60 14v-207h-208v732h208v-341q0 -64 55 -64q23 0 50 13v392h208v-532z" unicode="µ" glyph-name="mu"/>
<glyph d="M519 720v-720h-118v634h-65v-634h-118v326q-94 8 -143.5 61t-49.5 137q0 88 61 142t167 54h266z" unicode="¶" glyph-name="paragraph"/>
<glyph horiz-adv-x="334" d="M59 323q0 46 29.5 74t79.5 28q49 0 78 -28t29 -74q0 -45 -29 -73.5t-78 -28.5q-51 0 -80 28.5t-29 73.5z" unicode="·" glyph-name="periodcentered"/>
<glyph horiz-adv-x="500" d="M138 -216l13 76q38 -10 67 -10q40 0 40 25q0 14 -13 18.5t-46 4.5h-22l20 107h77l-8 -45q98 -9 98 -86q0 -50 -32.5 -79t-92.5 -29q-61 0 -101 18z" unicode="¸" glyph-name="cedilla"/>
<glyph horiz-adv-x="317" d="M278 400h-165v214h-80l-13 104q88 22 127 64h131v-382z" unicode="¹" glyph-name="onesuperior"/>
<glyph horiz-adv-x="522" d="M201 460q0 -88 62 -88q59 0 59 88q0 86 -59 86q-62 0 -62 -86zM44 460q0 100 62.5 152.5t156.5 52.5q97 0 156 -51.5t59 -153.5q0 -100 -61 -152.5t-154 -52.5q-105 0 -162 51t-57 154z" unicode="º" glyph-name="ordmasculine"/>
<glyph horiz-adv-x="538" d="M350 261l-91 98l109 96l160 -172v-45l-163 -170l-106 101zM101 261l-91 98l109 96l160 -172v-45l-163 -170l-106 101z" unicode="»" glyph-name="guillemotright"/>
<glyph horiz-adv-x="949" d="M303 350h-165v214h-80l-13 104q88 22 127 64h131v-382zM158 0l445 720h153l-443 -720h-155zM707 282l-78 -124h78v124zM707 0v58h-192v100l142 224h188v-224h44v-100h-44v-58h-138z" unicode="¼" glyph-name="onequarter"/>
<glyph horiz-adv-x="949" d="M299 350h-165v214h-80l-13 104q88 22 127 64h131v-382zM133 0l445 720h153l-443 -720h-155zM556 0v94l104 74q21 15 30 22t19 19.5t10 24.5q0 26 -34 26q-35 0 -94 -37l-57 90q87 76 200 76q64 0 107.5 -30t43.5 -84q0 -70 -73 -123l-62 -46h133v-106h-327z" unicode="½" glyph-name="onehalf"/>
<glyph horiz-adv-x="949" d="M54 395l43 84q55 -31 107 -31q44 0 44 25q0 14 -10.5 20t-38.5 6q-29 0 -46 -3v90q76 2 76 29q0 19 -30 19q-37 0 -91 -25l-38 86q81 44 171 44q70 0 105.5 -25.5t35.5 -71.5q0 -66 -80 -90q46 -4 70.5 -28t24.5 -62q0 -59 -50 -89t-128 -30q-101 0 -165 52zM187 0 l445 720h153l-443 -720h-155zM715 282l-78 -124h78v124zM715 0v58h-192v100l142 224h188v-224h44v-100h-44v-58h-138z" unicode="¾" glyph-name="threequarters"/>
<glyph horiz-adv-x="580" d="M388 298v-32q0 -39 -14.5 -72.5t-35 -56.5t-40.5 -43t-34.5 -39t-14.5 -36q0 -21 14.5 -33.5t38.5 -12.5q67 0 67 70h192q0 -129 -79 -186.5t-208 -57.5q-103 0 -172 49t-69 146q0 47 15.5 84.5t37.5 61.5t44.5 45t38 45t15.5 51v17h204zM394 441q0 -46 -29.5 -74 t-79.5 -28q-49 0 -78 28t-29 74q0 45 29 73.5t78 28.5q51 0 80 -28.5t29 -73.5z" unicode="¿" glyph-name="questiondown"/>
<glyph horiz-adv-x="733" d="M245 720h247l245 -720h-238l-35 113h-206l-36 -113h-226zM296 268h130l-61 241zM300 962l195 -122l-55 -92l-208 92z" unicode="À" glyph-name="Agrave"/>
<glyph horiz-adv-x="733" d="M245 720h247l245 -720h-238l-35 113h-206l-36 -113h-226zM296 268h130l-61 241zM232 840l195 122l68 -122l-208 -92z" unicode="Á" glyph-name="Aacute"/>
<glyph horiz-adv-x="733" d="M245 720h247l245 -720h-238l-35 113h-206l-36 -113h-226zM296 268h130l-61 241zM319 922h99l115 -104l-77 -65l-88 55l-89 -55l-76 66z" unicode="Â" glyph-name="Acircumflex"/>
<glyph horiz-adv-x="733" d="M245 720h247l245 -720h-238l-35 113h-206l-36 -113h-226zM296 268h130l-61 241zM458 931l95 -42q-12 -55 -40 -88t-71 -33q-33 0 -76 14.5t-53 14.5q-25 0 -42 -35l-94 39q13 54 41.5 91.5t67.5 37.5q30 0 73 -14.5t54 -14.5q30 0 45 30z" unicode="Ã" glyph-name="Atilde"/>
<glyph horiz-adv-x="733" d="M245 720h247l245 -720h-238l-35 113h-206l-36 -113h-226zM296 268h130l-61 241zM389 846q0 36 25.5 59.5t70.5 23.5q48 0 72 -23t24 -60q0 -35 -26 -57.5t-69 -22.5q-47 0 -72 21.5t-25 58.5zM155 846q0 36 26 59.5t70 23.5q48 0 72 -23t24 -60q0 -36 -26 -58t-69 -22 q-47 0 -72 21.5t-25 58.5z" unicode="Ä" glyph-name="Adieresis"/>
<glyph horiz-adv-x="733" d="M235 765q0 59 38.5 92.5t97.5 33.5q58 0 95.5 -31.5t37.5 -88.5q0 -27 -12 -53l245 -718h-238l-35 113h-206l-36 -113h-226l248 716q-9 21 -9 49zM296 268h130l-61 241zM328 771q0 -42 43 -42q18 0 29.5 11.5t11.5 30.5q0 40 -41 40q-43 0 -43 -40z" unicode="Å" glyph-name="Aring"/>
<glyph horiz-adv-x="1014" d="M464 0v153h-161l-66 -153h-241l329 720h655v-189h-299v-91h272v-165h-272v-90h302v-185h-519zM350 312h114v227h-17z" unicode="Æ" glyph-name="AE"/>
<glyph horiz-adv-x="694" d="M271 -224l13 73q38 -10 67 -10q41 0 41 25q0 16 -14 22t-46 6h-22l18 97q-144 11 -222 110t-78 257q0 171 91.5 274t261.5 103q80 0 144 -29.5t106 -97t45 -165.5h-211q-4 51 -26 76t-67 25q-117 0 -117 -185q0 -173 135 -173q91 0 191 70l89 -147q-120 -105 -269 -117 l-6 -38q100 -9 100 -86q0 -50 -31.5 -79t-91.5 -29q-61 0 -101 18z" unicode="Ç" glyph-name="Ccedilla"/>
<glyph horiz-adv-x="595" d="M45 0v720h516v-189h-299v-91h272v-165h-272v-90h302v-185h-519zM229 963l195 -122l-55 -92l-208 92z" unicode="È" glyph-name="Egrave"/>
<glyph horiz-adv-x="595" d="M45 0v720h516v-189h-299v-91h272v-165h-272v-90h302v-185h-519zM180 841l195 122l68 -122l-208 -92z" unicode="É" glyph-name="Eacute"/>
<glyph horiz-adv-x="595" d="M45 0v720h516v-189h-299v-91h272v-165h-272v-90h302v-185h-519zM257 923h99l115 -104l-77 -65l-88 55l-89 -55l-76 66z" unicode="Ê" glyph-name="Ecircumflex"/>
<glyph horiz-adv-x="595" d="M45 0v720h516v-189h-299v-91h272v-165h-272v-90h302v-185h-519zM320 847q0 36 25.5 59.5t70.5 23.5q48 0 72 -23t24 -60q0 -35 -26 -57.5t-69 -22.5q-47 0 -72 21.5t-25 58.5zM86 847q0 36 26 59.5t70 23.5q48 0 72 -23t24 -60q0 -36 -26 -58t-69 -22q-47 0 -72 21.5 t-25 58.5z" unicode="Ë" glyph-name="Edieresis"/>
<glyph horiz-adv-x="307" d="M45 0v720h217v-720h-217zM87 962l195 -122l-55 -92l-208 92z" unicode="Ì" glyph-name="Igrave"/>
<glyph horiz-adv-x="307" d="M45 0v720h217v-720h-217zM19 840l195 122l68 -122l-208 -92z" unicode="Í" glyph-name="Iacute"/>
<glyph horiz-adv-x="307" d="M45 0v720h217v-720h-217zM104 922h99l115 -104l-77 -65l-88 55l-89 -55l-76 66z" unicode="Î" glyph-name="Icircumflex"/>
<glyph horiz-adv-x="307" d="M45 0v720h217v-720h-217zM176 846q0 36 25.5 59.5t70.5 23.5q48 0 72 -23t24 -60q0 -35 -26 -57.5t-69 -22.5q-47 0 -72 21.5t-25 58.5zM-58 846q0 36 26 59.5t70 23.5q48 0 72 -23t24 -60q0 -36 -26 -58t-69 -22q-47 0 -72 21.5t-25 58.5z" unicode="Ï" glyph-name="Idieresis"/>
<glyph horiz-adv-x="771" d="M20 291v132h76v297h288q176 0 267.5 -99.5t91.5 -263.5q0 -182 -95.5 -269.5t-297.5 -87.5h-254v291h-76zM379 535h-66v-112h94v-132h-94v-106h66q136 0 136 172q0 178 -136 178z" unicode="Ð" glyph-name="Eth"/>
<glyph horiz-adv-x="727" d="M45 0v720h186l238 -370v370h213v-720h-186l-238 350v-350h-213zM464 931l95 -42q-12 -55 -40 -88t-71 -33q-33 0 -76 14.5t-53 14.5q-25 0 -42 -35l-94 39q13 54 41.5 91.5t67.5 37.5q30 0 73 -14.5t54 -14.5q30 0 45 30z" unicode="Ñ" glyph-name="Ntilde"/>
<glyph horiz-adv-x="791" d="M255 360q0 -78 35.5 -127t105.5 -49t105 49t35 127q0 76 -35.5 126.5t-104.5 50.5q-70 0 -105.5 -50.5t-35.5 -126.5zM28 360q0 168 98 270t270 102q171 0 269.5 -102t98.5 -270q0 -171 -98.5 -271.5t-272.5 -100.5t-269.5 100t-95.5 272zM333 962l195 -122l-55 -92 l-208 92z" unicode="Ò" glyph-name="Ograve"/>
<glyph horiz-adv-x="791" d="M255 360q0 -78 35.5 -127t105.5 -49t105 49t35 127q0 76 -35.5 126.5t-104.5 50.5q-70 0 -105.5 -50.5t-35.5 -126.5zM28 360q0 168 98 270t270 102q171 0 269.5 -102t98.5 -270q0 -171 -98.5 -271.5t-272.5 -100.5t-269.5 100t-95.5 272zM265 840l195 122l68 -122 l-208 -92z" unicode="Ó" glyph-name="Oacute"/>
<glyph horiz-adv-x="791" d="M255 360q0 -78 35.5 -127t105.5 -49t105 49t35 127q0 76 -35.5 126.5t-104.5 50.5q-70 0 -105.5 -50.5t-35.5 -126.5zM28 360q0 168 98 270t270 102q171 0 269.5 -102t98.5 -270q0 -171 -98.5 -271.5t-272.5 -100.5t-269.5 100t-95.5 272zM350 922h99l115 -104l-77 -65 l-88 55l-89 -55l-76 66z" unicode="Ô" glyph-name="Ocircumflex"/>
<glyph horiz-adv-x="791" d="M255 360q0 -78 35.5 -127t105.5 -49t105 49t35 127q0 76 -35.5 126.5t-104.5 50.5q-70 0 -105.5 -50.5t-35.5 -126.5zM28 360q0 168 98 270t270 102q171 0 269.5 -102t98.5 -270q0 -171 -98.5 -271.5t-272.5 -100.5t-269.5 100t-95.5 272zM497 931l95 -42 q-12 -55 -40 -88t-71 -33q-33 0 -76 14.5t-53 14.5q-25 0 -42 -35l-94 39q13 54 41.5 91.5t67.5 37.5q30 0 73 -14.5t54 -14.5q30 0 45 30z" unicode="Õ" glyph-name="Otilde"/>
<glyph horiz-adv-x="791" d="M255 360q0 -78 35.5 -127t105.5 -49t105 49t35 127q0 76 -35.5 126.5t-104.5 50.5q-70 0 -105.5 -50.5t-35.5 -126.5zM28 360q0 168 98 270t270 102q171 0 269.5 -102t98.5 -270q0 -171 -98.5 -271.5t-272.5 -100.5t-269.5 100t-95.5 272zM422 846q0 36 25.5 59.5 t70.5 23.5q48 0 72 -23t24 -60q0 -35 -26 -57.5t-69 -22.5q-47 0 -72 21.5t-25 58.5zM188 846q0 36 26 59.5t70 23.5q48 0 72 -23t24 -60q0 -36 -26 -58t-69 -22q-47 0 -72 21.5t-25 58.5z" unicode="Ö" glyph-name="Odieresis"/>
<glyph horiz-adv-x="600" d="M531 440l-141 -141l141 -142l-87 -87l-141 142l-142 -142l-92 92l142 142l-142 141l87 87l142 -140l141 140z" unicode="×" glyph-name="multiply"/>
<glyph horiz-adv-x="791" d="M28 360q0 168 98 270t270 102q16 0 46 -2l21 61h168l-37 -106q82 -46 126 -130.5t44 -194.5q0 -171 -98.5 -271.5t-272.5 -100.5q-3 0 -7.5 0.5t-6.5 0.5l-21 -60h-167l31 91q-95 41 -144.5 129t-49.5 211zM255 360q0 -78 35.5 -127t105.5 -49t105 49t35 127 q0 76 -35.5 126.5t-104.5 50.5q-70 0 -105.5 -50.5t-35.5 -126.5z" unicode="Ø" glyph-name="Oslash"/>
<glyph horiz-adv-x="701" d="M40 720h217v-439q0 -102 93 -102q95 0 95 102v439h216v-440q0 -145 -81.5 -218.5t-229.5 -73.5q-152 0 -231 73t-79 219v440zM287 962l195 -122l-55 -92l-208 92z" unicode="Ù" glyph-name="Ugrave"/>
<glyph horiz-adv-x="701" d="M40 720h217v-439q0 -102 93 -102q95 0 95 102v439h216v-440q0 -145 -81.5 -218.5t-229.5 -73.5q-152 0 -231 73t-79 219v440zM223 840l195 122l68 -122l-208 -92z" unicode="Ú" glyph-name="Uacute"/>
<glyph horiz-adv-x="701" d="M40 720h217v-439q0 -102 93 -102q95 0 95 102v439h216v-440q0 -145 -81.5 -218.5t-229.5 -73.5q-152 0 -231 73t-79 219v440zM305 922h99l115 -104l-77 -65l-88 55l-89 -55l-76 66z" unicode="Û" glyph-name="Ucircumflex"/>
<glyph horiz-adv-x="701" d="M40 720h217v-439q0 -102 93 -102q95 0 95 102v439h216v-440q0 -145 -81.5 -218.5t-229.5 -73.5q-152 0 -231 73t-79 219v440zM376 846q0 36 25.5 59.5t70.5 23.5q48 0 72 -23t24 -60q0 -35 -26 -57.5t-69 -22.5q-47 0 -72 21.5t-25 58.5zM142 846q0 36 26 59.5t70 23.5 q48 0 72 -23t24 -60q0 -36 -26 -58t-69 -22q-47 0 -72 21.5t-25 58.5z" unicode="Ü" glyph-name="Udieresis"/>
<glyph horiz-adv-x="711" d="M242 0v251l-246 469h236l121 -275l120 275h242l-257 -467v-253h-216zM246 840l195 122l68 -122l-208 -92z" unicode="Ý" glyph-name="Yacute"/>
<glyph horiz-adv-x="647" d="M41 0v720h217v-85h88q125 0 198.5 -67.5t73.5 -196.5q0 -119 -72 -185t-207 -66h-81v-120h-217zM328 445h-70v-157h68q38 0 58 22t20 61q0 74 -76 74z" unicode="Þ" glyph-name="Thorn"/>
<glyph horiz-adv-x="681" d="M81 0v384h-63v118l63 26v9q0 183 282 183q114 0 180 -48.5t66 -146.5q0 -55 -29.5 -96.5t-77.5 -58.5q75 -18 117 -63.5t42 -115.5q0 -95 -59.5 -149t-144.5 -54q-87 0 -148 46l38 135q23 -12 52 -12q57 0 57 56q0 69 -127 72v153q82 3 82 72q0 62 -61 62q-62 0 -62 -78 v-494h-207z" unicode="ß" glyph-name="germandbls"/>
<glyph d="M320 164v40q-15 5 -39 5q-67 0 -67 -48q0 -45 49 -45q24 0 40.5 14.5t16.5 33.5zM528 334v-334h-168l-18 56q-23 -32 -64.5 -50t-88.5 -18q-78 0 -124 39t-46 118q0 77 59.5 119t178.5 42q35 0 63 -3v33q0 57 -66 57q-84 0 -171 -34l-40 129q121 55 232 55 q128 0 190.5 -50t62.5 -159zM227 816l180 -158l-79 -93l-194 139z" unicode="à" glyph-name="agrave"/>
<glyph d="M320 164v40q-15 5 -39 5q-67 0 -67 -48q0 -45 49 -45q24 0 40.5 14.5t16.5 33.5zM528 334v-334h-168l-18 56q-23 -32 -64.5 -50t-88.5 -18q-78 0 -124 39t-46 118q0 77 59.5 119t178.5 42q35 0 63 -3v33q0 57 -66 57q-84 0 -171 -34l-40 129q121 55 232 55 q128 0 190.5 -50t62.5 -159zM148 656l178 160l93 -112l-194 -139z" unicode="á" glyph-name="aacute"/>
<glyph d="M320 164v40q-15 5 -39 5q-67 0 -67 -48q0 -45 49 -45q24 0 40.5 14.5t16.5 33.5zM528 334v-334h-168l-18 56q-23 -32 -64.5 -50t-88.5 -18q-78 0 -124 39t-46 118q0 77 59.5 119t178.5 42q35 0 63 -3v33q0 57 -66 57q-84 0 -171 -34l-40 129q121 55 232 55 q128 0 190.5 -50t62.5 -159zM227 780h102l131 -149l-88 -64l-94 77l-94 -77l-90 66z" unicode="â" glyph-name="acircumflex"/>
<glyph d="M320 164v40q-15 5 -39 5q-67 0 -67 -48q0 -45 49 -45q24 0 40.5 14.5t16.5 33.5zM528 334v-334h-168l-18 56q-23 -32 -64.5 -50t-88.5 -18q-78 0 -124 39t-46 118q0 77 59.5 119t178.5 42q35 0 63 -3v33q0 57 -66 57q-84 0 -171 -34l-40 129q121 55 232 55 q128 0 190.5 -50t62.5 -159zM376 754l95 -42q-12 -55 -40 -88t-71 -33q-33 0 -76 14.5t-53 14.5q-25 0 -42 -35l-94 39q13 54 41.5 91.5t67.5 37.5q30 0 73 -14.5t54 -14.5q30 0 45 30z" unicode="ã" glyph-name="atilde"/>
<glyph d="M320 164v40q-15 5 -39 5q-67 0 -67 -48q0 -45 49 -45q24 0 40.5 14.5t16.5 33.5zM528 334v-334h-168l-18 56q-23 -32 -64.5 -50t-88.5 -18q-78 0 -124 39t-46 118q0 77 59.5 119t178.5 42q35 0 63 -3v33q0 57 -66 57q-84 0 -171 -34l-40 129q121 55 232 55 q128 0 190.5 -50t62.5 -159zM302 666q0 36 25.5 59.5t70.5 23.5q48 0 72 -23t24 -60q0 -35 -26 -57.5t-69 -22.5q-47 0 -72 21.5t-25 58.5zM68 666q0 36 26 59.5t70 23.5q48 0 72 -23t24 -60q0 -36 -26 -58t-69 -22q-47 0 -72 21.5t-25 58.5z" unicode="ä" glyph-name="adieresis"/>
<glyph d="M320 164v40q-15 5 -39 5q-67 0 -67 -48q0 -45 49 -45q24 0 40.5 14.5t16.5 33.5zM528 334v-334h-168l-18 56q-23 -32 -64.5 -50t-88.5 -18q-78 0 -124 39t-46 118q0 77 59.5 119t178.5 42q35 0 63 -3v33q0 57 -66 57q-84 0 -171 -34l-40 129q121 55 232 55 q128 0 190.5 -50t62.5 -159zM249 682q0 -36 37 -36q15 0 25 10t10 26q0 35 -35 35q-37 0 -37 -35zM169 677q0 51 33 80t84 29q50 0 82.5 -27.5t32.5 -76.5q0 -48 -33 -77t-82 -29q-54 0 -85.5 26t-31.5 75z" unicode="å" glyph-name="aring"/>
<glyph horiz-adv-x="873" d="M786 169l38 -124q-107 -57 -231 -57q-111 0 -191 61q-76 -61 -185 -61q-91 0 -144.5 40.5t-53.5 123.5q0 81 57 124t157 43q51 0 86 -6v24q0 56 -63 56q-87 0 -174 -34l-40 129q121 55 226 55q115 0 167 -61q65 61 177 61q113 0 177 -62.5t64 -184.5q0 -58 -5 -77h-311 q2 -37 22 -61.5t64 -24.5q55 0 163 36zM269 114q40 0 67 29q-11 34 -16 70q-18 5 -38 5q-63 0 -63 -52t50 -52zM537 325h119q-2 80 -56 80q-32 0 -47.5 -23.5t-15.5 -56.5z" unicode="æ" glyph-name="ae"/>
<glyph d="M200 -216l13 73q38 -10 67 -10q41 0 41 25q0 16 -14 22t-46 6h-22l17 90q-105 11 -169.5 80.5t-64.5 190.5q0 125 76 203.5t212 78.5q237 0 237 -229h-174q-3 74 -57 74q-34 0 -54 -30t-20 -90q0 -122 92 -122q61 0 151 44l51 -127q-93 -64 -207 -73l-5 -30 q100 -9 100 -86q0 -50 -31.5 -79t-91.5 -29q-61 0 -101 18z" unicode="ç" glyph-name="ccedilla"/>
<glyph horiz-adv-x="578" d="M491 169l38 -124q-107 -57 -231 -57q-131 0 -203.5 73t-72.5 199q0 129 76 206t205 77q123 0 189 -62t66 -185q0 -58 -5 -77h-311q2 -35 24 -58.5t69 -23.5q54 0 156 32zM242 325h119q-2 80 -56 80q-32 0 -47.5 -23.5t-15.5 -56.5zM239 816l180 -158l-79 -93l-194 139z " unicode="è" glyph-name="egrave"/>
<glyph horiz-adv-x="578" d="M491 169l38 -124q-107 -57 -231 -57q-131 0 -203.5 73t-72.5 199q0 129 76 206t205 77q123 0 189 -62t66 -185q0 -58 -5 -77h-311q2 -35 24 -58.5t69 -23.5q54 0 156 32zM242 325h119q-2 80 -56 80q-32 0 -47.5 -23.5t-15.5 -56.5zM172 656l178 160l93 -112l-194 -139z " unicode="é" glyph-name="eacute"/>
<glyph horiz-adv-x="578" d="M491 169l38 -124q-107 -57 -231 -57q-131 0 -203.5 73t-72.5 199q0 129 76 206t205 77q123 0 189 -62t66 -185q0 -58 -5 -77h-311q2 -35 24 -58.5t69 -23.5q54 0 156 32zM242 325h119q-2 80 -56 80q-32 0 -47.5 -23.5t-15.5 -56.5zM249 780h102l131 -149l-88 -64l-94 77 l-94 -77l-90 66z" unicode="ê" glyph-name="ecircumflex"/>
<glyph horiz-adv-x="578" d="M491 169l38 -124q-107 -57 -231 -57q-131 0 -203.5 73t-72.5 199q0 129 76 206t205 77q123 0 189 -62t66 -185q0 -58 -5 -77h-311q2 -35 24 -58.5t69 -23.5q54 0 156 32zM242 325h119q-2 80 -56 80q-32 0 -47.5 -23.5t-15.5 -56.5zM324 666q0 36 25.5 59.5t70.5 23.5 q48 0 72 -23t24 -60q0 -35 -26 -57.5t-69 -22.5q-47 0 -72 21.5t-25 58.5zM90 666q0 36 26 59.5t70 23.5q48 0 72 -23t24 -60q0 -36 -26 -58t-69 -22q-47 0 -72 21.5t-25 58.5z" unicode="ë" glyph-name="edieresis"/>
<glyph horiz-adv-x="293" d="M251 531v-531h-208v531h208zM96 816l180 -158l-79 -93l-194 139z" unicode="ì" glyph-name="igrave"/>
<glyph horiz-adv-x="293" d="M251 531v-531h-208v531h208zM6 656l178 160l93 -112l-194 -139z" unicode="í" glyph-name="iacute"/>
<glyph horiz-adv-x="293" d="M251 531v-531h-208v531h208zM97 780h102l131 -149l-88 -64l-94 77l-94 -77l-90 66z" unicode="î" glyph-name="icircumflex"/>
<glyph horiz-adv-x="293" d="M251 531v-531h-208v531h208zM172 666q0 36 25.5 59.5t70.5 23.5q48 0 72 -23t24 -60q0 -35 -26 -57.5t-69 -22.5q-47 0 -72 21.5t-25 58.5zM-62 666q0 36 26 59.5t70 23.5q48 0 72 -23t24 -60q0 -36 -26 -58t-69 -22q-47 0 -72 21.5t-25 58.5z" unicode="ï" glyph-name="idieresis"/>
<glyph horiz-adv-x="576" d="M550 309q0 -154 -68 -237.5t-204 -83.5q-110 0 -183 59.5t-73 185.5q0 101 56 161t144 60q83 0 140 -54q-31 144 -260 178l47 147q110 -7 192 -45l83 69l100 -113l-62 -50q88 -103 88 -277zM282 152q81 0 75 127q-31 37 -77 37q-33 0 -52 -20t-19 -59q0 -40 19.5 -62.5 t53.5 -22.5z" unicode="ð" glyph-name="eth"/>
<glyph horiz-adv-x="597" d="M41 531h170l19 -55q65 67 161 67q84 0 127 -45.5t43 -132.5v-365h-208v313q0 38 -9.5 52t-34.5 14q-33 0 -60 -29v-350h-208v531zM407 754l95 -42q-12 -55 -40 -88t-71 -33q-33 0 -76 14.5t-53 14.5q-25 0 -42 -35l-94 39q13 54 41.5 91.5t67.5 37.5q30 0 73 -14.5 t54 -14.5q30 0 45 30z" unicode="ñ" glyph-name="ntilde"/>
<glyph horiz-adv-x="630" d="M242 266q0 -119 74 -119q72 0 72 119q0 120 -72 120q-74 0 -74 -120zM22 266q0 137 84 207t212 70q134 0 212 -68.5t78 -208.5q0 -136 -84.5 -207t-217.5 -71q-128 0 -206 70.5t-78 207.5zM265 816l180 -158l-79 -93l-194 139z" unicode="ò" glyph-name="ograve"/>
<glyph horiz-adv-x="630" d="M242 266q0 -119 74 -119q72 0 72 119q0 120 -72 120q-74 0 -74 -120zM22 266q0 137 84 207t212 70q134 0 212 -68.5t78 -208.5q0 -136 -84.5 -207t-217.5 -71q-128 0 -206 70.5t-78 207.5zM191 656l178 160l93 -112l-194 -139z" unicode="ó" glyph-name="oacute"/>
<glyph horiz-adv-x="630" d="M242 266q0 -119 74 -119q72 0 72 119q0 120 -72 120q-74 0 -74 -120zM22 266q0 137 84 207t212 70q134 0 212 -68.5t78 -208.5q0 -136 -84.5 -207t-217.5 -71q-128 0 -206 70.5t-78 207.5zM263 780h102l131 -149l-88 -64l-94 77l-94 -77l-90 66z" unicode="ô" glyph-name="ocircumflex"/>
<glyph horiz-adv-x="630" d="M242 266q0 -119 74 -119q72 0 72 119q0 120 -72 120q-74 0 -74 -120zM22 266q0 137 84 207t212 70q134 0 212 -68.5t78 -208.5q0 -136 -84.5 -207t-217.5 -71q-128 0 -206 70.5t-78 207.5zM413 754l95 -42q-12 -55 -40 -88t-71 -33q-33 0 -76 14.5t-53 14.5 q-25 0 -42 -35l-94 39q13 54 41.5 91.5t67.5 37.5q30 0 73 -14.5t54 -14.5q30 0 45 30z" unicode="õ" glyph-name="otilde"/>
<glyph horiz-adv-x="630" d="M242 266q0 -119 74 -119q72 0 72 119q0 120 -72 120q-74 0 -74 -120zM22 266q0 137 84 207t212 70q134 0 212 -68.5t78 -208.5q0 -136 -84.5 -207t-217.5 -71q-128 0 -206 70.5t-78 207.5zM338 666q0 36 25.5 59.5t70.5 23.5q48 0 72 -23t24 -60q0 -35 -26 -57.5 t-69 -22.5q-47 0 -72 21.5t-25 58.5zM104 666q0 36 26 59.5t70 23.5q48 0 72 -23t24 -60q0 -36 -26 -58t-69 -22q-47 0 -72 21.5t-25 58.5z" unicode="ö" glyph-name="odieresis"/>
<glyph horiz-adv-x="600" d="M300 553q30 0 51 -21.5t21 -52.5q0 -30 -20.5 -51t-51.5 -21t-52.5 21t-21.5 51q0 31 22 52.5t52 21.5zM40 240v123h520v-123h-520zM299 201q30 0 51.5 -22.5t21.5 -52.5q0 -29 -21 -51t-53 -22q-30 0 -51.5 21.5t-21.5 51.5q0 31 22 53t52 22z" unicode="÷" glyph-name="divide"/>
<glyph horiz-adv-x="630" d="M514 596l-33 -88q127 -66 127 -242q0 -133 -81.5 -204t-210.5 -74l-23 -63h-156l32 88q-147 64 -147 253q0 137 84 207t212 70q3 0 9.5 -0.5t9.5 -0.5l20 54h157zM242 266q0 -119 74 -119q72 0 72 119q0 120 -72 120q-74 0 -74 -120z" unicode="ø" glyph-name="oslash"/>
<glyph horiz-adv-x="598" d="M557 0h-165l-26 60q-54 -72 -155 -72q-85 0 -130 46t-45 130v367h209v-326q0 -57 44 -57q38 0 61 27v356h207v-531zM247 816l180 -158l-79 -93l-194 139z" unicode="ù" glyph-name="ugrave"/>
<glyph horiz-adv-x="598" d="M557 0h-165l-26 60q-54 -72 -155 -72q-85 0 -130 46t-45 130v367h209v-326q0 -57 44 -57q38 0 61 27v356h207v-531zM175 656l178 160l93 -112l-194 -139z" unicode="ú" glyph-name="uacute"/>
<glyph horiz-adv-x="598" d="M557 0h-165l-26 60q-54 -72 -155 -72q-85 0 -130 46t-45 130v367h209v-326q0 -57 44 -57q38 0 61 27v356h207v-531zM247 780h102l131 -149l-88 -64l-94 77l-94 -77l-90 66z" unicode="û" glyph-name="ucircumflex"/>
<glyph horiz-adv-x="598" d="M557 0h-165l-26 60q-54 -72 -155 -72q-85 0 -130 46t-45 130v367h209v-326q0 -57 44 -57q38 0 61 27v356h207v-531zM322 666q0 36 25.5 59.5t70.5 23.5q48 0 72 -23t24 -60q0 -35 -26 -57.5t-69 -22.5q-47 0 -72 21.5t-25 58.5zM88 666q0 36 26 59.5t70 23.5q48 0 72 -23 t24 -60q0 -36 -26 -58t-69 -22q-47 0 -72 21.5t-25 58.5z" unicode="ü" glyph-name="udieresis"/>
<glyph horiz-adv-x="562" d="M360 531h210l-185 -529q-42 -119 -91.5 -165t-147.5 -46q-61 0 -117 13l19 148q43 -5 73 -5q47 0 61 45l4 13l-183 526h211l72 -328h4zM160 656l178 160l93 -112l-194 -139z" unicode="ý" glyph-name="yacute"/>
<glyph horiz-adv-x="631" d="M249 353v-183q29 -27 64 -27q74 0 74 119q0 124 -70 124q-37 0 -68 -33zM249 -200h-208v920h203v-242q67 65 162 65q86 0 143.5 -67t57.5 -205t-57 -210.5t-165 -72.5q-75 0 -136 46v-234z" unicode="þ" glyph-name="thorn"/>
</font>
</defs>
</svg>
