<?xml version="1.0" encoding="UTF-8" standalone="no"?>
<!DOCTYPE svg  PUBLIC '-//W3C//DTD SVG 1.1//EN'  'http://www.w3.org/Graphics/SVG/1.1/DTD/svg11.dtd'>
<svg xmlns="http://www.w3.org/2000/svg" version="1.1">
<defs>
<font id="LFTEtica-SemiBold" horiz-adv-x="554">
<font-face font-weight="600" cap-height="720" panose-1="2 0 5 3 0 0 0 2 0 4" unicode-range="U+0020-00FE" units-per-em="1000" descent="-270" underline-position="-150" bbox="-39 -226 965 935" ascent="730" font-family="a" x-height="528" underline-thickness="50"/>
<missing-glyph/>
<glyph glyph-name="space" unicode=" " horiz-adv-x="205"/>
<glyph glyph-name="exclam" unicode="!" horiz-adv-x="319" d="M106 213l-12 270v237h135v-237l-13 -270h-110zM83 57q0 34 20 54t56 20q35 0 56 -19.5t21 -51.5q0 -33 -21 -53t-56 -20q-36 0 -56 19.5t-20 50.5z"/>
<glyph glyph-name="quotedbl" unicode='&quot;' horiz-adv-x="379" d="M160 720v-279h-102v279h102zM321 720v-279h-102v279h102z"/>
<glyph glyph-name="numbersign" unicode="#" horiz-adv-x="699" d="M299 380l-39 -120h132l42 120h-135zM659 380h-139l-40 -120h121v-84h-149l-62 -168l-80 18l54 150h-133l-62 -168l-79 18l53 150h-100v84h129l41 120h-112v84h141l64 182l81 -18l-57 -164h133l65 179l80 -15l-58 -164h109v-84z"/>
<glyph glyph-name="dollar" unicode="$" horiz-adv-x="536" d="M214 -88v91q-60 9 -113 36.5t-87 62.5l62 79q92 -78 185 -78q48 0 77 20.5t29 59.5q0 43 -28 67.5t-113 45.5q-95 24 -141 71t-46 127q0 75 49 124t127 61v84h106v-85q104 -19 168 -88l-58 -71q-72 64 -159 64q-48 0 -77 -19t-29 -57q0 -40 32.5 -64t116.5 -49 q97 -29 140.5 -74t43.5 -125q0 -77 -48.5 -127.5t-129.5 -64.5v-91h-107z"/>
<glyph glyph-name="percent" unicode="%" horiz-adv-x="945" d="M643 167q0 -39 22.5 -62.5t59.5 -23.5q36 0 57.5 24t21.5 62t-21.5 62.5t-57.5 24.5q-38 0 -60 -24.5t-22 -62.5zM541 164q0 78 51 128.5t133 50.5q81 0 131.5 -50t50.5 -126t-51.5 -126t-130.5 -50q-85 0 -134.5 48t-49.5 125zM140 536q0 -39 22 -62.5t59 -23.5t58.5 24 t21.5 62t-21.5 62.5t-58.5 24.5t-59 -24t-22 -63zM38 533q0 78 50.5 128.5t132.5 50.5q81 0 132 -49.5t51 -126.5q0 -76 -52 -126.5t-131 -50.5q-84 0 -133.5 48t-49.5 126zM202 0l439 720h110l-441 -720h-108z"/>
<glyph glyph-name="ampersand" unicode="&amp;" horiz-adv-x="739" d="M276 571q0 -42 59 -104q81 47 81 104q0 29 -18 46.5t-51 17.5t-52 -18t-19 -46zM312 92q78 0 137 71l-164 184q-94 -46 -94 -138q0 -50 33 -83.5t88 -33.5zM601 -10l-83 91q-51 -51 -103 -73.5t-122 -22.5q-101 0 -164 58.5t-63 153.5q0 143 154 221q-67 72 -67 148 q0 68 52.5 115t137.5 47q79 0 130.5 -41t51.5 -112q0 -103 -127 -174l78 -86l107 98l78 -79l-112 -101l145 -165z"/>
<glyph glyph-name="quotesingle" unicode="&apos;" horiz-adv-x="218" d="M160 720v-279h-102v279h102z"/>
<glyph glyph-name="parenleft" unicode="(" horiz-adv-x="366" d="M225 738l91 -47q-70 -99 -101 -187.5t-31 -201.5q0 -107 31.5 -193t106.5 -188l-78 -53q-86 78 -137 191.5t-51 240.5q0 245 169 438z"/>
<glyph glyph-name="parenright" unicode=")" horiz-adv-x="366" d="M50 691l91 47q169 -193 169 -438q0 -127 -51 -240.5t-137 -191.5l-78 53q75 102 106.5 188t31.5 193q0 113 -31 201.5t-101 187.5z"/>
<glyph glyph-name="asterisk" unicode="*" horiz-adv-x="457" d="M315 394l-89 93l-90 -93l-50 36l68 102l-104 42l23 57l110 -25l14 115h58l15 -114l116 25l21 -58l-109 -42l65 -102z"/>
<glyph glyph-name="plus" unicode="+" horiz-adv-x="600" d="M343 556v-220h218v-84h-218v-219h-87v219h-218v84h218v220h87z"/>
<glyph glyph-name="comma" unicode="," horiz-adv-x="250" d="M44 56q0 30 21.5 50.5t52.5 20.5q40 0 61 -27.5t21 -68.5q0 -63 -35.5 -112t-103.5 -73l-20 47q82 39 85 107q-15 -5 -26 -5q-26 0 -41 17t-15 44z"/>
<glyph glyph-name="hyphen" unicode="-" horiz-adv-x="328" d="M30 225v105h268v-105h-268z"/>
<glyph glyph-name="period" unicode="." horiz-adv-x="253" d="M50 57q0 34 20 54t56 20q35 0 56 -19.5t21 -51.5q0 -33 -21 -53t-56 -20q-36 0 -56 19.5t-20 50.5z"/>
<glyph glyph-name="slash" unicode="/" horiz-adv-x="403" d="M18 -92l240 831h109l-242 -831h-107z"/>
<glyph glyph-name="zero" unicode="0" horiz-adv-x="612" d="M181 352q0 -253 125 -253t125 255t-125 255t-125 -257zM50 352q0 181 66.5 274.5t191.5 93.5q123 0 188.5 -92.5t65.5 -268.5q0 -185 -66.5 -278.5t-192.5 -93.5q-124 0 -188.5 92t-64.5 273z"/>
<glyph glyph-name="one" unicode="1" horiz-adv-x="484" d="M209 100v448q-74 -40 -157 -50l-17 88q55 14 111 47.5t93 76.5h100v-610h130v-100h-407v100h147z"/>
<glyph glyph-name="two" unicode="2" horiz-adv-x="531" d="M36 0v80l245 296q35 43 50 73.5t15 64.5q0 42 -28.5 68t-72.5 26q-65 0 -168 -76l-57 81q116 107 247 107q88 0 148.5 -50t60.5 -139q0 -57 -18.5 -100.5t-63.5 -98.5l-185 -226h277v-106h-450z"/>
<glyph glyph-name="three" unicode="3" horiz-adv-x="541" d="M16 84l59 78q83 -68 171 -68q55 0 88.5 27.5t33.5 79.5q0 110 -131 111q-43 0 -63 -4v105q69 2 115 33.5t46 83.5q0 42 -26 62.5t-69 20.5q-71 0 -147 -46l-49 81q103 72 218 72q89 0 144 -46t55 -126q0 -60 -34.5 -105t-97.5 -64v-3q80 -8 121.5 -54.5t41.5 -121.5 q0 -99 -68 -156t-170 -57q-142 0 -238 97z"/>
<glyph glyph-name="four" unicode="4" horiz-adv-x="581" d="M154 260h197v332zM351 0v153h-321v96l279 461h167v-450h80v-107h-80v-153h-125z"/>
<glyph glyph-name="five" unicode="5" horiz-adv-x="542" d="M54 260l35 450h369l-7 -112h-261l-18 -189q50 44 130 44q91 0 142 -57t51 -164q0 -118 -69.5 -181.5t-177.5 -63.5q-129 0 -221 76l43 84q94 -51 164 -51q60 0 98 34t38 100q0 124 -106 124q-59 0 -99 -42l-5 -52h-106z"/>
<glyph glyph-name="six" unicode="6" horiz-adv-x="563" d="M47 310q0 198 70 304t200 106q88 0 175 -52l-39 -87q-63 36 -123 36q-41 0 -72 -19.5t-49.5 -54.5t-28.5 -77t-12 -93q76 74 163 74q88 0 139.5 -58t51.5 -156q0 -123 -63.5 -184.5t-167.5 -61.5q-244 0 -244 323zM290 89q49 0 79 33t30 100q0 121 -103 121 q-36 0 -69.5 -18.5t-55.5 -41.5q3 -102 32 -148t87 -46z"/>
<glyph glyph-name="seven" unicode="7" horiz-adv-x="476" d="M464 654l-256 -654h-130v13l232 586h-292v111h446v-56z"/>
<glyph glyph-name="eight" unicode="8" horiz-adv-x="556" d="M157 189q0 -47 30 -73.5t85 -26.5q52 0 83.5 29.5t31.5 76.5q0 26 -11.5 47.5t-33.5 38t-40 26t-44 20.5q-101 -52 -101 -138zM191 539q0 -64 99 -108q33 18 57.5 48.5t24.5 64.5q0 81 -92 81q-42 0 -65.5 -23.5t-23.5 -62.5zM35 179q0 128 138 197q-49 21 -79.5 62.5 t-30.5 98.5q0 82 59.5 132.5t159.5 50.5q94 0 152 -47t58 -123q0 -54 -31.5 -96.5t-79.5 -69.5q138 -67 138 -188q0 -98 -68 -153.5t-182 -55.5q-111 0 -172.5 50.5t-61.5 141.5z"/>
<glyph glyph-name="nine" unicode="9" horiz-adv-x="558" d="M509 408q0 -205 -69 -313t-192 -108q-112 0 -190 56l42 86q69 -40 135 -40q133 0 151 234q-70 -65 -160 -65t-141.5 61.5t-51.5 158.5q0 114 65 178t166 64q121 0 183 -82t62 -230zM264 615q-48 0 -79 -32.5t-31 -96.5q0 -63 29 -93.5t77 -30.5q72 0 124 60q0 91 -31 142 t-89 51z"/>
<glyph glyph-name="colon" unicode=":" horiz-adv-x="253" d="M50 434q0 34 20 54t56 20q35 0 56 -19.5t21 -51.5q0 -33 -21 -53t-56 -20q-36 0 -56 19.5t-20 50.5zM50 57q0 34 20 54t56 20q35 0 56 -19.5t21 -51.5q0 -33 -21 -53t-56 -20q-36 0 -56 19.5t-20 50.5z"/>
<glyph glyph-name="semicolon" unicode=";" horiz-adv-x="253" d="M47 56q0 30 21.5 50.5t52.5 20.5q40 0 61 -27.5t21 -68.5q0 -63 -35.5 -112t-103.5 -73l-20 47q82 39 85 107q-15 -5 -26 -5q-26 0 -41 17t-15 44zM49 434q0 34 20 54t56 20q35 0 56 -19.5t21 -51.5q0 -33 -21 -53t-56 -20q-36 0 -56 19.5t-20 50.5z"/>
<glyph glyph-name="less" unicode="&lt;" horiz-adv-x="600" d="M554 44l-531 221v62l529 222l36 -86l-404 -167l406 -165z"/>
<glyph glyph-name="equal" unicode="=" horiz-adv-x="600" d="M560 243v-85h-521v85h521zM560 424v-84h-521v84h521z"/>
<glyph glyph-name="greater" unicode="&gt;" horiz-adv-x="600" d="M578 267l-530 -221l-36 86l404 166l-403 167l36 86l529 -222v-62z"/>
<glyph glyph-name="question" unicode="?" horiz-adv-x="547" d="M214 213v33q0 39 16 73.5t39 59.5t45.5 48t38.5 50t16 55q0 43 -25.5 65t-69.5 22q-48 0 -78 -29.5t-30 -84.5h-123q0 113 65 170t174 57q94 0 157.5 -48.5t63.5 -138.5q0 -42 -17.5 -79t-42.5 -64t-50 -52.5t-42.5 -55.5t-17.5 -61v-20h-119zM196 57q0 34 20.5 54 t56.5 20q34 0 55.5 -19.5t21.5 -51.5t-21.5 -52.5t-55.5 -20.5q-36 0 -56.5 19.5t-20.5 50.5z"/>
<glyph glyph-name="at" unicode="@" horiz-adv-x="989" d="M559 184l40 158q-24 15 -67 15q-75 0 -119 -56t-44 -135q0 -96 73 -96q41 0 72.5 33t44.5 81zM694 390l-58 -229q-21 -86 44 -86q48 0 85.5 36.5t55 88t17.5 105.5q0 130 -82 199.5t-219 69.5q-165 0 -270.5 -109t-105.5 -276q0 -150 94.5 -236.5t246.5 -86.5 q160 0 286 93l39 -60q-66 -51 -154.5 -78t-177.5 -27q-184 0 -302 106t-118 290q0 200 134 329.5t331 129.5q171 0 277 -93.5t106 -245.5q0 -134 -76.5 -221t-179.5 -87q-102 0 -107 78q-50 -77 -143 -77q-68 0 -101 44t-33 115q0 111 72 189.5t186 78.5q83 0 153 -40z"/>
<glyph glyph-name="A" unicode="A" horiz-adv-x="690" d="M275 720h139l259 -720h-148l-53 163h-254l-53 -163h-149zM255 279h179l-90 283z"/>
<glyph glyph-name="B" unicode="B" horiz-adv-x="652" d="M335 606h-124v-182h110q58 0 91 23.5t33 71.5q0 87 -110 87zM211 318v-201h145q58 0 89 27t31 76q0 98 -124 98h-141zM73 0v720h266q126 0 187 -43.5t61 -133.5q0 -57 -32 -102t-93 -59v-2q78 -11 116.5 -59.5t38.5 -106.5q0 -61 -22.5 -104t-65 -66.5t-94 -33.5 t-117.5 -10h-245z"/>
<glyph glyph-name="C" unicode="C" horiz-adv-x="680" d="M577 195l74 -91q-121 -117 -283 -117q-156 0 -237 102.5t-81 270.5q0 165 84.5 268.5t239.5 103.5q117 0 192.5 -65t81.5 -188h-139q-4 55 -35.5 91.5t-98.5 36.5q-83 0 -130 -64.5t-47 -181.5q0 -122 48.5 -185.5t135.5 -63.5q99 0 195 83z"/>
<glyph glyph-name="D" unicode="D" horiz-adv-x="723" d="M312 598h-101v-477h101q109 0 160.5 59t51.5 178q0 240 -212 240zM73 720h237q175 0 266.5 -92t91.5 -260q0 -192 -93 -280t-286 -88h-216v720z"/>
<glyph glyph-name="E" unicode="E" horiz-adv-x="606" d="M73 0v720h479v-122h-341v-173h310v-122h-310v-182h347v-121h-485z"/>
<glyph glyph-name="F" unicode="F" horiz-adv-x="569" d="M73 0v720h461v-122h-323v-184h285v-119h-285v-295h-138z"/>
<glyph glyph-name="G" unicode="G" horiz-adv-x="730" d="M408 269v115h260v-286q-101 -111 -278 -111q-92 0 -160 29.5t-106 82t-56 117.5t-18 144q0 170 84.5 271t247.5 101q141 0 208 -64.5t74 -170.5h-143q-3 50 -36.5 80t-102.5 30q-90 0 -138.5 -66.5t-48.5 -178.5q0 -252 203 -252q89 0 138 41v118h-128z"/>
<glyph glyph-name="H" unicode="H" horiz-adv-x="719" d="M73 0v720h138v-293h297v293h138v-720h-138v302h-297v-302h-138z"/>
<glyph glyph-name="I" unicode="I" horiz-adv-x="288" d="M75 0v720h138v-720h-138z"/>
<glyph glyph-name="J" unicode="J" horiz-adv-x="427" d="M357 720v-535q0 -198 -177 -198q-91 0 -155 27l17 108q45 -16 93 -16q47 0 65 21.5t18 78.5v514h139z"/>
<glyph glyph-name="K" unicode="K" horiz-adv-x="675" d="M73 0v720h138v-297h101l165 297h154l-200 -351l227 -369h-160l-188 309h-99v-309h-138z"/>
<glyph glyph-name="L" unicode="L" horiz-adv-x="559" d="M73 720h138v-598h313v-122h-451v720z"/>
<glyph glyph-name="M" unicode="M" horiz-adv-x="881" d="M832 0h-130l-47 486l-158 -486h-111l-158 487l-47 -487h-132l70 720h148l174 -529l178 529h142z"/>
<glyph glyph-name="N" unicode="N" horiz-adv-x="725" d="M73 0v720h122l320 -487v487h137v-720h-121l-322 481v-481h-136z"/>
<glyph glyph-name="O" unicode="O" horiz-adv-x="786" d="M195 364q0 -120 52 -185.5t146 -65.5q95 0 146.5 65t51.5 186q0 112 -52.5 177t-144.5 65q-94 0 -146.5 -65.5t-52.5 -176.5zM50 364q0 172 93.5 270t249.5 98q157 0 250 -98t93 -270q0 -181 -92.5 -279t-250.5 -98t-250.5 98.5t-92.5 278.5z"/>
<glyph glyph-name="P" unicode="P" horiz-adv-x="630" d="M323 601h-112v-237h106q66 0 100 31t34 88q0 118 -128 118zM73 0v720h261q123 0 188.5 -60.5t65.5 -170.5q0 -113 -66.5 -175.5t-197.5 -62.5h-113v-251h-138z"/>
<glyph glyph-name="Q" unicode="Q" horiz-adv-x="786" d="M688 -102l-255 91q-26 -2 -40 -2q-158 0 -250.5 98.5t-92.5 278.5q0 172 93.5 270t249.5 98q157 0 250 -98t93 -270q0 -106 -38.5 -184t-106.5 -120v-5l143 -45zM195 364q0 -120 52 -185.5t146 -65.5q95 0 146.5 65t51.5 186q0 112 -52.5 177t-144.5 65 q-94 0 -146.5 -65.5t-52.5 -176.5z"/>
<glyph glyph-name="R" unicode="R" horiz-adv-x="663" d="M73 720h259q129 0 196.5 -60t67.5 -165q0 -138 -115 -198l154 -297h-150l-133 265q-35 -5 -64 -5h-77v-260h-138v720zM326 601h-115v-230h109q135 0 135 118q0 112 -129 112z"/>
<glyph glyph-name="S" unicode="S" horiz-adv-x="611" d="M29 107l69 85q108 -90 213 -90q48 0 78.5 25.5t30.5 68.5q0 42 -31 67.5t-120 50.5q-114 32 -162.5 78.5t-48.5 130.5q0 102 69.5 155.5t180.5 53.5q145 0 246 -101l-67 -82q-80 71 -176 71q-50 0 -80.5 -21.5t-30.5 -61.5q0 -43 34 -64.5t133 -54.5q107 -35 152 -80.5 t45 -127.5q0 -104 -70 -163.5t-188 -59.5q-163 0 -277 120z"/>
<glyph glyph-name="T" unicode="T" horiz-adv-x="613" d="M238 0v598h-216v122h569v-122h-215v-598h-138z"/>
<glyph glyph-name="U" unicode="U" horiz-adv-x="711" d="M70 720h138v-442q0 -84 39 -126t109 -42q76 0 111.5 41.5t35.5 126.5v442h138v-448q0 -140 -73.5 -212t-212.5 -72q-137 0 -211 70t-74 214v448z"/>
<glyph glyph-name="V" unicode="V" horiz-adv-x="646" d="M241 0l-227 720h145l164 -559l167 559h142l-230 -720h-161z"/>
<glyph glyph-name="W" unicode="W" horiz-adv-x="939" d="M198 0l-183 720h141l128 -541l123 541h126l125 -541l124 541h142l-183 -720h-147l-124 507l-122 -507h-150z"/>
<glyph glyph-name="X" unicode="X" horiz-adv-x="647" d="M16 0l223 367l-215 353h153l147 -249l150 249h157l-227 -363l222 -357h-158l-147 244l-144 -244h-161z"/>
<glyph glyph-name="Y" unicode="Y" horiz-adv-x="639" d="M246 0v287l-236 433h151l156 -296l157 296h155l-244 -433v-287h-139z"/>
<glyph glyph-name="Z" unicode="Z" horiz-adv-x="625" d="M36 0v88l347 510h-327v122h533v-55l-378 -544h377v-121h-552z"/>
<glyph glyph-name="bracketleft" unicode="[" horiz-adv-x="354" d="M302 -125h-227v845h227v-99h-102v-648h102v-98z"/>
<glyph glyph-name="backslash" unicode="\" horiz-adv-x="401" d="M143 739l240 -831h-107l-242 831h109z"/>
<glyph glyph-name="bracketright" unicode="]" horiz-adv-x="354" d="M279 -125h-227v98h102v648h-102v99h227v-845z"/>
<glyph glyph-name="asciicircum" unicode="^" horiz-adv-x="706" d="M392 693l228 -241l-63 -53l-204 206l-205 -207l-64 59l227 236h81z"/>
<glyph glyph-name="underscore" unicode="_" horiz-adv-x="485" d="M-3 -218v92h491v-92h-491z"/>
<glyph glyph-name="grave" unicode="`" horiz-adv-x="500" d="M214 788l156 -143l-59 -66l-166 126z"/>
<glyph glyph-name="a" unicode="a" d="M358 203v14q-25 5 -63 5q-121 0 -121 -78q0 -59 72 -59q49 0 80.5 37t31.5 81zM491 346v-346h-106l-14 71q-57 -84 -166 -84q-74 0 -118.5 40t-44.5 115q0 71 57.5 119t183.5 48q42 0 75 -4v39q0 90 -90 90q-44 0 -78 -12t-78 -38l-45 80q96 76 215 76q209 0 209 -194z "/>
<glyph glyph-name="b" unicode="b" horiz-adv-x="623" d="M200 360v-201q43 -61 115 -61q118 0 118 164q0 168 -114 168q-67 0 -119 -70zM172 0h-105v720h133v-253q63 73 159 73q98 0 156.5 -71t58.5 -203q0 -133 -57 -205.5t-175 -72.5q-100 0 -159 77z"/>
<glyph glyph-name="c" unicode="c" d="M466 146l49 -84q-91 -75 -218 -75q-114 0 -182.5 73.5t-68.5 202.5q0 126 71.5 201.5t188.5 75.5q101 0 156.5 -54t58.5 -157h-111q-5 51 -32 77t-70 26q-57 0 -89.5 -42t-32.5 -122q0 -78 33 -124t97 -46t150 48z"/>
<glyph glyph-name="d" unicode="d" horiz-adv-x="620" d="M437 0l-7 68q-59 -81 -164 -81q-108 0 -162.5 72.5t-54.5 202.5q0 131 61.5 204.5t160.5 73.5q87 0 152 -70v250h132v-720h-118zM422 158v209q-50 60 -116 60q-55 0 -86 -41t-31 -122q0 -165 120 -165q63 0 113 59z"/>
<glyph glyph-name="e" unicode="e" horiz-adv-x="571" d="M472 142l43 -87q-92 -68 -214 -68q-120 0 -187.5 70.5t-67.5 202.5q0 128 69.5 204t186.5 76q111 0 169 -64.5t58 -191.5q0 -47 -2 -65h-341q10 -122 131 -122q69 0 155 45zM187 315h215q0 125 -99 125q-58 0 -86 -40.5t-30 -84.5z"/>
<glyph glyph-name="f" unicode="f" horiz-adv-x="329" d="M93 0v428h-66v79l66 15v55q0 73 36.5 114t111.5 41q49 0 88 -11l-7 -87q-24 7 -46 7q-50 0 -50 -59v-54h91v-100h-91v-428h-133z"/>
<glyph glyph-name="g" unicode="g" horiz-adv-x="625" d="M555 528v-499q0 -132 -58.5 -185.5t-189.5 -53.5q-104 0 -191 33l21 97q96 -26 160 -26q72 0 101 31t29 105v49q-61 -76 -162 -76q-104 0 -160 66.5t-56 191.5q0 128 58 203.5t167 75.5q93 0 162 -80l9 68h110zM422 170v195q-17 23 -49 42.5t-68 19.5q-116 0 -116 -158 q0 -156 118 -156q63 0 115 57z"/>
<glyph glyph-name="h" unicode="h" horiz-adv-x="590" d="M67 720h133v-256q69 76 163 76q79 0 121.5 -49t42.5 -138v-353h-133v320q0 52 -17.5 79.5t-66.5 27.5q-58 0 -110 -59v-368h-133v720z"/>
<glyph glyph-name="i" unicode="i" horiz-adv-x="278" d="M62 663q0 33 22.5 51t56.5 18q36 0 58 -18t22 -51q0 -32 -22 -49.5t-58 -17.5q-34 0 -56.5 18t-22.5 49zM205 528v-528h-132v528h132z"/>
<glyph glyph-name="j" unicode="j" horiz-adv-x="278" d="M205 528v-578q0 -76 -34 -115t-110 -39q-47 0 -91 14l10 93q26 -6 47 -6q25 0 35.5 12.5t10.5 47.5v571h132zM60 663q0 33 22.5 51t57.5 18q36 0 58 -18t22 -51q0 -32 -22 -49.5t-58 -17.5q-34 0 -57 18t-23 49z"/>
<glyph glyph-name="k" unicode="k" horiz-adv-x="567" d="M200 720v-374h65l116 182h146l-157 -234l181 -294h-155l-140 236h-56v-236h-133v720h133z"/>
<glyph glyph-name="l" unicode="l" horiz-adv-x="273" d="M203 0h-133v720h133v-720z"/>
<glyph glyph-name="m" unicode="m" horiz-adv-x="855" d="M67 528h111l11 -69q69 81 160 81q95 0 128 -79q75 79 168 79q147 0 147 -174v-366h-133v340q0 43 -14.5 64.5t-50.5 21.5q-47 0 -98 -54v-372h-132v336q0 45 -13 67.5t-49 22.5q-52 0 -102 -56v-370h-133v528z"/>
<glyph glyph-name="n" unicode="n" horiz-adv-x="590" d="M67 528h111l11 -70q71 82 171 82q82 0 124.5 -49t42.5 -137v-354h-133v314q0 59 -20.5 86t-62.5 27q-61 0 -111 -59v-368h-133v528z"/>
<glyph glyph-name="o" unicode="o" horiz-adv-x="617" d="M186 264q0 -85 33 -125t89 -40q57 0 90 40t33 125q0 84 -33.5 125t-89.5 41t-89 -42t-33 -124zM46 261q0 133 73.5 206t190.5 73q116 0 188.5 -72t72.5 -204q0 -131 -74.5 -204t-193.5 -73q-120 0 -188.5 71.5t-68.5 202.5z"/>
<glyph glyph-name="p" unicode="p" horiz-adv-x="623" d="M200 362v-206q17 -21 48.5 -39t69.5 -18q115 0 115 163q0 167 -112 167q-67 0 -121 -67zM200 -200h-133v728h110l14 -69q72 81 172 81q98 0 154.5 -70.5t56.5 -203.5q0 -131 -56.5 -204.5t-164.5 -73.5q-93 0 -153 65v-253z"/>
<glyph glyph-name="q" unicode="q" horiz-adv-x="621" d="M421 -200v253q-60 -65 -150 -65q-111 0 -166.5 72t-55.5 202q0 131 62.5 204.5t164.5 73.5q89 0 160 -76l17 64h102v-728h-134zM422 157v210q-50 60 -116 60q-55 0 -86 -41t-31 -122q0 -165 120 -165q64 0 113 58z"/>
<glyph glyph-name="r" unicode="r" horiz-adv-x="371" d="M173 528l12 -76q20 39 51 63.5t66 24.5q24 0 52 -11l-10 -121q-24 7 -50 7q-28 0 -53.5 -20t-40.5 -45v-350h-133v528h106z"/>
<glyph glyph-name="s" unicode="s" horiz-adv-x="520" d="M31 79l59 80q89 -68 167 -68q35 0 54.5 14.5t19.5 39.5q0 27 -20.5 42t-84.5 31q-87 22 -124.5 58.5t-37.5 100.5q0 76 54.5 119.5t145.5 43.5q122 0 210 -80l-59 -77q-78 56 -145 56q-73 0 -73 -47q0 -27 23.5 -40t91.5 -33q88 -25 125.5 -59t37.5 -98q0 -83 -57 -129 t-154 -46q-137 0 -233 92z"/>
<glyph glyph-name="t" unicode="t" horiz-adv-x="355" d="M322 428h-95v-296q0 -43 34 -43q35 0 62 9l13 -91q-58 -20 -124 -20q-117 0 -117 118v323h-69v77l71 22l14 152h116v-151h95v-100z"/>
<glyph glyph-name="u" unicode="u" horiz-adv-x="585" d="M518 0h-109l-11 69q-72 -82 -167 -82q-168 0 -168 183v358h133v-326q0 -52 18 -77.5t61 -25.5q61 0 110 57v372h133v-528z"/>
<glyph glyph-name="v" unicode="v" horiz-adv-x="537" d="M16 528h139l116 -399l116 399h134l-174 -528h-155z"/>
<glyph glyph-name="w" unicode="w" horiz-adv-x="786" d="M632 528h132l-139 -528h-144l-90 345l-87 -345h-144l-138 528h132l84 -377l91 377h125l101 -377z"/>
<glyph glyph-name="x" unicode="x" horiz-adv-x="546" d="M15 0l178 265l-173 263h144l109 -177l110 177h141l-171 -263l177 -265h-143l-114 179l-115 -179h-143z"/>
<glyph glyph-name="y" unicode="y" horiz-adv-x="531" d="M382 528h133l-178 -507q-15 -43 -21.5 -61t-19.5 -49t-22.5 -43t-25.5 -30t-33 -24t-40.5 -11.5t-53.5 -5.5q-44 0 -89 12l10 94q37 -7 67 -7q32 0 51.5 14.5t34.5 59.5l5 15l-184 543h139l109 -390z"/>
<glyph glyph-name="z" unicode="z" horiz-adv-x="476" d="M41 0v83l229 344h-224v101h394v-59l-242 -369h241v-100h-398z"/>
<glyph glyph-name="braceleft" unicode="{" horiz-adv-x="402" d="M370 627h-37q-38 0 -51.5 -25t-13.5 -84v-119q0 -46 -18 -74t-63 -40q52 -10 66.5 -42t14.5 -100v-90q0 -48 13 -66.5t55 -18.5h34v-93h-46q-105 0 -143.5 34t-38.5 124v117q0 47 -15 67.5t-53 20.5h-39v93h34q45 0 59 24.5t14 91.5v83q0 105 41 147.5t146 42.5h41v-93z "/>
<glyph glyph-name="bar" unicode="|" horiz-adv-x="500" d="M306 720v-920h-113v920h113z"/>
<glyph glyph-name="braceright" unicode="}" horiz-adv-x="402" d="M69 627h-37v93h41q105 0 146 -42.5t41 -147.5v-83q0 -67 14 -91.5t59 -24.5h34v-93h-39q-38 0 -53 -20.5t-15 -67.5v-117q0 -90 -38.5 -124t-143.5 -34h-46v93h34q42 0 55 18.5t13 66.5v90q0 68 14.5 100t66.5 42q-45 12 -63 40t-18 74v119q0 59 -13.5 84t-51.5 25z"/>
<glyph glyph-name="asciitilde" unicode="~" horiz-adv-x="780" d="M675 385l55 -96q-99 -77 -206 -77q-46 0 -133 30.5t-125 30.5q-62 0 -158 -59l-53 95q111 77 206 77q45 0 131.5 -30t124.5 -30q68 0 158 59z"/>
<glyph glyph-name="uni00A0" unicode=" " horiz-adv-x="205"/>
<glyph glyph-name="exclamdown" unicode="¡" horiz-adv-x="319" d="M94 43l12 270h110l13 -270v-237h-135v237zM83 469q0 31 20 50.5t56 19.5q35 0 56 -20t21 -53q0 -32 -21 -51.5t-56 -19.5q-36 0 -56 20t-20 54z"/>
<glyph glyph-name="cent" unicode="¢" horiz-adv-x="545" d="M479 235l38 -82q-69 -56 -152 -70v-101h-109v99q-95 15 -150.5 85.5t-55.5 185.5q0 111 56 182.5t151 86.5v98h108v-100q74 -14 115.5 -66t44.5 -137h-111q-9 101 -102 101q-58 0 -90 -40.5t-32 -120.5q0 -78 35 -125t99 -47q73 0 155 51z"/>
<glyph glyph-name="sterling" unicode="£" horiz-adv-x="530" d="M278 228q0 -62 -53 -123h267v-105h-452v95l54 7q59 63 59 126q0 36 -22 88h-90v86h58q-38 74 -38 130q0 82 63 135t158 53q133 0 213 -89l-54 -74q-69 59 -141 59q-48 0 -76.5 -25.5t-28.5 -68.5t37 -120h155v-86h-129q20 -51 20 -88z"/>
<glyph glyph-name="currency" unicode="¤" horiz-adv-x="577" d="M401 337q0 49 -32.5 80.5t-80.5 31.5q-47 0 -80.5 -32t-33.5 -80q0 -50 32.5 -82t81.5 -32q48 0 80.5 33t32.5 81zM36 530l56 60l88 -91q50 33 108 33q59 0 105 -32l89 88l58 -58l-90 -90q35 -46 35 -103q0 -58 -34 -107l90 -88l-59 -58l-89 89q-49 -32 -105 -32 q-57 0 -107 32q-13 -12 -42.5 -42.5t-46.5 -46.5l-56 58l88 89q-33 48 -33 106q0 55 33 103z"/>
<glyph glyph-name="yen" unicode="¥" horiz-adv-x="592" d="M573 710l-184 -329h147v-85h-181v-66h181v-85h-181v-145h-123v145h-180v85h180v66h-180v85h146l-179 329h139l138 -276l143 276h134z"/>
<glyph glyph-name="brokenbar" unicode="¦" horiz-adv-x="500" d="M306 214v-414h-113v414h113zM306 720v-415h-113v415h113z"/>
<glyph glyph-name="section" unicode="§" horiz-adv-x="524" d="M63 72l49 68q79 -58 156 -58q70 0 70 47q0 23 -27.5 39t-66.5 27.5t-78 26.5t-66.5 45t-27.5 74q0 45 27.5 77.5t76.5 46.5q-96 36 -96 118q0 67 49.5 108t132.5 41q131 0 204 -70l-49 -66q-70 48 -137 48q-33 0 -56 -13.5t-23 -39.5t19.5 -41t72.5 -33 q100 -35 136 -65.5t36 -82.5q0 -85 -99 -115q96 -43 96 -121q0 -67 -52 -106.5t-133 -39.5q-60 0 -118 22.5t-96 62.5zM248 427q-61 -18 -61 -60q0 -47 103 -76q59 26 59 64q0 46 -101 72z"/>
<glyph glyph-name="dieresis" unicode="¨" horiz-adv-x="500" d="M81 656q0 27 18.5 44.5t50.5 17.5q34 0 52 -17.5t18 -44.5t-19.5 -44t-50.5 -17q-33 0 -51 16.5t-18 44.5zM285 656q0 27 18.5 44.5t50.5 17.5q34 0 52 -17.5t18 -44.5t-19.5 -44t-50.5 -17q-33 0 -51 16.5t-18 44.5z"/>
<glyph glyph-name="copyright" unicode="©" horiz-adv-x="810" d="M523 274l34 -47q-63 -63 -149 -63q-85 0 -128.5 53t-43.5 144q0 89 45.5 144t128.5 55q64 0 104 -34t41 -103h-69q-3 37 -20.5 56t-57.5 19q-47 0 -73 -36.5t-26 -99.5q0 -133 102 -133q56 0 112 45zM405 663q-129 0 -213.5 -85.5t-84.5 -217.5q0 -143 84.5 -223 t213.5 -80q121 0 211 88t90 215q0 135 -84 219t-217 84zM405 720q162 0 261 -98.5t99 -257.5q0 -156 -106 -260t-254 -104q-153 0 -256.5 95t-103.5 265q0 156 104 258t256 102z"/>
<glyph glyph-name="ordfeminine" unicode="ª" horiz-adv-x="483" d="M309 408v21q-28 4 -53 4q-103 0 -103 -60q0 -23 17.5 -36.5t46.5 -13.5q38 0 65 25.5t27 59.5zM405 517v-253h-82l-8 60q-17 -31 -51.5 -50.5t-73.5 -19.5q-58 0 -94.5 29.5t-36.5 83.5t42.5 88t136.5 34q31 0 71 -5v32q0 69 -80 69q-65 0 -124 -36l-26 62q74 48 157 48 q169 0 169 -142z"/>
<glyph glyph-name="guillemotleft" unicode="«" horiz-adv-x="483" d="M247 374l-97 -114l97 -112l-55 -50l-159 142v41l159 145zM457 374l-97 -114l97 -112l-55 -50l-159 142v41l159 145z"/>
<glyph glyph-name="logicalnot" unicode="¬" horiz-adv-x="600" d="M569 123h-87v191h-450v82h537v-273z"/>
<glyph glyph-name="uni00AD" unicode="­" horiz-adv-x="328" d="M30 225v105h268v-105h-268z"/>
<glyph glyph-name="registered" unicode="®" horiz-adv-x="422" d="M145 637h69q33 0 50 -16t17 -42q0 -34 -30 -49l41 -71h-41l-34 62q-5 -1 -17 -1h-20v-61h-35v178zM207 607h-27v-57h25q38 0 38 27q0 30 -36 30zM211 691q-61 0 -102 -40.5t-41 -103.5q0 -69 39 -107t104 -38q58 0 99.5 42t41.5 102q0 66 -39 105.5t-102 39.5zM212 728 q80 0 131 -50t51 -132q0 -77 -54 -129.5t-129 -52.5q-82 0 -132.5 48t-50.5 134q0 80 53 131t131 51z"/>
<glyph glyph-name="macron" unicode="¯" horiz-adv-x="500" d="M109 608v89h283v-89h-283z"/>
<glyph glyph-name="degree" unicode="°" horiz-adv-x="323" d="M100 665q0 -30 17 -49t46 -19q27 0 44.5 19.5t17.5 48.5t-17 47.5t-45 18.5q-29 0 -46 -18t-17 -48zM40 664q0 51 36 86t87 35q50 0 85 -35t35 -86t-35 -85.5t-85 -34.5q-53 0 -88 34t-35 86z"/>
<glyph glyph-name="plusminus" unicode="±" horiz-adv-x="600" d="M560 84v-84h-520v84h216v170h-217v82h217v174h87v-174h217v-82h-217v-170h217z"/>
<glyph glyph-name="twosuperior" unicode="²" horiz-adv-x="338" d="M27 400v62l125 122q20 19 27 27t15 21.5t8 26.5q0 36 -51 36q-43 0 -98 -39l-39 58q74 67 168 67q57 0 92.5 -28.5t35.5 -77.5q0 -58 -62 -113l-91 -81h154v-81h-284z"/>
<glyph glyph-name="threesuperior" unicode="³" horiz-adv-x="342" d="M7 444l36 60q57 -35 105 -35q65 0 65 44q0 41 -72 41q-18 0 -39 -3v75q92 2 92 47q0 34 -53 34q-39 0 -89 -24l-25 58q65 40 144 40q61 0 94 -24t33 -70q0 -32 -20.5 -56t-55.5 -34q95 -9 95 -91q0 -55 -42.5 -84t-112.5 -29q-96 0 -155 51z"/>
<glyph glyph-name="acute" unicode="´" horiz-adv-x="500" d="M132 645l156 143l69 -83l-166 -126z"/>
<glyph glyph-name="mu" unicode="µ" horiz-adv-x="588" d="M516 0h-117v64q-39 -71 -118 -71q-53 0 -87 37v-230h-132v728h132v-330q0 -106 89 -106q64 0 101 64v372h132v-528z"/>
<glyph glyph-name="paragraph" unicode="¶" horiz-adv-x="555" d="M482 720v-720h-89v650h-79v-650h-89v351q-87 8 -136.5 55.5t-49.5 126.5q0 83 58.5 135t154.5 52h230z"/>
<glyph glyph-name="periodcentered" unicode="·" horiz-adv-x="299" d="M78 334q0 35 20 54.5t56 19.5q35 0 56.5 -19.5t21.5 -51.5t-21.5 -52t-56.5 -20q-36 0 -56 19.5t-20 49.5z"/>
<glyph glyph-name="cedilla" unicode="¸" horiz-adv-x="500" d="M156 -205l15 57q28 -10 57 -10q41 0 41 30q0 31 -59 31h-18l23 105h64l-12 -60q18 -2 30.5 -5.5t27 -11.5t22 -23t7.5 -37q0 -45 -30.5 -68.5t-80.5 -23.5q-52 0 -87 16z"/>
<glyph glyph-name="onesuperior" unicode="¹" horiz-adv-x="289" d="M232 400h-107v250q-47 -9 -91 -3l-8 64q79 18 123 63h83v-374z"/>
<glyph glyph-name="ordmasculine" unicode="º" horiz-adv-x="497" d="M154 455q0 -124 95 -124q43 0 69 30.5t26 93.5q0 64 -26 95.5t-69 31.5q-44 0 -69.5 -31t-25.5 -96zM53 457q0 96 55 149t141 53q85 0 140 -53t55 -149q0 -95 -55.5 -148.5t-139.5 -53.5q-90 0 -143 52.5t-53 149.5z"/>
<glyph glyph-name="guillemotright" unicode="»" horiz-adv-x="485" d="M123 260l-97 114l55 52l159 -145v-41l-159 -142l-55 50zM335 260l-97 114l55 52l159 -145v-41l-159 -142l-55 50z"/>
<glyph glyph-name="onequarter" unicode="¼" horiz-adv-x="885" d="M147 0l441 720h103l-439 -720h-105zM254 350h-107v250q-47 -9 -91 -3l-8 64q79 18 123 63h83v-374zM677 302l-106 -159h106v159zM677 0v64h-192v78l159 232h131v-231h40v-79h-40v-64h-98z"/>
<glyph glyph-name="onehalf" unicode="½" horiz-adv-x="885" d="M113 0l441 720h103l-439 -720h-105zM249 350h-107v250q-47 -9 -91 -3l-8 64q79 18 123 63h83v-374zM504 0v62l125 122q20 19 27 27t15 21.5t8 26.5q0 36 -51 36q-43 0 -98 -39l-39 58q74 67 168 67q57 0 92.5 -28.5t35.5 -77.5q0 -58 -62 -113l-91 -81h154v-81h-284z"/>
<glyph glyph-name="threequarters" unicode="¾" horiz-adv-x="885" d="M195 0l441 720h103l-439 -720h-105zM696 302l-106 -159h106v159zM696 0v64h-192v78l159 232h131v-231h40v-79h-40v-64h-98zM66 394l36 60q57 -35 105 -35q65 0 65 44q0 41 -72 41q-18 0 -39 -3v75q92 2 92 47q0 34 -53 34q-39 0 -89 -24l-25 58q65 40 144 40q61 0 94 -24 t33 -70q0 -32 -20.5 -56t-55.5 -34q95 -9 95 -91q0 -55 -42.5 -84t-112.5 -29q-96 0 -155 51z"/>
<glyph glyph-name="questiondown" unicode="¿" horiz-adv-x="547" d="M336 314v-33q0 -39 -16 -73.5t-39 -59.5t-45.5 -48t-38.5 -50t-16 -55q0 -43 25.5 -65t69.5 -22q48 0 78 29.5t30 84.5h123q0 -113 -65 -170t-174 -57q-94 0 -157.5 48.5t-63.5 138.5q0 42 17.5 79t42.5 64t50 52.5t42.5 55.5t17.5 61v20h119zM354 470q0 -34 -20.5 -54 t-56.5 -20q-34 0 -55.5 19.5t-21.5 51.5t21.5 52.5t55.5 20.5q36 0 56.5 -19.5t20.5 -50.5z"/>
<glyph glyph-name="Agrave" unicode="À" horiz-adv-x="690" d="M275 720h139l259 -720h-148l-53 163h-254l-53 -163h-149zM255 279h179l-90 283zM283 934l178 -107l-45 -77l-187 87z"/>
<glyph glyph-name="Aacute" unicode="Á" horiz-adv-x="690" d="M275 720h139l259 -720h-148l-53 163h-254l-53 -163h-149zM255 279h179l-90 283zM221 827l178 107l54 -97l-187 -87z"/>
<glyph glyph-name="Acircumflex" unicode="Â" horiz-adv-x="690" d="M275 720h139l259 -720h-148l-53 163h-254l-53 -163h-149zM255 279h179l-90 283zM302 923h79l109 -113l-58 -49l-88 66l-87 -66l-60 50z"/>
<glyph glyph-name="Atilde" unicode="Ã" horiz-adv-x="690" d="M275 720h139l259 -720h-148l-53 163h-254l-53 -163h-149zM255 279h179l-90 283zM442 900l62 -23q-21 -100 -94 -100q-25 0 -70 16.5t-56 16.5q-13 0 -22 -8t-19 -29l-63 24q32 100 93 100q26 0 69.5 -17t59.5 -17q14 0 22 7t18 30z"/>
<glyph glyph-name="Adieresis" unicode="Ä" horiz-adv-x="690" d="M275 720h139l259 -720h-148l-53 163h-254l-53 -163h-149zM255 279h179l-90 283zM171 833q0 27 18.5 44.5t50.5 17.5q34 0 52 -17.5t18 -44.5t-19.5 -44t-50.5 -17q-33 0 -51 16.5t-18 44.5zM375 833q0 27 18.5 44.5t50.5 17.5q34 0 52 -17.5t18 -44.5t-19.5 -44 t-50.5 -17q-33 0 -51 16.5t-18 44.5z"/>
<glyph glyph-name="Aring" unicode="Å" horiz-adv-x="690" d="M235 797q0 47 31.5 76t79.5 29q46 0 77 -27.5t31 -73.5q0 -52 -40 -82l259 -719h-148l-53 163h-254l-53 -163h-149l258 717q-39 27 -39 80zM255 279h179l-90 283zM300 799q0 -42 46 -42q43 0 43 44q0 43 -43 43q-46 0 -46 -45z"/>
<glyph glyph-name="AE" unicode="Æ" horiz-adv-x="1013" d="M480 0v183h-215l-93 -183h-156l366 720h577v-122h-341v-173h310v-122h-310v-182h347v-121h-485zM308 296h172v307h-17z"/>
<glyph glyph-name="Ccedilla" unicode="Ç" horiz-adv-x="680" d="M279 -210l15 57q28 -10 57 -10q41 0 41 30q0 31 -59 31h-18l20 90q-140 11 -212.5 112t-72.5 260q0 165 84.5 268.5t239.5 103.5q117 0 192.5 -65t81.5 -188h-139q-4 55 -35.5 91.5t-98.5 36.5q-83 0 -130 -64.5t-47 -181.5q0 -122 48.5 -185.5t135.5 -63.5q106 0 201 83 l63 -93q-110 -104 -247 -114l-9 -45q18 -2 30.5 -5.5t27 -11.5t22 -23t7.5 -37q0 -45 -30.5 -68.5t-80.5 -23.5q-52 0 -87 16z"/>
<glyph glyph-name="Egrave" unicode="È" horiz-adv-x="606" d="M73 0v720h479v-122h-341v-173h310v-122h-310v-182h347v-121h-485zM234 935l178 -107l-45 -77l-187 87z"/>
<glyph glyph-name="Eacute" unicode="É" horiz-adv-x="606" d="M73 0v720h479v-122h-341v-173h310v-122h-310v-182h347v-121h-485zM197 828l178 107l54 -97l-187 -87z"/>
<glyph glyph-name="Ecircumflex" unicode="Ê" horiz-adv-x="606" d="M73 0v720h479v-122h-341v-173h310v-122h-310v-182h347v-121h-485zM274 924h79l109 -113l-58 -49l-88 66l-87 -66l-60 50z"/>
<glyph glyph-name="Edieresis" unicode="Ë" horiz-adv-x="606" d="M73 0v720h479v-122h-341v-173h310v-122h-310v-182h347v-121h-485zM142 834q0 27 18.5 44.5t50.5 17.5q34 0 52 -17.5t18 -44.5t-19.5 -44t-50.5 -17q-33 0 -51 16.5t-18 44.5zM346 834q0 27 18.5 44.5t50.5 17.5q34 0 52 -17.5t18 -44.5t-19.5 -44t-50.5 -17 q-33 0 -51 16.5t-18 44.5z"/>
<glyph glyph-name="Igrave" unicode="Ì" horiz-adv-x="288" d="M75 0v720h138v-720h-138zM77 934l178 -107l-45 -77l-187 87z"/>
<glyph glyph-name="Iacute" unicode="Í" horiz-adv-x="288" d="M75 0v720h138v-720h-138zM15 827l178 107l54 -97l-187 -87z"/>
<glyph glyph-name="Icircumflex" unicode="Î" horiz-adv-x="288" d="M75 0v720h138v-720h-138zM98 923h79l109 -113l-58 -49l-88 66l-87 -66l-60 50z"/>
<glyph glyph-name="Idieresis" unicode="Ï" horiz-adv-x="288" d="M75 0v720h138v-720h-138zM-32 833q0 27 18.5 44.5t50.5 17.5q34 0 52 -17.5t18 -44.5t-19.5 -44t-50.5 -17q-33 0 -51 16.5t-18 44.5zM172 833q0 27 18.5 44.5t50.5 17.5q34 0 52 -17.5t18 -44.5t-19.5 -44t-50.5 -17q-33 0 -51 16.5t-18 44.5z"/>
<glyph glyph-name="Eth" unicode="Ð" horiz-adv-x="719" d="M5 306v111h74v303h235q177 0 269 -94t92 -268q0 -185 -94 -271.5t-287 -86.5h-215v306h-74zM319 594h-101v-177h162v-111h-162v-180h101q109 0 159.5 56.5t50.5 175.5q0 118 -51 177t-159 59z"/>
<glyph glyph-name="Ntilde" unicode="Ñ" horiz-adv-x="725" d="M73 0v720h122l320 -487v487h137v-720h-121l-322 481v-481h-136zM468 900l62 -23q-21 -100 -94 -100q-25 0 -70 16.5t-56 16.5q-13 0 -22 -8t-19 -29l-63 24q32 100 93 100q26 0 69.5 -17t59.5 -17q14 0 22 7t18 30z"/>
<glyph glyph-name="Ograve" unicode="Ò" horiz-adv-x="774" d="M195 364q0 -120 52 -185.5t146 -65.5q95 0 146.5 65t51.5 186q0 112 -52.5 177t-144.5 65q-94 0 -146.5 -65.5t-52.5 -176.5zM50 364q0 172 93.5 270t249.5 98q157 0 250 -98t93 -270q0 -181 -92.5 -279t-250.5 -98t-250.5 98.5t-92.5 278.5zM328 934l178 -107l-45 -77 l-187 87z"/>
<glyph glyph-name="Oacute" unicode="Ó" horiz-adv-x="774" d="M195 364q0 -120 52 -185.5t146 -65.5q95 0 146.5 65t51.5 186q0 112 -52.5 177t-144.5 65q-94 0 -146.5 -65.5t-52.5 -176.5zM50 364q0 172 93.5 270t249.5 98q157 0 250 -98t93 -270q0 -181 -92.5 -279t-250.5 -98t-250.5 98.5t-92.5 278.5zM266 827l178 107l54 -97 l-187 -87z"/>
<glyph glyph-name="Ocircumflex" unicode="Ô" horiz-adv-x="774" d="M195 364q0 -120 52 -185.5t146 -65.5q95 0 146.5 65t51.5 186q0 112 -52.5 177t-144.5 65q-94 0 -146.5 -65.5t-52.5 -176.5zM50 364q0 172 93.5 270t249.5 98q157 0 250 -98t93 -270q0 -181 -92.5 -279t-250.5 -98t-250.5 98.5t-92.5 278.5zM350 923h79l109 -113 l-58 -49l-88 66l-87 -66l-60 50z"/>
<glyph glyph-name="Otilde" unicode="Õ" horiz-adv-x="774" d="M195 364q0 -120 52 -185.5t146 -65.5q95 0 146.5 65t51.5 186q0 112 -52.5 177t-144.5 65q-94 0 -146.5 -65.5t-52.5 -176.5zM50 364q0 172 93.5 270t249.5 98q157 0 250 -98t93 -270q0 -181 -92.5 -279t-250.5 -98t-250.5 98.5t-92.5 278.5zM497 900l62 -23 q-21 -100 -94 -100q-25 0 -70 16.5t-56 16.5q-13 0 -22 -8t-19 -29l-63 24q32 100 93 100q26 0 69.5 -17t59.5 -17q14 0 22 7t18 30z"/>
<glyph glyph-name="Odieresis" unicode="Ö" horiz-adv-x="774" d="M195 364q0 -120 52 -185.5t146 -65.5q95 0 146.5 65t51.5 186q0 112 -52.5 177t-144.5 65q-94 0 -146.5 -65.5t-52.5 -176.5zM50 364q0 172 93.5 270t249.5 98q157 0 250 -98t93 -270q0 -181 -92.5 -279t-250.5 -98t-250.5 98.5t-92.5 278.5zM219 833q0 27 18.5 44.5 t50.5 17.5q34 0 52 -17.5t18 -44.5t-19.5 -44t-50.5 -17q-33 0 -51 16.5t-18 44.5zM423 833q0 27 18.5 44.5t50.5 17.5q34 0 52 -17.5t18 -44.5t-19.5 -44t-50.5 -17q-33 0 -51 16.5t-18 44.5z"/>
<glyph glyph-name="multiply" unicode="×" horiz-adv-x="600" d="M517 444l-155 -154l155 -155l-61 -61l-155 156l-154 -156l-64 64l155 155l-155 154l61 61l154 -155l155 155z"/>
<glyph glyph-name="Oslash" unicode="Ø" horiz-adv-x="774" d="M50 364q0 172 93.5 270t249.5 98q23 0 46 -3l18 58h118l-26 -86q89 -40 138 -127t49 -210q0 -181 -92.5 -279t-250.5 -98q-21 0 -61 4l-21 -71h-117l31 103q-83 42 -129 129t-46 212zM591 364q0 143 -82 206l-139 -456q7 -1 23 -1q95 0 146.5 65t51.5 186zM195 364 q0 -143 71 -206l136 448h-8q-94 0 -146.5 -65.5t-52.5 -176.5z"/>
<glyph glyph-name="Ugrave" unicode="Ù" horiz-adv-x="711" d="M70 720h138v-442q0 -84 39 -126t109 -42q76 0 111.5 41.5t35.5 126.5v442h138v-448q0 -140 -73.5 -212t-212.5 -72q-137 0 -211 70t-74 214v448zM289 934l178 -107l-45 -77l-187 87z"/>
<glyph glyph-name="Uacute" unicode="Ú" horiz-adv-x="711" d="M70 720h138v-442q0 -84 39 -126t109 -42q76 0 111.5 41.5t35.5 126.5v442h138v-448q0 -140 -73.5 -212t-212.5 -72q-137 0 -211 70t-74 214v448zM253 827l178 107l54 -97l-187 -87z"/>
<glyph glyph-name="Ucircumflex" unicode="Û" horiz-adv-x="711" d="M70 720h138v-442q0 -84 39 -126t109 -42q76 0 111.5 41.5t35.5 126.5v442h138v-448q0 -140 -73.5 -212t-212.5 -72q-137 0 -211 70t-74 214v448zM322 923h79l109 -113l-58 -49l-88 66l-87 -66l-60 50z"/>
<glyph glyph-name="Udieresis" unicode="Ü" horiz-adv-x="711" d="M70 720h138v-442q0 -84 39 -126t109 -42q76 0 111.5 41.5t35.5 126.5v442h138v-448q0 -140 -73.5 -212t-212.5 -72q-137 0 -211 70t-74 214v448zM193 833q0 27 18.5 44.5t50.5 17.5q34 0 52 -17.5t18 -44.5t-19.5 -44t-50.5 -17q-33 0 -51 16.5t-18 44.5zM397 833 q0 27 18.5 44.5t50.5 17.5q34 0 52 -17.5t18 -44.5t-19.5 -44t-50.5 -17q-33 0 -51 16.5t-18 44.5z"/>
<glyph glyph-name="Yacute" unicode="Ý" horiz-adv-x="639" d="M246 0v287l-236 433h151l156 -296l157 296h155l-244 -433v-287h-139zM225 827l178 107l54 -97l-187 -87z"/>
<glyph glyph-name="Thorn" unicode="Þ" horiz-adv-x="618" d="M60 0v720h139v-104h122q118 0 185.5 -55.5t67.5 -171.5q0 -121 -70 -181.5t-193 -60.5h-112v-147h-139zM310 496h-111v-236h105q135 0 135 119q0 117 -129 117z"/>
<glyph glyph-name="germandbls" unicode="ß" horiz-adv-x="622" d="M93 0v430h-69v78l69 13v19q0 102 66 147.5t165 45.5q102 0 157 -46.5t55 -138.5q0 -65 -35 -110.5t-95 -59.5q176 -31 176 -192q0 -93 -55.5 -145.5t-142.5 -52.5q-78 0 -129 40l27 88q32 -20 78 -20q40 0 65.5 26t25.5 76q0 59 -41 88.5t-120 36.5v100q119 10 119 114 q0 99 -93 99q-47 0 -69 -27t-22 -84v-525h-132z"/>
<glyph glyph-name="agrave" unicode="à" d="M358 203v14q-25 5 -63 5q-121 0 -121 -78q0 -59 72 -59q49 0 80.5 37t31.5 81zM491 346v-346h-106l-14 71q-57 -84 -166 -84q-74 0 -118.5 40t-44.5 115q0 71 57.5 119t183.5 48q42 0 75 -4v39q0 90 -90 90q-44 0 -78 -12t-78 -38l-45 80q96 76 215 76q209 0 209 -194z M215 788l156 -143l-59 -66l-166 126z"/>
<glyph glyph-name="aacute" unicode="á" d="M358 203v14q-25 5 -63 5q-121 0 -121 -78q0 -59 72 -59q49 0 80.5 37t31.5 81zM491 346v-346h-106l-14 71q-57 -84 -166 -84q-74 0 -118.5 40t-44.5 115q0 71 57.5 119t183.5 48q42 0 75 -4v39q0 90 -90 90q-44 0 -78 -12t-78 -38l-45 80q96 76 215 76q209 0 209 -194z M168 645l156 143l69 -83l-166 -126z"/>
<glyph glyph-name="acircumflex" unicode="â" d="M358 203v14q-25 5 -63 5q-121 0 -121 -78q0 -59 72 -59q49 0 80.5 37t31.5 81zM491 346v-346h-106l-14 71q-57 -84 -166 -84q-74 0 -118.5 40t-44.5 115q0 71 57.5 119t183.5 48q42 0 75 -4v39q0 90 -90 90q-44 0 -78 -12t-78 -38l-45 80q96 76 215 76q209 0 209 -194z M232 761h79l111 -144l-58 -41l-91 89l-91 -89l-61 40z"/>
<glyph glyph-name="atilde" unicode="ã" d="M358 203v14q-25 5 -63 5q-121 0 -121 -78q0 -59 72 -59q49 0 80.5 37t31.5 81zM491 346v-346h-106l-14 71q-57 -84 -166 -84q-74 0 -118.5 40t-44.5 115q0 71 57.5 119t183.5 48q42 0 75 -4v39q0 90 -90 90q-44 0 -78 -12t-78 -38l-45 80q96 76 215 76q209 0 209 -194z M369 717l62 -23q-21 -100 -94 -100q-25 0 -70 16.5t-56 16.5q-13 0 -22 -8t-19 -29l-63 24q32 100 93 100q26 0 69.5 -17t59.5 -17q14 0 22 7t18 30z"/>
<glyph glyph-name="adieresis" unicode="ä" d="M358 203v14q-25 5 -63 5q-121 0 -121 -78q0 -59 72 -59q49 0 80.5 37t31.5 81zM491 346v-346h-106l-14 71q-57 -84 -166 -84q-74 0 -118.5 40t-44.5 115q0 71 57.5 119t183.5 48q42 0 75 -4v39q0 90 -90 90q-44 0 -78 -12t-78 -38l-45 80q96 76 215 76q209 0 209 -194z M101 656q0 27 18.5 44.5t50.5 17.5q34 0 52 -17.5t18 -44.5t-19.5 -44t-50.5 -17q-33 0 -51 16.5t-18 44.5zM305 656q0 27 18.5 44.5t50.5 17.5q34 0 52 -17.5t18 -44.5t-19.5 -44t-50.5 -17q-33 0 -51 16.5t-18 44.5z"/>
<glyph glyph-name="aring" unicode="å" d="M358 203v14q-25 5 -63 5q-121 0 -121 -78q0 -59 72 -59q49 0 80.5 37t31.5 81zM491 346v-346h-106l-14 71q-57 -84 -166 -84q-74 0 -118.5 40t-44.5 115q0 71 57.5 119t183.5 48q42 0 75 -4v39q0 90 -90 90q-44 0 -78 -12t-78 -38l-45 80q96 76 215 76q209 0 209 -194z M226 668q0 -39 42 -39q40 0 40 41q0 39 -40 39q-42 0 -42 -41zM166 666q0 44 29 70.5t73 26.5q43 0 71.5 -25.5t28.5 -67.5q0 -43 -28.5 -69t-71.5 -26q-46 0 -74 24t-28 67z"/>
<glyph glyph-name="ae" unicode="æ" horiz-adv-x="883" d="M784 142l43 -87q-92 -68 -214 -68q-128 0 -194 77q-72 -77 -189 -77q-88 0 -138 40t-50 118q0 72 54 119t172 47q45 0 90 -7v40q0 94 -96 94q-82 0 -159 -47l-36 83q43 30 100 48t111 18q59 0 97.5 -17.5t64.5 -61.5q60 79 184 79q104 0 160.5 -64t56.5 -190 q0 -46 -2 -64h-341q10 -125 131 -125q69 0 155 45zM499 309h215q0 131 -99 131q-59 0 -87.5 -42.5t-28.5 -88.5zM250 86q39 0 72.5 17t52.5 40q-13 31 -15 74q-24 6 -56 6q-129 0 -129 -73q0 -64 75 -64z"/>
<glyph glyph-name="ccedilla" unicode="ç" d="M201 -205l15 57q28 -10 57 -10q41 0 41 30q0 31 -59 31h-18l19 87q-97 12 -153.5 84t-56.5 189q0 126 71.5 201.5t188.5 75.5q101 0 156.5 -54t58.5 -157h-111q-5 51 -32 77t-70 26q-57 0 -89.5 -42t-32.5 -122q0 -78 33 -124t97 -46t150 48l49 -84q-80 -67 -195 -74 l-8 -40q18 -2 30.5 -5.5t27 -11.5t22 -23t7.5 -37q0 -45 -30.5 -68.5t-80.5 -23.5q-52 0 -87 16z"/>
<glyph glyph-name="egrave" unicode="è" horiz-adv-x="549" d="M472 142l43 -87q-92 -68 -214 -68q-120 0 -187.5 70.5t-67.5 202.5q0 128 69.5 204t186.5 76q111 0 169 -64.5t58 -191.5q0 -47 -2 -65h-341q10 -122 131 -122q69 0 155 45zM187 315h215q0 125 -99 125q-58 0 -86 -40.5t-30 -84.5zM233 788l156 -143l-59 -66l-166 126z "/>
<glyph glyph-name="eacute" unicode="é" horiz-adv-x="549" d="M472 142l43 -87q-92 -68 -214 -68q-120 0 -187.5 70.5t-67.5 202.5q0 128 69.5 204t186.5 76q111 0 169 -64.5t58 -191.5q0 -47 -2 -65h-341q10 -122 131 -122q69 0 155 45zM187 315h215q0 125 -99 125q-58 0 -86 -40.5t-30 -84.5zM176 645l156 143l69 -83l-166 -126z "/>
<glyph glyph-name="ecircumflex" unicode="ê" horiz-adv-x="549" d="M472 142l43 -87q-92 -68 -214 -68q-120 0 -187.5 70.5t-67.5 202.5q0 128 69.5 204t186.5 76q111 0 169 -64.5t58 -191.5q0 -47 -2 -65h-341q10 -122 131 -122q69 0 155 45zM187 315h215q0 125 -99 125q-58 0 -86 -40.5t-30 -84.5zM252 761h79l111 -144l-58 -41l-91 89 l-91 -89l-61 40z"/>
<glyph glyph-name="edieresis" unicode="ë" horiz-adv-x="549" d="M472 142l43 -87q-92 -68 -214 -68q-120 0 -187.5 70.5t-67.5 202.5q0 128 69.5 204t186.5 76q111 0 169 -64.5t58 -191.5q0 -47 -2 -65h-341q10 -122 131 -122q69 0 155 45zM187 315h215q0 125 -99 125q-58 0 -86 -40.5t-30 -84.5zM116 656q0 27 18.5 44.5t50.5 17.5 q34 0 52 -17.5t18 -44.5t-19.5 -44t-50.5 -17q-33 0 -51 16.5t-18 44.5zM320 656q0 27 18.5 44.5t50.5 17.5q34 0 52 -17.5t18 -44.5t-19.5 -44t-50.5 -17q-33 0 -51 16.5t-18 44.5z"/>
<glyph glyph-name="igrave" unicode="ì" horiz-adv-x="258" d="M84 788l156 -143l-59 -66l-166 126zM205 528v-528h-132v528h132z"/>
<glyph glyph-name="iacute" unicode="í" horiz-adv-x="258" d="M12 645l156 143l69 -83l-166 -126zM205 528v-528h-132v528h132z"/>
<glyph glyph-name="icircumflex" unicode="î" horiz-adv-x="258" d="M205 528v-528h-132v528h132zM89 761h79l111 -144l-58 -41l-91 89l-91 -89l-61 40z"/>
<glyph glyph-name="idieresis" unicode="ï" horiz-adv-x="258" d="M-39 656q0 27 18.5 44.5t50.5 17.5q34 0 52 -17.5t18 -44.5t-19.5 -44t-50.5 -17q-33 0 -51 16.5t-18 44.5zM165 656q0 27 18.5 44.5t50.5 17.5q34 0 52 -17.5t18 -44.5t-19.5 -44t-50.5 -17q-33 0 -51 16.5t-18 44.5zM205 528v-528h-132v528h132z"/>
<glyph glyph-name="eth" unicode="ð" horiz-adv-x="566" d="M259 482l-56 75l54 38q-51 27 -122 42l30 86q107 -13 186 -61l84 59l56 -74l-66 -47q96 -110 96 -300q0 -147 -63.5 -230t-185.5 -83q-101 0 -164 59.5t-63 168.5q0 102 53.5 165.5t144.5 63.5q88 0 156 -70q-10 99 -65 161zM278 90q121 0 119 190q-52 60 -121 60 q-47 0 -76.5 -33t-29.5 -94q0 -62 29.5 -92.5t78.5 -30.5z"/>
<glyph glyph-name="ntilde" unicode="ñ" horiz-adv-x="566" d="M67 528h111l11 -70q71 82 171 82q82 0 124.5 -49t42.5 -137v-354h-133v314q0 59 -20.5 86t-62.5 27q-61 0 -111 -59v-368h-133v528zM401 717l62 -23q-21 -100 -94 -100q-25 0 -70 16.5t-56 16.5q-13 0 -22 -8t-19 -29l-63 24q32 100 93 100q26 0 69.5 -17t59.5 -17 q14 0 22 7t18 30z"/>
<glyph glyph-name="ograve" unicode="ò" horiz-adv-x="594" d="M186 264q0 -85 33 -125t89 -40q57 0 90 40t33 125q0 84 -33.5 125t-89.5 41t-89 -42t-33 -124zM46 261q0 133 73.5 206t190.5 73q116 0 188.5 -72t72.5 -204q0 -131 -74.5 -204t-193.5 -73q-120 0 -188.5 71.5t-68.5 202.5zM256 788l156 -143l-59 -66l-166 126z"/>
<glyph glyph-name="oacute" unicode="ó" horiz-adv-x="594" d="M186 264q0 -85 33 -125t89 -40q57 0 90 40t33 125q0 84 -33.5 125t-89.5 41t-89 -42t-33 -124zM46 261q0 133 73.5 206t190.5 73q116 0 188.5 -72t72.5 -204q0 -131 -74.5 -204t-193.5 -73q-120 0 -188.5 71.5t-68.5 202.5zM188 645l156 143l69 -83l-166 -126z"/>
<glyph glyph-name="ocircumflex" unicode="ô" horiz-adv-x="594" d="M186 264q0 -85 33 -125t89 -40q57 0 90 40t33 125q0 84 -33.5 125t-89.5 41t-89 -42t-33 -124zM46 261q0 133 73.5 206t190.5 73q116 0 188.5 -72t72.5 -204q0 -131 -74.5 -204t-193.5 -73q-120 0 -188.5 71.5t-68.5 202.5zM270 761h79l111 -144l-58 -41l-91 89l-91 -89 l-61 40z"/>
<glyph glyph-name="otilde" unicode="õ" horiz-adv-x="594" d="M186 264q0 -85 33 -125t89 -40q57 0 90 40t33 125q0 84 -33.5 125t-89.5 41t-89 -42t-33 -124zM46 261q0 133 73.5 206t190.5 73q116 0 188.5 -72t72.5 -204q0 -131 -74.5 -204t-193.5 -73q-120 0 -188.5 71.5t-68.5 202.5zM408 717l62 -23q-21 -100 -94 -100 q-25 0 -70 16.5t-56 16.5q-13 0 -22 -8t-19 -29l-63 24q32 100 93 100q26 0 69.5 -17t59.5 -17q14 0 22 7t18 30z"/>
<glyph glyph-name="odieresis" unicode="ö" horiz-adv-x="594" d="M186 264q0 -85 33 -125t89 -40q57 0 90 40t33 125q0 84 -33.5 125t-89.5 41t-89 -42t-33 -124zM46 261q0 133 73.5 206t190.5 73q116 0 188.5 -72t72.5 -204q0 -131 -74.5 -204t-193.5 -73q-120 0 -188.5 71.5t-68.5 202.5zM134 656q0 27 18.5 44.5t50.5 17.5 q34 0 52 -17.5t18 -44.5t-19.5 -44t-50.5 -17q-33 0 -51 16.5t-18 44.5zM338 656q0 27 18.5 44.5t50.5 17.5q34 0 52 -17.5t18 -44.5t-19.5 -44t-50.5 -17q-33 0 -51 16.5t-18 44.5z"/>
<glyph glyph-name="divide" unicode="÷" horiz-adv-x="600" d="M300 526q23 0 39.5 -17t16.5 -41q0 -23 -16 -39.5t-40 -16.5t-41 16.5t-17 39.5t17 40.5t41 17.5zM40 252v84h520v-84h-520zM299 180q24 0 40.5 -17t16.5 -41q0 -23 -16.5 -40t-41.5 -17q-22 0 -39.5 17.5t-17.5 39.5q0 23 17.5 40.5t40.5 17.5z"/>
<glyph glyph-name="oslash" unicode="ø" horiz-adv-x="597" d="M46 261q0 133 73.5 206t190.5 73q12 0 36 -2l17 55h99l-25 -81q63 -31 98.5 -94.5t35.5 -153.5q0 -131 -74.5 -204t-193.5 -73q-21 0 -30 1l-20 -64h-98l27 86q-136 62 -136 251zM186 264q0 -85 35 -128l91 294h-4q-56 0 -89 -42t-33 -124zM431 264q0 82 -33 124 l-91 -289h1q57 0 90 40t33 125z"/>
<glyph glyph-name="ugrave" unicode="ù" horiz-adv-x="585" d="M518 0h-109l-11 69q-72 -82 -167 -82q-168 0 -168 183v358h133v-326q0 -52 18 -77.5t61 -25.5q61 0 110 57v372h133v-528zM239 788l156 -143l-59 -66l-166 126z"/>
<glyph glyph-name="uacute" unicode="ú" horiz-adv-x="585" d="M518 0h-109l-11 69q-72 -82 -167 -82q-168 0 -168 183v358h133v-326q0 -52 18 -77.5t61 -25.5q61 0 110 57v372h133v-528zM192 645l156 143l69 -83l-166 -126z"/>
<glyph glyph-name="ucircumflex" unicode="û" horiz-adv-x="585" d="M518 0h-109l-11 69q-72 -82 -167 -82q-168 0 -168 183v358h133v-326q0 -52 18 -77.5t61 -25.5q61 0 110 57v372h133v-528zM256 761h79l111 -144l-58 -41l-91 89l-91 -89l-61 40z"/>
<glyph glyph-name="udieresis" unicode="ü" horiz-adv-x="585" d="M518 0h-109l-11 69q-72 -82 -167 -82q-168 0 -168 183v358h133v-326q0 -52 18 -77.5t61 -25.5q61 0 110 57v372h133v-528zM119 656q0 27 18.5 44.5t50.5 17.5q34 0 52 -17.5t18 -44.5t-19.5 -44t-50.5 -17q-33 0 -51 16.5t-18 44.5zM323 656q0 27 18.5 44.5t50.5 17.5 q34 0 52 -17.5t18 -44.5t-19.5 -44t-50.5 -17q-33 0 -51 16.5t-18 44.5z"/>
<glyph glyph-name="yacute" unicode="ý" horiz-adv-x="531" d="M382 528h133l-178 -507q-15 -43 -21.5 -61t-19.5 -49t-22.5 -43t-25.5 -30t-33 -24t-40.5 -11.5t-53.5 -5.5q-44 0 -89 12l10 94q37 -7 67 -7q32 0 51.5 14.5t34.5 59.5l5 15l-184 543h139l109 -390zM169 645l156 143l69 -83l-166 -126z"/>
<glyph glyph-name="thorn" unicode="þ" horiz-adv-x="601" d="M200 361v-202q44 -60 112 -60q121 0 121 162q0 169 -115 169q-58 0 -118 -69zM200 -200h-133v920h130v-262q70 82 172 82q94 0 148.5 -71t54.5 -203t-55.5 -205t-163.5 -73q-93 0 -153 65v-253z"/>
</font>
</defs>
</svg>
